<svg width="375" height="264" viewBox="0 0 375 264" fill="none" xmlns="http://www.w3.org/2000/svg">
<g filter="url(#filter0_d)">
<path fill-rule="evenodd" clip-rule="evenodd" d="M337.205 193.696C337.205 199.504 332.497 204.2 326.673 204.2H47.5313C41.7081 204.2 37 199.504 37 193.696V25.5042C37 19.696 41.7081 15 47.5313 15H326.797C332.62 15 337.329 19.696 337.329 25.5042V193.696H337.205Z" fill="url(#paint0_linear)"/>
<g opacity="0.8">
<mask id="mask0" mask-type="alpha" maskUnits="userSpaceOnUse" x="37" y="15" width="301" height="189">
<path d="M37 26.7779C37 20.2732 42.3503 15 48.9503 15H325.646C332.246 15 337.596 20.2732 337.596 26.7779V191.669C337.596 198.174 332.246 203.447 325.646 203.447H48.9503C42.3503 203.447 37 198.174 37 191.669V26.7779Z" fill="url(#paint1_linear)"/>
</mask>
<g mask="url(#mask0)">
<path fill-rule="evenodd" clip-rule="evenodd" d="M343.443 198.812C343.444 200.235 343.166 201.645 342.622 202.961C342.078 204.277 341.281 205.472 340.275 206.479C339.269 207.486 338.074 208.285 336.759 208.83C335.444 209.376 334.035 209.656 332.611 209.656H45.0865C43.662 209.658 42.2511 209.379 40.9346 208.834C39.6182 208.29 38.4221 207.491 37.4148 206.484C36.4075 205.476 35.6087 204.28 35.0644 202.964C34.52 201.647 34.2406 200.237 34.2423 198.812V25.2152C34.2423 22.3392 35.3848 19.5809 37.4185 17.5472C39.4522 15.5135 42.2105 14.371 45.0865 14.371H332.611C335.485 14.3744 338.24 15.5184 340.271 17.5517C342.302 19.5851 343.443 22.3414 343.443 25.2152V198.812Z" fill="url(#paint2_linear)"/>
<g opacity="0.8">
<path opacity="0.8" fill-rule="evenodd" clip-rule="evenodd" d="M234.886 99.1856C236.211 99.6568 237.657 99.6606 238.985 99.1965C240.312 98.7323 241.441 97.8281 242.183 96.634L266.819 57.7479C266.877 57.6581 266.956 57.5841 267.049 57.5329C267.143 57.4816 267.248 57.4546 267.355 57.4545H287.372C295.333 57.4545 302.056 54.3415 302.056 50.6673C302.056 46.993 295.333 43.8673 287.372 43.8673H267.355C267.248 43.8696 267.142 43.8437 267.048 43.7922C266.954 43.7407 266.875 43.6654 266.819 43.5739L248.409 14.371H238.841L248.001 42.9742C248.029 43.0714 248.034 43.1736 248.016 43.2731C247.999 43.3726 247.959 43.4668 247.899 43.5484C247.841 43.6291 247.764 43.6945 247.675 43.739C247.586 43.7834 247.488 43.8056 247.389 43.8035H222.077C221.967 43.8029 221.859 43.7746 221.763 43.721C221.667 43.6675 221.587 43.5905 221.528 43.4973L217.063 36.0595C216.676 35.42 216.1 34.9161 215.414 34.6169C214.729 34.3177 213.968 34.2378 213.236 34.3882L215.583 50.5142C215.596 50.573 215.596 50.6339 215.583 50.6928L213.236 66.8188C213.97 66.9679 214.731 66.8861 215.417 66.5846C216.102 66.283 216.677 65.7765 217.063 65.1347L221.528 57.7479C221.587 57.6547 221.667 57.5777 221.763 57.5242C221.859 57.4707 221.967 57.4423 222.077 57.4417H247.389C247.488 57.4437 247.586 57.4686 247.674 57.5144C247.763 57.5601 247.84 57.6256 247.899 57.7057C247.958 57.7858 247.998 57.8784 248.016 57.9764C248.033 58.0744 248.028 58.1752 248.001 58.271L234.886 99.1856ZM149.792 94.1585L146.934 90.3312L149.026 86.5931C156.013 87.5041 162.866 89.2473 169.439 91.7856L173.113 104.543L171.302 105.819L164.859 100.716L154.181 94.975L153.989 94.9112L149.792 94.1585ZM187.999 209.655H170.023L175.445 193.389C175.478 193.282 175.482 193.168 175.458 193.058C175.433 192.948 175.38 192.847 175.305 192.764L169.845 186.729L165.099 178.947L168.467 173.359C168.506 173.292 168.532 173.219 168.543 173.142L169.13 169.787C169.156 169.644 169.132 169.496 169.062 169.369C168.993 169.241 168.882 169.141 168.748 169.085L163.019 166.789L160.953 163.229C160.884 163.112 160.782 163.019 160.659 162.961L154.433 160.167L146.46 158.024L141.101 153.827L131.482 143.225L126.876 133.274L128.509 127.775C128.54 127.7 128.556 127.62 128.556 127.539C128.556 127.458 128.54 127.378 128.509 127.303L123.763 117.811C123.712 117.714 123.638 117.63 123.546 117.569L115.139 112.032C115.063 111.982 114.976 111.949 114.886 111.936C114.795 111.922 114.703 111.929 114.616 111.955L107.956 113.92L110.1 111.152C110.158 111.075 110.199 110.985 110.219 110.89C110.239 110.795 110.237 110.697 110.214 110.603L109.104 106.38L113.838 101.124H120.842L127.629 106.521C127.723 106.589 127.833 106.633 127.948 106.648L135.603 107.643C135.691 107.656 135.782 107.656 135.87 107.643L143.181 105.462C143.315 105.427 143.434 105.347 143.518 105.236C143.601 105.125 143.644 104.988 143.64 104.849C143.638 104.712 143.592 104.578 143.51 104.468C143.427 104.358 143.312 104.277 143.181 104.237L135.118 101.915L137.95 97.5772L142.377 93.8519L147.008 99.4399C147.072 99.5199 147.155 99.5816 147.251 99.6185L153.17 102.17L157.495 104.556L150.555 106.342C150.457 106.363 150.367 106.407 150.291 106.472C150.215 106.537 150.157 106.619 150.121 106.712L147.353 113.435C147.302 113.563 147.294 113.703 147.328 113.836C147.363 113.969 147.438 114.088 147.544 114.175L157.227 122.072C157.322 122.151 157.437 122.201 157.559 122.217C157.681 122.232 157.805 122.213 157.916 122.162C158.023 122.105 158.112 122.02 158.175 121.917C158.238 121.814 158.272 121.696 158.273 121.575L158.095 112.44L163.759 113.308L178.992 120.962L172.065 126.474C172.004 126.519 171.952 126.576 171.912 126.64L164.576 138.76C164.515 138.859 164.484 138.975 164.486 139.091V147.129L162.841 147.626L160.723 144.105C160.653 143.988 160.547 143.895 160.421 143.843C160.294 143.79 160.154 143.779 160.021 143.812L149.547 146.363C149.396 146.4 149.264 146.49 149.175 146.616C149.085 146.743 149.045 146.898 149.062 147.052L150.083 155.154C150.102 155.309 150.177 155.452 150.295 155.556C150.412 155.66 150.564 155.716 150.721 155.715H155.033C155.135 155.717 155.237 155.693 155.328 155.646C155.419 155.6 155.497 155.531 155.556 155.447L157.214 153.125L159.307 154.248L158.758 159.351C158.739 159.511 158.781 159.672 158.876 159.802C158.97 159.932 159.111 160.022 159.268 160.053L164.002 160.997L164.907 166.291C164.924 166.378 164.958 166.461 165.009 166.533C165.06 166.606 165.125 166.667 165.201 166.712C165.273 166.761 165.355 166.794 165.44 166.809C165.526 166.825 165.614 166.822 165.698 166.802L169.462 165.806C169.523 165.794 169.579 165.768 169.628 165.73L175.497 162.145L185.984 165.972L195.947 171.522V176.293C195.947 176.463 196.015 176.625 196.134 176.745C196.254 176.864 196.416 176.931 196.585 176.931H201.982L208.922 180.121L210.887 185.224L205.886 191.96L200.885 202.549L192.898 204.067C192.757 204.093 192.63 204.171 192.541 204.284L187.999 209.655ZM55.6616 209.657C50.9578 198.644 48.536 186.791 48.5427 174.815C48.5605 160.564 52.0053 146.526 58.5865 133.885C65.1677 121.244 74.6924 110.372 86.3571 102.184L92.8254 101.559L98.4389 103.116H98.6175L109.066 102.325C109.205 102.316 109.337 102.261 109.441 102.168C109.545 102.076 109.615 101.951 109.64 101.814L111.056 94.5041C111.075 94.4186 111.076 94.3302 111.058 94.2445C111.041 94.1588 111.005 94.0777 110.954 94.0065L108.632 90.7278C117.926 87.5275 127.687 85.8935 137.516 85.8925C140.927 85.8982 144.335 86.0984 147.723 86.4921L145.669 90.0516C145.6 90.1557 145.563 90.2777 145.563 90.4024C145.563 90.5271 145.6 90.6491 145.669 90.7533L148.935 95.1547C149.03 95.2843 149.172 95.3713 149.33 95.3971L153.681 96.1754L164.168 101.802L170.891 107.134C171.004 107.224 171.143 107.273 171.286 107.275C171.418 107.274 171.547 107.234 171.656 107.16L174.208 105.387C174.319 105.311 174.403 105.203 174.449 105.077C174.495 104.951 174.5 104.814 174.463 104.685L170.942 92.4501C181.87 96.8937 191.804 103.468 200.165 111.79C208.526 120.112 215.146 130.015 219.641 140.922C224.135 151.829 226.414 163.522 226.344 175.318C226.273 187.114 223.855 198.779 219.231 209.631H189.683L193.37 205.255L201.459 203.712C201.559 203.694 201.653 203.652 201.733 203.59C201.813 203.528 201.876 203.447 201.918 203.354L207.021 192.6L212.124 185.672C212.187 185.587 212.227 185.487 212.24 185.382C212.253 185.277 212.24 185.171 212.201 185.072L210.032 179.331C209.972 179.177 209.852 179.053 209.701 178.987L202.377 175.619C202.293 175.6 202.206 175.6 202.122 175.619H197.223V171.115C197.222 171.001 197.191 170.889 197.133 170.79C197.075 170.691 196.991 170.61 196.892 170.554L186.519 164.775L175.65 160.82C175.562 160.779 175.466 160.757 175.369 160.757C175.272 160.757 175.176 160.779 175.088 160.82L169.041 164.519L166.056 165.31L165.188 160.207C165.163 160.081 165.101 159.966 165.01 159.875C164.919 159.784 164.804 159.722 164.678 159.697L160.111 158.817L160.646 153.867C160.657 153.738 160.63 153.61 160.569 153.496C160.508 153.383 160.415 153.29 160.302 153.229L157.342 151.647C157.204 151.576 157.046 151.557 156.895 151.595C156.745 151.633 156.614 151.724 156.526 151.851L154.739 154.402H151.282L150.427 147.411L159.894 145.089L162.024 148.636C162.098 148.759 162.211 148.854 162.345 148.905C162.48 148.956 162.627 148.96 162.764 148.917L165.316 148.138C165.444 148.094 165.555 148.012 165.635 147.902C165.715 147.793 165.759 147.661 165.762 147.526V139.195L172.919 127.394L180.574 121.334C180.656 121.267 180.72 121.18 180.76 121.082C180.8 120.984 180.815 120.878 180.804 120.773C180.792 120.666 180.754 120.564 180.694 120.475C180.634 120.386 180.554 120.313 180.459 120.262L164.244 112.161C164.185 112.128 164.12 112.107 164.053 112.097L157.533 111.115C157.441 111.099 157.347 111.104 157.257 111.128C157.166 111.152 157.082 111.196 157.01 111.255C156.941 111.318 156.886 111.395 156.849 111.481C156.811 111.567 156.793 111.659 156.793 111.753L156.972 120.262L148.718 113.577L151.18 107.581L159.371 105.489C159.494 105.457 159.605 105.389 159.689 105.293C159.773 105.198 159.827 105.08 159.844 104.953C159.86 104.827 159.838 104.699 159.781 104.585C159.724 104.471 159.635 104.377 159.524 104.315L153.732 101.125L147.901 98.5739L142.836 92.5776C142.782 92.5126 142.716 92.4589 142.641 92.4198C142.566 92.3807 142.484 92.3568 142.399 92.3497C142.315 92.3426 142.23 92.3523 142.15 92.3783C142.069 92.4043 141.995 92.446 141.931 92.5011L136.942 96.6984C136.893 96.7389 136.85 96.7861 136.815 96.8388L133.459 101.942C133.412 102.028 133.388 102.125 133.388 102.223C133.388 102.321 133.412 102.417 133.459 102.503C133.492 102.598 133.548 102.684 133.621 102.753C133.695 102.821 133.784 102.872 133.88 102.899L140.68 104.864L135.577 106.382L128.178 105.438L121.39 100.015C121.281 99.9205 121.14 99.8704 120.995 99.8752H113.48C113.392 99.8761 113.305 99.8946 113.224 99.9296C113.143 99.9647 113.07 100.016 113.008 100.079L107.905 105.82C107.835 105.899 107.786 105.994 107.761 106.096C107.737 106.199 107.738 106.305 107.765 106.407L108.875 110.643L105.698 114.751C105.616 114.859 105.572 114.991 105.572 115.127C105.572 115.263 105.616 115.395 105.698 115.504C105.771 115.617 105.88 115.702 106.007 115.746C106.134 115.79 106.273 115.79 106.4 115.746L114.616 113.258L122.781 118.54L127.336 127.649L125.626 133.135C125.569 133.283 125.569 133.447 125.626 133.594L130.359 143.877C130.39 143.933 130.429 143.985 130.474 144.03L140.234 154.785L145.771 159.136C145.84 159.186 145.918 159.225 146 159.25L154.012 161.381L159.957 164.073L162.024 167.645C162.095 167.773 162.207 167.872 162.343 167.926L167.791 170.107L167.306 172.838L163.81 178.668C163.748 178.767 163.715 178.882 163.715 179C163.715 179.117 163.748 179.232 163.81 179.331L168.824 187.522L174.106 193.378L168.697 209.657H55.6616ZM171.873 154.926H177.206V153.701H171.988L166.566 151.57L166.094 152.757L171.631 154.926C171.711 154.939 171.793 154.939 171.873 154.926ZM92.9541 100.27C92.8781 100.257 92.8004 100.257 92.7244 100.27L88.425 100.716C94.3188 96.7945 100.662 93.5948 107.319 91.1863L109.705 94.5543L108.429 101.125L98.5803 101.826L92.9541 100.27ZM249.915 14.371H332.611C335.485 14.3744 338.24 15.5184 340.271 17.5517C342.302 19.5851 343.443 22.3414 343.443 25.2153V198.812C343.444 200.235 343.166 201.645 342.622 202.961C342.078 204.277 341.281 205.472 340.275 206.479C339.269 207.486 338.074 208.285 336.759 208.83C335.444 209.376 334.035 209.656 332.611 209.656H220.661C226.406 195.947 228.675 181.029 227.264 166.231C225.853 151.434 220.807 137.214 212.574 124.837C204.341 112.46 193.177 102.309 180.075 95.2884C166.972 88.2674 152.338 84.5936 137.473 84.5936C122.608 84.5936 107.973 88.2674 94.8708 95.2884C81.7684 102.309 70.6042 112.46 62.3715 124.837C54.1387 137.214 49.0925 151.434 47.6817 166.231C46.2709 181.029 48.5392 195.947 54.285 209.656H45.0865C43.662 209.658 42.2511 209.379 40.9346 208.834C39.6182 208.29 38.4221 207.491 37.4148 206.484C36.4075 205.476 35.6087 204.28 35.0644 202.964C34.52 201.647 34.2406 200.237 34.2423 198.812V25.2153C34.2423 22.3392 35.3848 19.5809 37.4185 17.5472C39.4522 15.5136 42.2105 14.371 45.0865 14.371H226.172L233.049 36.034L234.324 35.6512L227.512 14.371H231.837L238.713 36.034L239.989 35.6512L233.176 14.371H237.501L246.508 42.5277H222.447L218.16 35.4088C217.574 34.4426 216.674 33.7073 215.61 33.3263C214.546 32.9454 213.383 32.9419 212.317 33.3165C212.178 33.3679 212.061 33.466 211.987 33.594C211.912 33.7221 211.885 33.872 211.909 34.0182L214.32 50.6035L211.909 67.1887C211.885 67.3332 211.914 67.4813 211.988 67.6072C212.063 67.7331 212.179 67.8288 212.317 67.8777C213.382 68.251 214.543 68.2483 215.606 67.8699C216.669 67.4915 217.571 66.7603 218.16 65.7981L222.447 58.6665H246.521L233.495 99.3642C233.443 99.5101 233.449 99.6701 233.511 99.8121C233.572 99.9541 233.685 100.068 233.827 100.13C235.468 100.897 237.332 101.039 239.07 100.529C240.809 100.02 242.301 98.8931 243.268 97.3612L267.712 58.6665H287.385C296.328 58.6665 303.345 55.1325 303.345 50.6035C303.345 46.0744 296.315 42.5277 287.385 42.5277H267.712L249.915 14.371ZM201.843 67.3674L204.267 50.6928C204.28 50.6339 204.28 50.573 204.267 50.5142L201.843 33.8268L200.567 34.0182L202.978 50.6035L200.567 67.1887L201.843 67.3674ZM207.507 67.3674L209.931 50.6928C209.944 50.6339 209.944 50.573 209.931 50.5142L207.507 33.8268L206.232 34.0182L208.643 50.6035L206.232 67.1887L207.507 67.3674ZM222.166 99.3642L223.378 99.7469L234.388 65.5557L233.112 65.1602L222.166 99.3642ZM238.764 65.1602L227.831 99.3642L229.094 99.7469L240.04 65.5557L238.764 65.1602Z" fill="#00005B"/>
</g>
</g>
</g>
<path fill-rule="evenodd" clip-rule="evenodd" d="M101.597 119.219H72.6074C70.6502 119.219 69.0601 117.384 69.0601 115.183V91.5747C69.0601 89.3729 70.6502 87.5381 72.6074 87.5381H101.597C103.555 87.5381 105.145 89.3729 105.145 91.5747V115.183C105.145 117.384 103.555 119.219 101.597 119.219Z" fill="url(#paint3_linear)" stroke="#00002F" stroke-width="0.281338" stroke-miterlimit="2.6131"/>
<path d="M81.9038 103.072H69.0601" stroke="#00002F" stroke-width="0.281338" stroke-miterlimit="2.6131" stroke-linejoin="round"/>
<path d="M105.145 103.072H92.301" stroke="#00002F" stroke-width="0.281338" stroke-miterlimit="2.6131" stroke-linejoin="round"/>
<path d="M81.4145 110.166H69.0601" stroke="#00002F" stroke-width="0.281338" stroke-miterlimit="2.6131" stroke-linejoin="round"/>
<path d="M105.146 110.166H92.6688" stroke="#00002F" stroke-width="0.281338" stroke-miterlimit="2.6131" stroke-linejoin="round"/>
<path d="M81.4145 95.9782H69.0601" stroke="#00002F" stroke-width="0.281338" stroke-miterlimit="2.6131" stroke-linejoin="round"/>
<path d="M86.3079 118.85V117.26H73.4642V118.85" stroke="#00002F" stroke-width="0.281338" stroke-miterlimit="2.6131" stroke-linejoin="round"/>
<path d="M104.409 117.26H87.7729V118.85" stroke="#00002F" stroke-width="0.281338" stroke-miterlimit="2.6131" stroke-linejoin="round"/>
<path d="M81.9027 103.072C81.9027 103.928 81.1688 104.784 81.1688 104.784C80.4349 105.273 80.5572 106.13 80.5572 106.13C80.5572 106.13 80.8018 108.209 80.8018 108.576C80.9242 108.943 81.0465 109.677 81.6581 110.533C82.2697 111.389 84.1045 111.267 84.1045 111.267H87.0402" stroke="#00002F" stroke-width="0.281338" stroke-miterlimit="2.6131" stroke-linejoin="round"/>
<path d="M87.0417 111.391H89.9774C89.9774 111.391 91.6899 111.391 92.4239 110.657C93.0355 109.801 93.1578 109.067 93.2801 108.7C93.4024 108.333 93.5248 106.253 93.5248 106.253C93.5248 106.253 93.6471 105.397 92.9132 104.908C92.9132 104.908 92.1792 104.052 92.1792 103.195" stroke="#00002F" stroke-width="0.281338" stroke-miterlimit="2.6131" stroke-linejoin="round"/>
<path d="M87.0402 94.7538H84.1045C84.1045 94.7538 82.392 94.6315 81.6581 95.4877C81.0465 96.344 80.8018 97.0779 80.8018 97.4449C80.6795 97.8119 80.5572 99.8913 80.5572 99.8913C80.5572 99.8913 80.4349 100.748 81.1688 101.237C81.1688 101.237 81.9027 102.093 81.9027 102.949" stroke="#00002F" stroke-width="0.281338" stroke-miterlimit="2.6131" stroke-linejoin="round"/>
<path d="M105.144 95.976H92.7897C93.1567 96.7099 93.279 97.1991 93.4013 97.5661C93.5236 97.9331 93.6459 100.013 93.6459 100.013C93.6459 100.013 93.7683 100.869 93.0343 101.358C93.0343 101.358 92.3004 102.214 92.3004 103.071" stroke="#00002F" stroke-width="0.281338" stroke-miterlimit="2.6131" stroke-linejoin="round"/>
<path d="M83.9814 88.8815V91.9396C83.9814 91.9396 83.9814 92.9181 84.3484 93.652C84.8377 94.386 85.6939 94.753 85.6939 94.753H87.0395" stroke="#00002F" stroke-width="0.281338" stroke-miterlimit="2.6131" stroke-linejoin="round"/>
<path d="M87.0421 94.753H88.3876C88.3876 94.753 89.3662 94.386 89.7332 93.652C90.1001 92.9181 90.1001 91.9396 90.1001 91.9396V88.8815" stroke="#00002F" stroke-width="0.281338" stroke-miterlimit="2.6131" stroke-linejoin="round"/>
<path d="M81.9047 110.779C81.9047 110.779 81.1708 113.103 81.0485 113.714C80.9262 114.326 81.0485 114.693 81.6601 115.182C82.2717 115.794 82.5163 116.528 82.5163 117.262" stroke="#00002F" stroke-width="0.281338" stroke-miterlimit="2.6131" stroke-linejoin="round"/>
<path d="M91.6907 117.262C91.6907 116.65 91.9353 115.794 92.5469 115.182C93.1585 114.571 93.2808 114.326 93.1585 113.714C93.0362 113.103 92.3023 110.779 92.3023 110.779" stroke="#00002F" stroke-width="0.281338" stroke-miterlimit="2.6131" stroke-linejoin="round"/>
<path d="M71.9944 110.166V118.851" stroke="#00002F" stroke-width="0.281338" stroke-miterlimit="2.6131" stroke-linejoin="round"/>
<path d="M87.7745 87.1699V88.8823H104.41M69.7933 88.8823H86.429V87.1699L69.7933 88.8823Z" stroke="#00002F" stroke-width="0.281338" stroke-miterlimit="2.6131" stroke-linejoin="round"/>
<g opacity="0.8">
<path d="M319.94 51.2072C320.551 51.5742 321.408 51.3295 321.775 50.7179C323.732 47.1706 324.833 43.2563 324.833 39.2197C324.833 35.1831 323.854 31.2689 321.775 27.8439C321.408 27.2323 320.551 26.9876 319.94 27.3546C319.328 27.7216 319.084 28.5778 319.45 29.1894C321.163 32.2474 322.142 35.6724 322.142 39.2197C322.142 42.767 321.163 46.3144 319.45 49.3724C319.084 49.984 319.328 50.8402 319.94 51.2072Z" fill="white"/>
<path d="M315.294 48.5149C315.905 48.8819 316.762 48.6372 317.129 48.0256C318.719 45.3346 319.575 42.2765 319.575 39.0962C319.575 36.0382 318.719 32.9801 317.251 30.2891C316.884 29.6775 316.028 29.4328 315.416 29.7998C314.804 30.1668 314.56 31.023 314.927 31.6346C316.272 33.9587 316.884 36.5275 316.884 39.0962C316.884 41.7873 316.15 44.356 314.804 46.6801C314.438 47.414 314.682 48.1479 315.294 48.5149Z" fill="white"/>
<path d="M310.643 46.1924C311.255 46.5593 312.111 46.437 312.478 45.8254C313.702 43.8683 314.435 41.5442 314.435 39.2201C314.435 36.896 313.824 34.6942 312.601 32.7371C312.234 32.1255 311.377 31.8808 310.766 32.2478C310.154 32.6148 309.91 33.471 310.277 34.0826C311.255 35.5505 311.744 37.3853 311.744 39.0978C311.744 40.9326 311.255 42.7674 310.277 44.2352C309.787 44.9692 310.032 45.8254 310.643 46.1924Z" fill="white"/>
<path d="M306.241 43.8679C306.853 44.3572 307.709 44.1126 308.076 43.501C309.054 42.1554 309.544 40.6876 309.544 39.0974C309.544 37.6296 309.054 36.1617 308.198 34.8162C307.831 34.2046 306.975 34.0822 306.363 34.4492C305.752 34.8162 305.629 35.6724 305.996 36.284C306.486 37.1403 306.853 37.9965 306.853 38.9751C306.853 39.9537 306.486 40.9322 305.996 41.7885C305.507 42.5224 305.629 43.3787 306.241 43.8679Z" fill="white"/>
</g>
<g filter="url(#filter1_d)">
<path fill-rule="evenodd" clip-rule="evenodd" d="M88.7555 123.988C88.7555 123.009 87.8992 122.153 86.9206 122.153H81.5385C80.56 122.153 79.7037 123.009 79.7037 123.988V134.63C79.7037 135.608 80.4376 136.465 81.5385 136.465H86.9206C88.0215 136.465 88.7555 135.608 88.7555 134.63V123.988ZM86.9206 123.988V134.63H81.5385V123.988H86.9206ZM75.5428 123.988C75.5428 123.009 74.6866 122.153 73.708 122.153H68.3259C67.3473 122.153 66.4911 123.009 66.4911 123.988V134.63C66.4911 135.608 67.225 136.465 68.3259 136.465H73.708C74.8089 136.465 75.5428 135.608 75.5428 134.63V123.988ZM73.708 123.988V134.63H68.3259V123.988H73.708ZM100.13 122.153C101.109 122.153 101.965 123.009 101.965 123.988V134.63C101.965 135.608 101.231 136.465 100.13 136.465H94.7481C93.6472 136.465 92.9133 135.608 92.9133 134.63V123.988C92.9133 123.009 93.7695 122.153 94.7481 122.153H100.13ZM100.13 134.63V123.988H94.7481V134.63H100.13ZM115.178 123.988C115.178 123.009 114.321 122.153 113.343 122.153H107.961C106.982 122.153 106.126 123.009 106.126 123.988V134.63C106.126 135.608 106.86 136.465 107.961 136.465H113.343C114.444 136.465 115.178 135.608 115.178 134.63V123.988ZM113.343 123.988V134.63H107.961V123.988H113.343ZM139.638 122.153C140.617 122.153 141.473 123.009 141.473 123.988V134.63C141.473 135.608 140.739 136.465 139.638 136.465H134.256C133.155 136.465 132.422 135.608 132.422 134.63V123.988C132.422 123.009 133.278 122.153 134.256 122.153H139.638ZM139.638 134.63V123.988H134.256V134.63H139.638ZM154.686 123.988C154.686 123.009 153.83 122.153 152.851 122.153H147.469C146.49 122.153 145.634 123.009 145.634 123.988V134.63C145.634 135.608 146.368 136.465 147.469 136.465H152.851C153.952 136.465 154.686 135.608 154.686 134.63V123.988ZM152.851 123.988V134.63H147.469V123.988H152.851ZM166.061 122.153C167.039 122.153 167.896 123.009 167.896 123.988V134.63C167.896 135.608 167.162 136.465 166.061 136.465H160.679C159.578 136.465 158.844 135.608 158.844 134.63V123.988C158.844 123.009 159.7 122.153 160.679 122.153H166.061ZM166.061 134.63V123.988H160.679V134.63H166.061ZM181.108 123.988C181.108 123.009 180.251 122.153 179.273 122.153H173.891C172.912 122.153 172.056 123.009 172.056 123.988V134.63C172.056 135.608 172.79 136.465 173.891 136.465H179.273C180.374 136.465 181.108 135.608 181.108 134.63V123.988ZM179.273 123.988V134.63H173.891V123.988H179.273ZM205.693 122.153C206.671 122.153 207.528 123.009 207.528 123.988V134.63C207.528 135.608 206.794 136.465 205.693 136.465H200.311C199.21 136.465 198.476 135.608 198.476 134.63V123.988C198.476 123.009 199.332 122.153 200.311 122.153H205.693ZM205.693 134.63V123.988H200.311V134.63H205.693ZM220.737 123.988C220.737 123.009 219.881 122.153 218.902 122.153H213.52C212.542 122.153 211.685 123.009 211.685 123.988V134.63C211.685 135.608 212.419 136.465 213.52 136.465H218.902C220.003 136.465 220.737 135.608 220.737 134.63V123.988ZM218.902 123.988V134.63H213.52V123.988H218.902ZM232.115 122.153C233.093 122.153 233.949 123.009 233.949 123.988V134.63C233.949 135.608 233.215 136.465 232.115 136.465H226.732C225.632 136.465 224.898 135.608 224.898 134.63V123.988C224.898 123.009 225.754 122.153 226.732 122.153H232.115ZM232.115 134.63V123.988H226.732V134.63H232.115ZM247.159 123.988C247.159 123.009 246.303 122.153 245.324 122.153H239.942C238.964 122.153 238.107 123.009 238.107 123.988V134.63C238.107 135.608 238.841 136.465 239.942 136.465H245.324C246.425 136.465 247.159 135.608 247.159 134.63V123.988ZM245.324 123.988V134.63H239.942V123.988H245.324ZM271.746 122.153C272.725 122.153 273.581 123.009 273.581 123.988V134.63C273.581 135.608 272.847 136.465 271.746 136.465H266.364C265.263 136.465 264.529 135.608 264.529 134.63V123.988C264.529 123.009 265.386 122.153 266.364 122.153H271.746ZM271.746 134.63V123.988H266.364V134.63H271.746ZM286.791 123.988C286.791 123.009 285.935 122.153 284.956 122.153H279.574C278.596 122.153 277.739 123.009 277.739 123.988V134.63C277.739 135.608 278.473 136.465 279.574 136.465H284.956C286.057 136.465 286.791 135.608 286.791 134.63V123.988ZM284.956 123.988V134.63H279.574V123.988H284.956ZM298.166 122.153C299.145 122.153 300.001 123.009 300.001 123.988V134.63C300.001 135.608 299.267 136.465 298.166 136.465H292.784C291.683 136.465 290.949 135.608 290.949 134.63V123.988C290.949 123.009 291.805 122.153 292.784 122.153H298.166ZM298.166 134.63V123.988H292.784V134.63H298.166ZM313.213 123.988C313.213 123.009 312.357 122.153 311.379 122.153H305.996C305.018 122.153 304.162 123.009 304.162 123.988V134.63C304.162 135.608 304.896 136.465 305.996 136.465H311.379C312.479 136.465 313.213 135.608 313.213 134.63V123.988ZM311.379 123.988V134.63H305.996V123.988H311.379ZM68.0813 175.242H67.3474V179.034H66.4911V170.839H67.3474V174.508H68.0813L70.4054 170.839H71.384L68.8152 174.753L71.6286 179.034H70.5277L68.0813 175.242ZM74.6847 176.708H77.3758L78.1097 178.91H78.9659L76.5195 170.714H75.5409L73.2168 178.91H74.0731L74.6847 176.708ZM77.1311 175.852H74.9293L75.9079 172.06H76.0302L77.1311 175.852ZM80.8025 170.838H86.1847V172.917H85.4507V171.694H83.9829V178.177H84.9615V179.033H81.9034V178.177H83.0043V171.694H81.5365V172.917H80.8025V170.838ZM93.1571 170.838H88.9981V179.033H93.2794V178.177H89.8544V175.241H92.9124V174.385H89.8544V171.694H93.1571V170.838ZM96.3366 170.96C96.4589 170.96 96.6118 170.93 96.7647 170.899L96.7648 170.899C96.9177 170.868 97.0705 170.838 97.1928 170.838H98.1714C98.5384 170.838 98.783 170.838 99.0277 170.96L99.7616 171.327C100.006 171.449 100.129 171.694 100.251 172.061C100.373 172.306 100.496 172.673 100.496 173.162C100.496 173.529 100.496 173.774 100.373 174.018L100.373 174.018C100.251 174.263 100.129 174.507 100.006 174.63C99.9655 174.671 99.9247 174.725 99.8839 174.779C99.8024 174.888 99.7208 174.997 99.6393 174.997L99.6392 174.997C99.5169 175.119 99.3946 175.241 99.2723 175.241L101.107 179.156H100.129L98.416 175.608H97.1928V179.156H96.3366V170.96ZM98.1714 171.572H97.9268H97.6821H97.4375H97.1928V174.63H97.9268C98.416 174.63 98.783 174.508 99.0277 174.263C99.2723 174.018 99.5169 173.529 99.5169 173.04C99.5169 172.673 99.3946 172.306 99.15 172.061C98.9053 171.694 98.5384 171.572 98.1714 171.572ZM108.202 170.838H103.31V171.694H105.267V178.177H103.31V179.033H108.202V178.177H106.123V171.694H108.202V170.838ZM112.116 173.896L111.627 172.673L111.749 173.896V179.033H110.893V170.838H111.504L114.318 175.975L114.807 177.076L114.685 175.975V170.838H115.541V179.033H114.929L112.116 173.896ZM119.212 176.708H122.026L122.637 178.91H123.494L121.047 170.714H120.069L117.744 178.91H118.601L119.212 176.708ZM121.659 175.852H119.457L120.436 172.06H120.558L121.659 175.852ZM137.069 171.693C137.008 171.693 136.947 171.662 136.886 171.632C136.825 171.601 136.763 171.57 136.702 171.57H136.213C135.968 171.57 135.601 171.57 135.357 171.693C135.112 171.815 134.867 172.06 134.623 172.304C134.378 172.549 134.256 172.916 134.133 173.283C134.011 173.65 133.889 174.262 133.889 174.873C133.889 175.485 133.889 175.974 134.011 176.341C134.133 176.708 134.256 177.075 134.5 177.442C134.745 177.687 134.99 177.931 135.234 178.053C135.479 178.176 135.846 178.298 136.213 178.298H136.702C136.763 178.298 136.825 178.268 136.886 178.237C136.947 178.206 137.008 178.176 137.069 178.176V176.953H137.803V178.543C137.681 178.604 137.558 178.696 137.436 178.787L137.436 178.787C137.314 178.879 137.191 178.971 137.069 179.032C136.702 179.154 136.335 179.154 135.968 179.154C135.601 179.154 135.112 179.032 134.745 178.91C134.378 178.787 134.011 178.543 133.766 178.176C133.522 177.809 133.277 177.442 133.155 176.83C133.033 176.341 132.91 175.607 132.91 174.995C132.91 174.262 133.033 173.528 133.155 173.038C133.277 172.549 133.522 172.06 133.766 171.693C134.011 171.326 134.378 171.081 134.745 170.959L134.745 170.959C135.112 170.837 135.479 170.714 135.968 170.714H136.58C136.702 170.714 136.947 170.714 137.069 170.837C137.13 170.837 137.191 170.867 137.253 170.898C137.314 170.928 137.375 170.959 137.436 170.959C137.558 170.959 137.681 171.081 137.681 171.204V173.038H136.947V171.693H137.069ZM141.35 175.241H144.53V179.033H145.387V170.838H144.53V174.385H141.35V170.838H140.494V179.033H141.35V175.241ZM148.447 170.838H152.606V171.694H149.304V174.385H152.362V175.241H149.304V178.177H152.729V179.033H148.447V170.838ZM156.214 170.899C156.061 170.93 155.908 170.96 155.786 170.96V179.156H156.642V175.608H157.865L159.578 179.156H160.556L158.722 175.241C158.844 175.241 158.966 175.119 159.088 174.997C159.17 174.997 159.252 174.888 159.333 174.779C159.374 174.725 159.415 174.671 159.455 174.63C159.578 174.507 159.7 174.263 159.822 174.018L159.822 174.018C159.945 173.774 159.945 173.529 159.945 173.162C159.945 172.673 159.822 172.306 159.7 172.061C159.578 171.694 159.455 171.449 159.211 171.327L158.477 170.96C158.232 170.838 157.988 170.838 157.621 170.838H156.642C156.52 170.838 156.367 170.868 156.214 170.899L156.214 170.899ZM157.376 171.572H157.621C157.988 171.572 158.355 171.694 158.599 172.061C158.844 172.306 158.966 172.673 158.966 173.04C158.966 173.529 158.722 174.018 158.477 174.263C158.232 174.508 157.865 174.63 157.376 174.63H156.642V171.572H156.887H157.131H157.376ZM164.714 175.241H163.98V179.033H163.124V170.838H163.98V174.507H164.714L167.039 170.838H168.017L165.448 174.752L168.262 179.033H167.161L164.714 175.241ZM171.32 176.708H174.011L174.745 178.91H175.602L173.155 170.714H172.177L169.853 178.91H170.709L171.32 176.708ZM173.767 175.852H171.565L172.544 172.06H172.666L173.767 175.852ZM179.271 178.176C179.516 178.298 179.761 178.298 180.005 178.298C180.25 178.298 180.495 178.298 180.617 178.176C180.862 178.176 180.984 178.054 181.106 177.931L181.473 177.564C181.595 177.442 181.595 177.197 181.595 176.953C181.595 176.586 181.473 176.341 181.351 176.219C181.106 175.974 180.984 175.852 180.617 175.729C180.495 175.668 180.342 175.577 180.189 175.485C180.036 175.393 179.883 175.301 179.761 175.24C179.53 175.163 179.348 175.038 179.184 174.926L179.184 174.926L179.184 174.926C179.086 174.859 178.995 174.796 178.904 174.751L178.17 174.017C177.926 173.772 177.926 173.405 177.926 172.916C177.926 172.549 177.926 172.304 178.048 172.06C178.171 171.815 178.293 171.57 178.537 171.448C178.619 171.407 178.701 171.353 178.782 171.299C178.945 171.19 179.108 171.081 179.271 171.081C179.516 170.959 179.883 170.959 180.25 170.959C180.617 170.959 180.984 170.959 181.351 171.081C181.491 171.128 181.613 171.157 181.718 171.181C181.887 171.221 182.009 171.25 182.085 171.326V173.161H181.351V171.937C181.3 171.937 181.229 171.916 181.145 171.892C181.026 171.857 180.883 171.815 180.739 171.815H180.128H180.127C179.883 171.815 179.761 171.815 179.516 171.937C179.455 171.999 179.363 172.029 179.271 172.06C179.18 172.09 179.088 172.121 179.027 172.182L179.027 172.182C178.904 172.304 178.782 172.427 178.782 172.549C178.66 172.671 178.66 172.794 178.66 173.038V173.038C178.66 173.283 178.782 173.65 178.904 173.772L178.905 173.772L178.905 173.772C179.149 174.017 179.271 174.139 179.638 174.262C179.761 174.323 179.914 174.414 180.066 174.506C180.219 174.598 180.372 174.69 180.495 174.751C180.725 174.828 180.907 174.953 181.071 175.065C181.169 175.132 181.26 175.195 181.351 175.24L182.085 175.974C182.329 176.219 182.329 176.586 182.329 177.075C182.329 177.442 182.329 177.687 182.207 178.054L182.207 178.054C182.085 178.298 181.962 178.543 181.718 178.787C181.473 179.032 181.229 179.154 180.984 179.277L180.984 179.277C180.739 179.399 180.372 179.399 180.005 179.399C179.761 179.399 179.516 179.399 179.271 179.277C179.128 179.277 178.985 179.235 178.866 179.2C178.782 179.175 178.71 179.154 178.66 179.154C178.566 179.108 178.491 179.079 178.426 179.054C178.322 179.014 178.246 178.985 178.17 178.91C178.109 178.849 178.048 178.818 177.987 178.787C177.926 178.757 177.865 178.726 177.804 178.665V176.83H178.537V177.809L179.271 178.176ZM186.731 178.176L185.997 177.809V176.83H185.263V178.665C185.324 178.726 185.385 178.757 185.447 178.787C185.508 178.818 185.569 178.848 185.63 178.91C185.706 178.985 185.781 179.014 185.886 179.054C185.95 179.079 186.026 179.107 186.119 179.154C186.17 179.154 186.242 179.175 186.326 179.2C186.444 179.235 186.588 179.277 186.731 179.277C186.976 179.399 187.22 179.399 187.465 179.399C187.832 179.399 188.199 179.399 188.443 179.277C188.688 179.154 188.933 179.032 189.177 178.787C189.422 178.543 189.544 178.298 189.667 178.053C189.789 177.686 189.789 177.442 189.789 177.075V177.075C189.789 176.585 189.789 176.218 189.544 175.974L188.81 175.24C188.719 175.194 188.628 175.132 188.531 175.065L188.531 175.065L188.531 175.065C188.367 174.952 188.185 174.827 187.954 174.751C187.832 174.689 187.679 174.598 187.526 174.506C187.373 174.414 187.22 174.323 187.098 174.261C186.731 174.139 186.609 174.017 186.364 173.772L186.364 173.772C186.242 173.65 186.119 173.283 186.119 173.038C186.119 172.794 186.119 172.671 186.242 172.549C186.242 172.427 186.364 172.304 186.486 172.182C186.548 172.121 186.639 172.09 186.731 172.06C186.823 172.029 186.914 171.998 186.976 171.937C187.22 171.815 187.343 171.815 187.587 171.815H187.587H188.199C188.342 171.815 188.485 171.857 188.604 171.892C188.688 171.916 188.76 171.937 188.81 171.937V173.16H189.544V171.326C189.469 171.25 189.346 171.221 189.177 171.181C189.073 171.157 188.951 171.128 188.81 171.081C188.443 170.959 188.077 170.959 187.71 170.959C187.343 170.959 186.976 170.959 186.731 171.081C186.568 171.081 186.405 171.19 186.242 171.298L186.242 171.299C186.16 171.353 186.079 171.407 185.997 171.448C185.752 171.57 185.63 171.815 185.508 172.06C185.385 172.304 185.385 172.549 185.385 172.916V172.916C185.385 173.405 185.385 173.772 185.63 174.017L186.364 174.751C186.455 174.796 186.546 174.859 186.644 174.925C186.808 175.038 186.99 175.163 187.22 175.24C187.343 175.301 187.496 175.393 187.648 175.485L187.649 175.485C187.801 175.576 187.954 175.668 188.077 175.729C188.443 175.852 188.566 175.974 188.81 176.218C188.933 176.341 189.055 176.585 189.055 176.952C189.055 177.197 189.055 177.442 188.933 177.564L188.566 177.931C188.443 178.053 188.321 178.176 188.077 178.176C187.954 178.298 187.71 178.298 187.465 178.298C187.22 178.298 186.976 178.298 186.731 178.176ZM194.439 175.241H193.705V179.033H192.849V170.838H193.705V174.507H194.439L196.763 170.838H197.742L195.173 174.752L197.986 179.033H196.885L194.439 175.241ZM200.434 178.91L201.045 176.708H203.736L204.47 178.91H205.327L202.88 170.714H201.902L199.577 178.91H200.434ZM202.391 172.06L203.492 175.852H201.29L202.269 172.06H202.391ZM209.364 175.853L206.795 170.838H207.774L209.853 174.874L211.81 170.838H212.666L210.098 175.853V179.033H209.241V175.853H209.364ZM215.845 176.708H218.536L219.27 178.91H220.126L217.68 170.714H216.701L214.377 178.91H215.234L215.845 176.708ZM218.292 175.852H216.09L217.068 172.06H217.191L218.292 175.852Z" fill="#42358F" fill-opacity="0.68"/>
<path fill-rule="evenodd" clip-rule="evenodd" d="M88.7555 123.988C88.7555 123.009 87.8992 122.153 86.9206 122.153H81.5385C80.56 122.153 79.7037 123.009 79.7037 123.988V134.63C79.7037 135.608 80.4376 136.465 81.5385 136.465H86.9206C88.0215 136.465 88.7555 135.608 88.7555 134.63V123.988ZM86.9206 123.988V134.63H81.5385V123.988H86.9206ZM75.5428 123.988C75.5428 123.009 74.6866 122.153 73.708 122.153H68.3259C67.3473 122.153 66.4911 123.009 66.4911 123.988V134.63C66.4911 135.608 67.225 136.465 68.3259 136.465H73.708C74.8089 136.465 75.5428 135.608 75.5428 134.63V123.988ZM73.708 123.988V134.63H68.3259V123.988H73.708ZM100.13 122.153C101.109 122.153 101.965 123.009 101.965 123.988V134.63C101.965 135.608 101.231 136.465 100.13 136.465H94.7481C93.6472 136.465 92.9133 135.608 92.9133 134.63V123.988C92.9133 123.009 93.7695 122.153 94.7481 122.153H100.13ZM100.13 134.63V123.988H94.7481V134.63H100.13ZM115.178 123.988C115.178 123.009 114.321 122.153 113.343 122.153H107.961C106.982 122.153 106.126 123.009 106.126 123.988V134.63C106.126 135.608 106.86 136.465 107.961 136.465H113.343C114.444 136.465 115.178 135.608 115.178 134.63V123.988ZM113.343 123.988V134.63H107.961V123.988H113.343ZM139.638 122.153C140.617 122.153 141.473 123.009 141.473 123.988V134.63C141.473 135.608 140.739 136.465 139.638 136.465H134.256C133.155 136.465 132.422 135.608 132.422 134.63V123.988C132.422 123.009 133.278 122.153 134.256 122.153H139.638ZM139.638 134.63V123.988H134.256V134.63H139.638ZM154.686 123.988C154.686 123.009 153.83 122.153 152.851 122.153H147.469C146.49 122.153 145.634 123.009 145.634 123.988V134.63C145.634 135.608 146.368 136.465 147.469 136.465H152.851C153.952 136.465 154.686 135.608 154.686 134.63V123.988ZM152.851 123.988V134.63H147.469V123.988H152.851ZM166.061 122.153C167.039 122.153 167.896 123.009 167.896 123.988V134.63C167.896 135.608 167.162 136.465 166.061 136.465H160.679C159.578 136.465 158.844 135.608 158.844 134.63V123.988C158.844 123.009 159.7 122.153 160.679 122.153H166.061ZM166.061 134.63V123.988H160.679V134.63H166.061ZM181.108 123.988C181.108 123.009 180.251 122.153 179.273 122.153H173.891C172.912 122.153 172.056 123.009 172.056 123.988V134.63C172.056 135.608 172.79 136.465 173.891 136.465H179.273C180.374 136.465 181.108 135.608 181.108 134.63V123.988ZM179.273 123.988V134.63H173.891V123.988H179.273ZM205.693 122.153C206.671 122.153 207.528 123.009 207.528 123.988V134.63C207.528 135.608 206.794 136.465 205.693 136.465H200.311C199.21 136.465 198.476 135.608 198.476 134.63V123.988C198.476 123.009 199.332 122.153 200.311 122.153H205.693ZM205.693 134.63V123.988H200.311V134.63H205.693ZM220.737 123.988C220.737 123.009 219.881 122.153 218.902 122.153H213.52C212.542 122.153 211.685 123.009 211.685 123.988V134.63C211.685 135.608 212.419 136.465 213.52 136.465H218.902C220.003 136.465 220.737 135.608 220.737 134.63V123.988ZM218.902 123.988V134.63H213.52V123.988H218.902ZM232.115 122.153C233.093 122.153 233.949 123.009 233.949 123.988V134.63C233.949 135.608 233.215 136.465 232.115 136.465H226.732C225.632 136.465 224.898 135.608 224.898 134.63V123.988C224.898 123.009 225.754 122.153 226.732 122.153H232.115ZM232.115 134.63V123.988H226.732V134.63H232.115ZM247.159 123.988C247.159 123.009 246.303 122.153 245.324 122.153H239.942C238.964 122.153 238.107 123.009 238.107 123.988V134.63C238.107 135.608 238.841 136.465 239.942 136.465H245.324C246.425 136.465 247.159 135.608 247.159 134.63V123.988ZM245.324 123.988V134.63H239.942V123.988H245.324ZM271.746 122.153C272.725 122.153 273.581 123.009 273.581 123.988V134.63C273.581 135.608 272.847 136.465 271.746 136.465H266.364C265.263 136.465 264.529 135.608 264.529 134.63V123.988C264.529 123.009 265.386 122.153 266.364 122.153H271.746ZM271.746 134.63V123.988H266.364V134.63H271.746ZM286.791 123.988C286.791 123.009 285.935 122.153 284.956 122.153H279.574C278.596 122.153 277.739 123.009 277.739 123.988V134.63C277.739 135.608 278.473 136.465 279.574 136.465H284.956C286.057 136.465 286.791 135.608 286.791 134.63V123.988ZM284.956 123.988V134.63H279.574V123.988H284.956ZM298.166 122.153C299.145 122.153 300.001 123.009 300.001 123.988V134.63C300.001 135.608 299.267 136.465 298.166 136.465H292.784C291.683 136.465 290.949 135.608 290.949 134.63V123.988C290.949 123.009 291.805 122.153 292.784 122.153H298.166ZM298.166 134.63V123.988H292.784V134.63H298.166ZM313.213 123.988C313.213 123.009 312.357 122.153 311.379 122.153H305.996C305.018 122.153 304.162 123.009 304.162 123.988V134.63C304.162 135.608 304.896 136.465 305.996 136.465H311.379C312.479 136.465 313.213 135.608 313.213 134.63V123.988ZM311.379 123.988V134.63H305.996V123.988H311.379ZM68.0813 175.242H67.3474V179.034H66.4911V170.839H67.3474V174.508H68.0813L70.4054 170.839H71.384L68.8152 174.753L71.6286 179.034H70.5277L68.0813 175.242ZM74.6847 176.708H77.3758L78.1097 178.91H78.9659L76.5195 170.714H75.5409L73.2168 178.91H74.0731L74.6847 176.708ZM77.1311 175.852H74.9293L75.9079 172.06H76.0302L77.1311 175.852ZM80.8025 170.838H86.1847V172.917H85.4507V171.694H83.9829V178.177H84.9615V179.033H81.9034V178.177H83.0043V171.694H81.5365V172.917H80.8025V170.838ZM93.1571 170.838H88.9981V179.033H93.2794V178.177H89.8544V175.241H92.9124V174.385H89.8544V171.694H93.1571V170.838ZM96.3366 170.96C96.4589 170.96 96.6118 170.93 96.7647 170.899L96.7648 170.899C96.9177 170.868 97.0705 170.838 97.1928 170.838H98.1714C98.5384 170.838 98.783 170.838 99.0277 170.96L99.7616 171.327C100.006 171.449 100.129 171.694 100.251 172.061C100.373 172.306 100.496 172.673 100.496 173.162C100.496 173.529 100.496 173.774 100.373 174.018L100.373 174.018C100.251 174.263 100.129 174.507 100.006 174.63C99.9655 174.671 99.9247 174.725 99.8839 174.779C99.8024 174.888 99.7208 174.997 99.6393 174.997L99.6392 174.997C99.5169 175.119 99.3946 175.241 99.2723 175.241L101.107 179.156H100.129L98.416 175.608H97.1928V179.156H96.3366V170.96ZM98.1714 171.572H97.9268H97.6821H97.4375H97.1928V174.63H97.9268C98.416 174.63 98.783 174.508 99.0277 174.263C99.2723 174.018 99.5169 173.529 99.5169 173.04C99.5169 172.673 99.3946 172.306 99.15 172.061C98.9053 171.694 98.5384 171.572 98.1714 171.572ZM108.202 170.838H103.31V171.694H105.267V178.177H103.31V179.033H108.202V178.177H106.123V171.694H108.202V170.838ZM112.116 173.896L111.627 172.673L111.749 173.896V179.033H110.893V170.838H111.504L114.318 175.975L114.807 177.076L114.685 175.975V170.838H115.541V179.033H114.929L112.116 173.896ZM119.212 176.708H122.026L122.637 178.91H123.494L121.047 170.714H120.069L117.744 178.91H118.601L119.212 176.708ZM121.659 175.852H119.457L120.436 172.06H120.558L121.659 175.852ZM137.069 171.693C137.008 171.693 136.947 171.662 136.886 171.632C136.825 171.601 136.763 171.57 136.702 171.57H136.213C135.968 171.57 135.601 171.57 135.357 171.693C135.112 171.815 134.867 172.06 134.623 172.304C134.378 172.549 134.256 172.916 134.133 173.283C134.011 173.65 133.889 174.262 133.889 174.873C133.889 175.485 133.889 175.974 134.011 176.341C134.133 176.708 134.256 177.075 134.5 177.442C134.745 177.687 134.99 177.931 135.234 178.053C135.479 178.176 135.846 178.298 136.213 178.298H136.702C136.763 178.298 136.825 178.268 136.886 178.237C136.947 178.206 137.008 178.176 137.069 178.176V176.953H137.803V178.543C137.681 178.604 137.558 178.696 137.436 178.787L137.436 178.787C137.314 178.879 137.191 178.971 137.069 179.032C136.702 179.154 136.335 179.154 135.968 179.154C135.601 179.154 135.112 179.032 134.745 178.91C134.378 178.787 134.011 178.543 133.766 178.176C133.522 177.809 133.277 177.442 133.155 176.83C133.033 176.341 132.91 175.607 132.91 174.995C132.91 174.262 133.033 173.528 133.155 173.038C133.277 172.549 133.522 172.06 133.766 171.693C134.011 171.326 134.378 171.081 134.745 170.959L134.745 170.959C135.112 170.837 135.479 170.714 135.968 170.714H136.58C136.702 170.714 136.947 170.714 137.069 170.837C137.13 170.837 137.191 170.867 137.253 170.898C137.314 170.928 137.375 170.959 137.436 170.959C137.558 170.959 137.681 171.081 137.681 171.204V173.038H136.947V171.693H137.069ZM141.35 175.241H144.53V179.033H145.387V170.838H144.53V174.385H141.35V170.838H140.494V179.033H141.35V175.241ZM148.447 170.838H152.606V171.694H149.304V174.385H152.362V175.241H149.304V178.177H152.729V179.033H148.447V170.838ZM156.214 170.899C156.061 170.93 155.908 170.96 155.786 170.96V179.156H156.642V175.608H157.865L159.578 179.156H160.556L158.722 175.241C158.844 175.241 158.966 175.119 159.088 174.997C159.17 174.997 159.252 174.888 159.333 174.779C159.374 174.725 159.415 174.671 159.455 174.63C159.578 174.507 159.7 174.263 159.822 174.018L159.822 174.018C159.945 173.774 159.945 173.529 159.945 173.162C159.945 172.673 159.822 172.306 159.7 172.061C159.578 171.694 159.455 171.449 159.211 171.327L158.477 170.96C158.232 170.838 157.988 170.838 157.621 170.838H156.642C156.52 170.838 156.367 170.868 156.214 170.899L156.214 170.899ZM157.376 171.572H157.621C157.988 171.572 158.355 171.694 158.599 172.061C158.844 172.306 158.966 172.673 158.966 173.04C158.966 173.529 158.722 174.018 158.477 174.263C158.232 174.508 157.865 174.63 157.376 174.63H156.642V171.572H156.887H157.131H157.376ZM164.714 175.241H163.98V179.033H163.124V170.838H163.98V174.507H164.714L167.039 170.838H168.017L165.448 174.752L168.262 179.033H167.161L164.714 175.241ZM171.32 176.708H174.011L174.745 178.91H175.602L173.155 170.714H172.177L169.853 178.91H170.709L171.32 176.708ZM173.767 175.852H171.565L172.544 172.06H172.666L173.767 175.852ZM179.271 178.176C179.516 178.298 179.761 178.298 180.005 178.298C180.25 178.298 180.495 178.298 180.617 178.176C180.862 178.176 180.984 178.054 181.106 177.931L181.473 177.564C181.595 177.442 181.595 177.197 181.595 176.953C181.595 176.586 181.473 176.341 181.351 176.219C181.106 175.974 180.984 175.852 180.617 175.729C180.495 175.668 180.342 175.577 180.189 175.485C180.036 175.393 179.883 175.301 179.761 175.24C179.53 175.163 179.348 175.038 179.184 174.926L179.184 174.926L179.184 174.926C179.086 174.859 178.995 174.796 178.904 174.751L178.17 174.017C177.926 173.772 177.926 173.405 177.926 172.916C177.926 172.549 177.926 172.304 178.048 172.06C178.171 171.815 178.293 171.57 178.537 171.448C178.619 171.407 178.701 171.353 178.782 171.299C178.945 171.19 179.108 171.081 179.271 171.081C179.516 170.959 179.883 170.959 180.25 170.959C180.617 170.959 180.984 170.959 181.351 171.081C181.491 171.128 181.613 171.157 181.718 171.181C181.887 171.221 182.009 171.25 182.085 171.326V173.161H181.351V171.937C181.3 171.937 181.229 171.916 181.145 171.892C181.026 171.857 180.883 171.815 180.739 171.815H180.128H180.127C179.883 171.815 179.761 171.815 179.516 171.937C179.455 171.999 179.363 172.029 179.271 172.06C179.18 172.09 179.088 172.121 179.027 172.182L179.027 172.182C178.904 172.304 178.782 172.427 178.782 172.549C178.66 172.671 178.66 172.794 178.66 173.038V173.038C178.66 173.283 178.782 173.65 178.904 173.772L178.905 173.772L178.905 173.772C179.149 174.017 179.271 174.139 179.638 174.262C179.761 174.323 179.914 174.414 180.066 174.506C180.219 174.598 180.372 174.69 180.495 174.751C180.725 174.828 180.907 174.953 181.071 175.065C181.169 175.132 181.26 175.195 181.351 175.24L182.085 175.974C182.329 176.219 182.329 176.586 182.329 177.075C182.329 177.442 182.329 177.687 182.207 178.054L182.207 178.054C182.085 178.298 181.962 178.543 181.718 178.787C181.473 179.032 181.229 179.154 180.984 179.277L180.984 179.277C180.739 179.399 180.372 179.399 180.005 179.399C179.761 179.399 179.516 179.399 179.271 179.277C179.128 179.277 178.985 179.235 178.866 179.2C178.782 179.175 178.71 179.154 178.66 179.154C178.566 179.108 178.491 179.079 178.426 179.054C178.322 179.014 178.246 178.985 178.17 178.91C178.109 178.849 178.048 178.818 177.987 178.787C177.926 178.757 177.865 178.726 177.804 178.665V176.83H178.537V177.809L179.271 178.176ZM186.731 178.176L185.997 177.809V176.83H185.263V178.665C185.324 178.726 185.385 178.757 185.447 178.787C185.508 178.818 185.569 178.848 185.63 178.91C185.706 178.985 185.781 179.014 185.886 179.054C185.95 179.079 186.026 179.107 186.119 179.154C186.17 179.154 186.242 179.175 186.326 179.2C186.444 179.235 186.588 179.277 186.731 179.277C186.976 179.399 187.22 179.399 187.465 179.399C187.832 179.399 188.199 179.399 188.443 179.277C188.688 179.154 188.933 179.032 189.177 178.787C189.422 178.543 189.544 178.298 189.667 178.053C189.789 177.686 189.789 177.442 189.789 177.075V177.075C189.789 176.585 189.789 176.218 189.544 175.974L188.81 175.24C188.719 175.194 188.628 175.132 188.531 175.065L188.531 175.065L188.531 175.065C188.367 174.952 188.185 174.827 187.954 174.751C187.832 174.689 187.679 174.598 187.526 174.506C187.373 174.414 187.22 174.323 187.098 174.261C186.731 174.139 186.609 174.017 186.364 173.772L186.364 173.772C186.242 173.65 186.119 173.283 186.119 173.038C186.119 172.794 186.119 172.671 186.242 172.549C186.242 172.427 186.364 172.304 186.486 172.182C186.548 172.121 186.639 172.09 186.731 172.06C186.823 172.029 186.914 171.998 186.976 171.937C187.22 171.815 187.343 171.815 187.587 171.815H187.587H188.199C188.342 171.815 188.485 171.857 188.604 171.892C188.688 171.916 188.76 171.937 188.81 171.937V173.16H189.544V171.326C189.469 171.25 189.346 171.221 189.177 171.181C189.073 171.157 188.951 171.128 188.81 171.081C188.443 170.959 188.077 170.959 187.71 170.959C187.343 170.959 186.976 170.959 186.731 171.081C186.568 171.081 186.405 171.19 186.242 171.298L186.242 171.299C186.16 171.353 186.079 171.407 185.997 171.448C185.752 171.57 185.63 171.815 185.508 172.06C185.385 172.304 185.385 172.549 185.385 172.916V172.916C185.385 173.405 185.385 173.772 185.63 174.017L186.364 174.751C186.455 174.796 186.546 174.859 186.644 174.925C186.808 175.038 186.99 175.163 187.22 175.24C187.343 175.301 187.496 175.393 187.648 175.485L187.649 175.485C187.801 175.576 187.954 175.668 188.077 175.729C188.443 175.852 188.566 175.974 188.81 176.218C188.933 176.341 189.055 176.585 189.055 176.952C189.055 177.197 189.055 177.442 188.933 177.564L188.566 177.931C188.443 178.053 188.321 178.176 188.077 178.176C187.954 178.298 187.71 178.298 187.465 178.298C187.22 178.298 186.976 178.298 186.731 178.176ZM194.439 175.241H193.705V179.033H192.849V170.838H193.705V174.507H194.439L196.763 170.838H197.742L195.173 174.752L197.986 179.033H196.885L194.439 175.241ZM200.434 178.91L201.045 176.708H203.736L204.47 178.91H205.327L202.88 170.714H201.902L199.577 178.91H200.434ZM202.391 172.06L203.492 175.852H201.29L202.269 172.06H202.391ZM209.364 175.853L206.795 170.838H207.774L209.853 174.874L211.81 170.838H212.666L210.098 175.853V179.033H209.241V175.853H209.364ZM215.845 176.708H218.536L219.27 178.91H220.126L217.68 170.714H216.701L214.377 178.91H215.234L215.845 176.708ZM218.292 175.852H216.09L217.068 172.06H217.191L218.292 175.852Z" fill="url(#paint4_linear)" fill-opacity="0.3"/>
<path d="M168.386 161.296C168.386 162.641 168.631 165.455 166.062 165.455C163.616 165.455 163.738 162.641 163.738 161.296C163.738 159.339 163.616 157.137 166.062 157.137C168.753 157.014 168.386 160.317 168.386 161.296ZM164.717 161.296C164.717 164.476 165.328 164.721 166.185 164.721C167.163 164.721 167.652 164.354 167.652 161.296C167.652 158.115 167.163 157.871 166.185 157.871C164.594 157.871 164.717 159.583 164.717 161.296Z" fill="#42358F" fill-opacity="0.68"/>
<path d="M170.955 157.136H175.114V157.87H171.811V160.317C172.178 160.194 172.545 160.072 173.034 160.072C174.258 160.072 175.236 160.928 175.236 162.274C175.236 163.375 174.624 164.231 173.768 164.72C173.157 165.087 172.3 165.332 170.71 165.332V164.598C171.689 164.598 172.545 164.598 173.034 164.231C173.768 163.864 174.258 163.13 174.258 162.274C174.258 161.418 173.646 160.928 172.79 160.928C172.3 160.928 171.933 161.173 171.444 161.295H170.833V157.136H170.955Z" fill="#42358F" fill-opacity="0.68"/>
<path d="M176.337 165.577L180.007 156.158H180.619L176.949 165.577H176.337Z" fill="#42358F" fill-opacity="0.68"/>
<path d="M183.065 158.116L181.597 158.728L181.353 157.994L183.921 157.016V164.599H185.634V165.333H180.986V164.599H183.065V158.116Z" fill="#42358F" fill-opacity="0.68"/>
<path d="M191.627 157.871H188.325V157.137H192.85L189.181 165.455L188.447 165.088L191.627 157.871Z" fill="#42358F" fill-opacity="0.68"/>
</g>
<path fill-rule="evenodd" clip-rule="evenodd" d="M275.526 181.233L284.088 160.806H278.584L273.08 174.75L270.878 162.885C270.633 161.54 269.532 160.806 268.431 160.806H259.38L259.257 161.417C261.092 161.784 263.294 162.396 264.517 163.13C265.251 163.619 265.496 163.986 265.74 164.965L269.899 181.233H275.526ZM301.112 168.709C303.267 169.836 305.984 171.258 305.984 174.506C305.984 178.787 302.314 181.478 296.81 181.478C294.486 181.478 292.162 180.989 290.938 180.377L291.917 175.851C293.14 176.463 294.608 177.197 297.299 177.197C298.889 177.197 300.479 176.585 300.479 175.24C300.479 174.261 299.868 173.649 297.788 172.671C295.709 171.692 293.14 170.102 293.14 167.166C293.14 163.252 296.81 160.439 302.07 160.439C304.027 160.439 305.739 160.806 306.963 161.295L305.984 165.576C303.538 164.598 301.458 164.598 300.724 164.72C299.256 164.965 298.522 165.699 298.522 166.433C298.522 167.354 299.696 167.968 301.112 168.709ZM324.699 181.233H319.806L319.072 178.175H312.345L311.244 181.233H305.739L313.69 162.274C314.057 161.417 314.913 160.806 315.892 160.806H320.418L324.699 181.233ZM316.626 166.188L313.812 173.894H318.216L316.626 166.188ZM287.269 181.233L291.672 160.806H286.413L282.009 181.233H287.269ZM287.993 192.034C288.377 191.737 288.57 191.323 288.57 190.793C288.57 190.381 288.45 190.046 288.211 189.788C287.975 189.529 287.541 189.288 286.909 189.062C286.532 188.928 286.252 188.805 286.068 188.696C285.887 188.583 285.758 188.461 285.681 188.329C285.604 188.194 285.565 188.022 285.565 187.814C285.565 187.531 285.67 187.309 285.878 187.15C286.087 186.991 286.377 186.911 286.748 186.911C287.218 186.911 287.701 187.015 288.199 187.224L288.417 186.614C287.914 186.395 287.363 186.285 286.765 186.285C286.19 186.285 285.729 186.422 285.38 186.697C285.031 186.972 284.856 187.341 284.856 187.805C284.856 188.248 284.976 188.606 285.215 188.881C285.457 189.156 285.858 189.393 286.418 189.594C286.819 189.737 287.118 189.865 287.313 189.977C287.51 190.09 287.651 190.213 287.733 190.348C287.818 190.48 287.861 190.65 287.861 190.859C287.861 191.175 287.743 191.422 287.506 191.601C287.27 191.777 286.918 191.865 286.451 191.865C286.166 191.865 285.877 191.834 285.586 191.774C285.295 191.714 285.025 191.631 284.778 191.527V192.203C285.163 192.387 285.712 192.479 286.427 192.479C287.086 192.479 287.608 192.33 287.993 192.034ZM290.036 192.396H290.721V187.88H290.036V192.396ZM290.094 186.313C290.017 186.385 289.979 186.499 289.979 186.656C289.979 186.809 290.017 186.925 290.094 187.002C290.171 187.076 290.267 187.113 290.383 187.113C290.492 187.113 290.587 187.076 290.667 187.002C290.747 186.925 290.786 186.809 290.786 186.656C290.786 186.502 290.747 186.388 290.667 186.313C290.587 186.239 290.492 186.202 290.383 186.202C290.267 186.202 290.171 186.239 290.094 186.313ZM296.205 188.312V187.88H294.644C294.454 187.825 294.241 187.797 294.005 187.797C293.461 187.797 293.04 187.932 292.744 188.201C292.447 188.467 292.299 188.848 292.299 189.343C292.299 189.639 292.371 189.903 292.517 190.134C292.665 190.365 292.856 190.528 293.09 190.624C292.9 190.74 292.762 190.859 292.674 190.983C292.586 191.106 292.542 191.251 292.542 191.415C292.542 191.561 292.58 191.689 292.657 191.799C292.737 191.909 292.834 191.99 292.95 192.042C292.631 192.113 292.384 192.249 292.208 192.45C292.032 192.65 291.944 192.888 291.944 193.163C291.944 193.564 292.104 193.874 292.422 194.094C292.744 194.314 293.2 194.424 293.79 194.424C294.56 194.424 295.145 194.292 295.546 194.028C295.947 193.767 296.148 193.387 296.148 192.887C296.148 192.494 296.016 192.194 295.752 191.988C295.491 191.782 295.116 191.679 294.627 191.679H293.828C293.58 191.679 293.406 191.65 293.304 191.593C293.202 191.532 293.152 191.44 293.152 191.317C293.152 191.083 293.297 190.889 293.589 190.736C293.707 190.757 293.833 190.768 293.968 190.768C294.495 190.768 294.91 190.637 295.212 190.373C295.514 190.109 295.666 189.756 295.666 189.314C295.666 189.119 295.635 188.944 295.575 188.79C295.514 188.634 295.446 188.507 295.369 188.411L296.205 188.312ZM292.913 193.711C292.707 193.585 292.604 193.399 292.604 193.155C292.604 192.877 292.69 192.664 292.863 192.516C293.036 192.367 293.278 192.293 293.589 192.293H294.409C294.826 192.293 295.111 192.34 295.262 192.433C295.413 192.53 295.488 192.7 295.488 192.944C295.488 193.238 295.35 193.471 295.072 193.641C294.797 193.814 294.373 193.901 293.799 193.901C293.414 193.901 293.119 193.837 292.913 193.711ZM293.242 190.043C293.064 189.881 292.974 189.642 292.974 189.326C292.974 188.985 293.061 188.728 293.234 188.555C293.407 188.382 293.654 188.296 293.976 188.296C294.652 188.296 294.99 188.635 294.99 189.314C294.99 189.962 294.656 190.286 293.988 190.286C293.67 190.286 293.421 190.205 293.242 190.043ZM300.561 189.474V192.396H301.245V189.45C301.245 188.873 301.108 188.454 300.833 188.193C300.558 187.929 300.149 187.797 299.605 187.797C299.295 187.797 299.013 187.859 298.76 187.983C298.507 188.103 298.311 188.275 298.171 188.498H298.138L298.027 187.88H297.47V192.396H298.154V190.027C298.154 189.439 298.264 189.017 298.484 188.761C298.704 188.506 299.05 188.378 299.523 188.378C299.88 188.378 300.142 188.469 300.31 188.65C300.477 188.832 300.561 189.106 300.561 189.474ZM305.634 191.753L305.77 192.396H306.277V189.314C306.277 188.786 306.146 188.403 305.885 188.164C305.627 187.925 305.229 187.805 304.69 187.805C304.424 187.805 304.157 187.84 303.891 187.908C303.627 187.977 303.384 188.072 303.161 188.193L303.372 188.716C303.847 188.485 304.273 188.37 304.649 188.37C304.984 188.37 305.227 188.455 305.379 188.625C305.532 188.793 305.609 189.054 305.609 189.408V189.689L304.843 189.713C303.384 189.757 302.654 190.235 302.654 191.148C302.654 191.573 302.781 191.902 303.034 192.133C303.289 192.363 303.641 192.479 304.089 192.479C304.424 192.479 304.703 192.429 304.925 192.33C305.15 192.229 305.376 192.036 305.601 191.753H305.634ZM305.226 191.564C304.984 191.797 304.65 191.914 304.225 191.914C303.955 191.914 303.745 191.85 303.594 191.72C303.446 191.591 303.372 191.403 303.372 191.156C303.372 190.84 303.491 190.608 303.73 190.459C303.972 190.308 304.365 190.223 304.909 190.204L305.593 190.175V190.583C305.593 191.003 305.471 191.33 305.226 191.564ZM309.837 191.889C309.725 191.906 309.608 191.914 309.487 191.914C309.262 191.914 309.084 191.841 308.955 191.696C308.826 191.55 308.762 191.341 308.762 191.069V188.411H310.072V187.88H308.762V186.833H308.366L308.078 187.797L307.431 188.081V188.411H308.078V191.098C308.078 192.019 308.514 192.479 309.388 192.479C309.503 192.479 309.633 192.466 309.775 192.442C309.921 192.42 310.031 192.391 310.105 192.355V191.832C310.039 191.851 309.95 191.87 309.837 191.889ZM311.992 190.81V187.88H311.3V190.834C311.3 191.409 311.436 191.826 311.708 192.087C311.983 192.348 312.395 192.479 312.944 192.479C313.263 192.479 313.546 192.42 313.793 192.302C314.043 192.183 314.238 192.013 314.378 191.791H314.416L314.514 192.396H315.079V187.88H314.395V190.253C314.395 190.839 314.285 191.26 314.065 191.519C313.848 191.777 313.503 191.906 313.031 191.906C312.674 191.906 312.411 191.815 312.244 191.634C312.076 191.453 311.992 191.178 311.992 190.81ZM319.472 187.847C319.313 187.814 319.133 187.797 318.932 187.797C318.649 187.797 318.389 187.877 318.153 188.036C317.917 188.195 317.715 188.422 317.547 188.716H317.514L317.436 187.88H316.871V192.396H317.556V189.973C317.556 189.531 317.685 189.161 317.943 188.864C318.204 188.568 318.517 188.419 318.883 188.419C319.025 188.419 319.19 188.44 319.377 188.481L319.472 187.847ZM320.98 191.869C321.367 192.275 321.895 192.479 322.562 192.479C322.867 192.479 323.127 192.455 323.341 192.409C323.558 192.365 323.788 192.291 324.03 192.186V191.576C323.554 191.78 323.073 191.881 322.587 191.881C322.126 191.881 321.767 191.744 321.512 191.469C321.259 191.194 321.126 190.792 321.112 190.262H324.223V189.829C324.223 189.219 324.058 188.728 323.729 188.358C323.399 187.984 322.951 187.797 322.385 187.797C321.781 187.797 321.299 188.011 320.939 188.44C320.582 188.869 320.403 189.447 320.403 190.175C320.403 190.898 320.595 191.462 320.98 191.869ZM321.507 188.724C321.724 188.488 322.014 188.37 322.377 188.37C322.734 188.37 323.009 188.485 323.201 188.716C323.394 188.944 323.49 189.274 323.49 189.705H321.128C321.167 189.288 321.293 188.961 321.507 188.724Z" fill="url(#paint5_linear)"/>
<path d="M69.4171 150.196H68.4321V145.015H66.66V144.17H71.1892V145.015H69.4171V150.196ZM73.439 146.973H74.1231C74.582 146.973 74.9144 146.888 75.1205 146.717C75.3265 146.547 75.4296 146.294 75.4296 145.959C75.4296 145.618 75.3183 145.374 75.0957 145.225C74.8732 145.077 74.538 145.003 74.0902 145.003H73.439V146.973ZM73.439 147.789V150.196H72.4541V144.17H74.1561C74.9336 144.17 75.5092 144.316 75.8829 144.607C76.2565 144.899 76.4434 145.338 76.4434 145.926C76.4434 146.676 76.0532 147.211 75.2729 147.529L76.975 150.196H75.854L74.4116 147.789H73.439ZM81.9283 150.196L81.3266 148.522H79.0229L78.4336 150.196H77.395L79.6493 144.146H80.7208L82.9751 150.196H81.9283ZM81.067 147.673L80.5024 146.033C80.4612 145.923 80.4035 145.75 80.3293 145.514C80.2579 145.278 80.2084 145.105 80.1809 144.995C80.1067 145.333 79.9982 145.702 79.8554 146.103L79.3114 147.673H81.067ZM87.541 144.17H88.5631L86.453 150.196H85.4145L83.3127 144.17H84.3265L85.5834 147.917C85.6494 148.095 85.7194 148.326 85.7936 148.609C85.8678 148.889 85.9159 149.098 85.9379 149.235C85.9736 149.027 86.0285 148.785 86.1027 148.51C86.1769 148.235 86.2373 148.032 86.284 147.9L87.541 144.17ZM93.1042 150.196H89.696V144.17H93.1042V145.003H90.681V146.643H92.9518V147.467H90.681V149.359H93.1042V150.196ZM94.7483 150.196V144.17H95.7332V149.351H98.2842V150.196H94.7483Z" fill="#751E7C"/>
</g>
<defs>
<filter id="filter0_d" x="0.426022" y="0.933086" width="373.744" height="262.348" filterUnits="userSpaceOnUse" color-interpolation-filters="sRGB">
<feFlood flood-opacity="0" result="BackgroundImageFix"/>
<feColorMatrix in="SourceAlpha" type="matrix" values="0 0 0 0 0 0 0 0 0 0 0 0 0 0 0 0 0 0 127 0"/>
<feOffset dy="22.5071"/>
<feGaussianBlur stdDeviation="18.287"/>
<feColorMatrix type="matrix" values="0 0 0 0 0.273583 0 0 0 0 0.188854 0 0 0 0 0.6125 0 0 0 0.192 0"/>
<feBlend mode="normal" in2="BackgroundImageFix" result="effect1_dropShadow"/>
<feBlend mode="normal" in="SourceGraphic" in2="effect1_dropShadow" result="shape"/>
</filter>
<filter id="filter1_d" x="62.271" y="119.34" width="255.162" height="65.6861" filterUnits="userSpaceOnUse" color-interpolation-filters="sRGB">
<feFlood flood-opacity="0" result="BackgroundImageFix"/>
<feColorMatrix in="SourceAlpha" type="matrix" values="0 0 0 0 0 0 0 0 0 0 0 0 0 0 0 0 0 0 127 0"/>
<feOffset dy="1.40669"/>
<feGaussianBlur stdDeviation="2.11004"/>
<feColorMatrix type="matrix" values="0 0 0 0 0 0 0 0 0 0 0 0 0 0 0 0 0 0 0.32 0"/>
<feBlend mode="normal" in2="BackgroundImageFix" result="effect1_dropShadow"/>
<feBlend mode="normal" in="SourceGraphic" in2="effect1_dropShadow" result="shape"/>
</filter>
<linearGradient id="paint0_linear" x1="37" y1="109.6" x2="337.329" y2="109.6" gradientUnits="userSpaceOnUse">
<stop stop-color="#010237"/>
<stop offset="0.486188" stop-color="#0F1036"/>
<stop offset="1" stop-color="#00012A"/>
</linearGradient>
<linearGradient id="paint1_linear" x1="-20.6643" y1="66.2243" x2="45.3959" y2="259.344" gradientUnits="userSpaceOnUse">
<stop offset="0.0427655" stop-color="#3E3B3B"/>
<stop offset="0.985707" stop-color="#2C2828"/>
</linearGradient>
<linearGradient id="paint2_linear" x1="38.7584" y1="14.2967" x2="319.745" y2="231.631" gradientUnits="userSpaceOnUse">
<stop stop-color="#00A8DE"/>
<stop offset="0.2" stop-color="#333391"/>
<stop offset="0.4" stop-color="#E91388"/>
<stop offset="0.6" stop-color="#EB2D2E"/>
<stop offset="0.8" stop-color="#AB9E23"/>
<stop offset="1" stop-color="#009E54"/>
</linearGradient>
<linearGradient id="paint3_linear" x1="69.055" y1="103.347" x2="105.115" y2="103.347" gradientUnits="userSpaceOnUse">
<stop stop-color="#DBD8D5"/>
<stop offset="0.0616478" stop-color="#CBC9C8"/>
<stop offset="0.1794" stop-color="#A5A2A6"/>
<stop offset="0.264" stop-color="#88858B"/>
<stop offset="0.5225" stop-color="#F3F3F4"/>
<stop offset="0.5875" stop-color="#DFDEDF"/>
<stop offset="0.7124" stop-color="#B5B3B6"/>
<stop offset="0.8764" stop-color="#7E7A7F"/>
<stop offset="1" stop-color="#A6A8AA"/>
</linearGradient>
<linearGradient id="paint4_linear" x1="62.6721" y1="121.909" x2="283.875" y2="184.506" gradientUnits="userSpaceOnUse">
<stop stop-color="#9A87CD"/>
<stop offset="0.380208" stop-color="#31117D" stop-opacity="0.925"/>
<stop offset="0.734375" stop-color="#AE99E7"/>
<stop offset="1" stop-color="#280D62" stop-opacity="0.3"/>
</linearGradient>
<linearGradient id="paint5_linear" x1="289.497" y1="141.568" x2="337.502" y2="162.834" gradientUnits="userSpaceOnUse">
<stop stop-color="#DBD8D5"/>
<stop offset="0.0616478" stop-color="#CBC9C8"/>
<stop offset="0.1794" stop-color="#A5A2A6"/>
<stop offset="0.264" stop-color="#88858B"/>
<stop offset="0.5225" stop-color="#F3F3F4"/>
<stop offset="0.5875" stop-color="#DFDEDF"/>
<stop offset="0.7124" stop-color="#B5B3B6"/>
<stop offset="0.8764" stop-color="#7E7A7F"/>
<stop offset="1" stop-color="#A6A8AA"/>
</linearGradient>
</defs>
</svg>
