<svg width="532" height="373" viewBox="0 0 532 373" fill="none" xmlns="http://www.w3.org/2000/svg">
<g filter="url(#filter0_d)">
<path fill-rule="evenodd" clip-rule="evenodd" d="M478.824 274.065C478.824 282.323 472.13 289 463.851 289H66.9732C58.6939 289 52 282.323 52 274.065V34.9347C52 26.6767 58.6939 20 66.9732 20H464.027C472.306 20 479 26.6767 479 34.9347V274.065H478.824Z" fill="url(#paint0_linear)"/>
<g opacity="0.8">
<mask id="mask0" mask-type="alpha" maskUnits="userSpaceOnUse" x="52" y="20" width="428" height="268">
<path d="M52 36.7456C52 27.4973 59.607 20 68.9907 20H462.39C471.773 20 479.38 27.4973 479.38 36.7456V271.184C479.38 280.432 471.773 287.93 462.39 287.93H68.9907C59.607 287.93 52 280.432 52 271.184V36.7456Z" fill="url(#paint1_linear)"/>
</mask>
<g mask="url(#mask0)">
<path fill-rule="evenodd" clip-rule="evenodd" d="M487.693 281.339C487.695 283.363 487.299 285.368 486.526 287.238C485.753 289.109 484.619 290.809 483.189 292.241C481.758 293.672 480.06 294.808 478.19 295.583C476.321 296.359 474.317 296.757 472.293 296.757H63.4972C61.4718 296.76 59.4658 296.363 57.5941 295.589C55.7224 294.815 54.0218 293.679 52.5896 292.247C51.1575 290.815 50.0219 289.114 49.2479 287.242C48.4739 285.371 48.0767 283.365 48.0791 281.339V34.5238C48.0791 30.4346 49.7035 26.513 52.595 23.6216C55.4864 20.7301 59.408 19.1057 63.4972 19.1057H472.293C476.379 19.1105 480.296 20.737 483.183 23.628C486.071 26.5189 487.693 30.4378 487.693 34.5238V281.339Z" fill="url(#paint2_linear)"/>
<g opacity="0.8">
<path opacity="0.8" fill-rule="evenodd" clip-rule="evenodd" d="M354.717 19.1057H472.293C476.379 19.1105 480.296 20.737 483.183 23.628C486.071 26.5189 487.693 30.4378 487.693 34.5238V281.339C487.695 283.363 487.299 285.368 486.526 287.238C485.753 289.109 484.619 290.809 483.189 292.241C481.758 293.672 480.06 294.808 478.19 295.583C476.321 296.359 474.317 296.757 472.293 296.757H313.124C321.293 277.265 324.519 256.057 322.513 235.017C320.507 213.978 313.332 193.76 301.627 176.163C289.922 158.566 274.049 144.134 255.42 134.152C236.792 124.17 215.985 118.946 194.85 118.946C173.715 118.946 152.908 124.17 134.279 134.152C115.651 144.134 99.7776 158.566 88.0724 176.163C76.3673 193.76 69.1927 213.978 67.1868 235.017C65.181 256.057 68.4061 277.265 76.5753 296.757H63.4972C61.4718 296.76 59.4658 296.363 57.5941 295.589C55.7224 294.815 54.0218 293.679 52.5896 292.247C51.1575 290.815 50.0219 289.114 49.2479 287.242C48.4739 285.371 48.0767 283.365 48.0791 281.339V34.5238C48.0791 30.4346 49.7035 26.513 52.595 23.6216C55.4864 20.7301 59.408 19.1057 63.4972 19.1057H320.96L330.737 49.9055L332.551 49.3614L322.865 19.1057H329.014L338.791 49.9055L340.605 49.3614L330.919 19.1057H337.068L349.874 59.1382H315.664L309.569 49.0167C308.736 47.6429 307.456 46.5975 305.943 46.0559C304.43 45.5142 302.777 45.5093 301.262 46.0419C301.064 46.115 300.898 46.2545 300.792 46.4365C300.686 46.6185 300.647 46.8318 300.681 47.0396L304.109 70.6201L300.681 94.2007C300.648 94.406 300.688 94.6166 300.794 94.7955C300.9 94.9745 301.065 95.1106 301.262 95.1802C302.776 95.711 304.426 95.707 305.938 95.1691C307.449 94.6311 308.731 93.5916 309.569 92.2235L315.664 82.0839H349.892L331.372 139.947C331.299 140.154 331.306 140.382 331.394 140.584C331.481 140.786 331.642 140.947 331.844 141.035C334.177 142.126 336.827 142.328 339.299 141.603C341.77 140.879 343.892 139.277 345.266 137.099L380.02 82.0839H407.991C420.706 82.0839 430.682 77.0594 430.682 70.6201C430.682 64.1808 420.688 59.1382 407.991 59.1382H380.02L354.717 19.1057ZM286.369 94.4546L289.816 70.7471C289.834 70.6634 289.834 70.5768 289.816 70.4931L286.369 46.7675L284.556 47.0396L287.984 70.6201L284.556 94.2007L286.369 94.4546ZM294.423 94.4546L297.87 70.7471C297.888 70.6634 297.888 70.5768 297.87 70.4931L294.423 46.7675L292.609 47.0396L296.037 70.6201L292.609 94.2007L294.423 94.4546ZM315.265 139.947L316.988 140.491L332.642 91.8789L330.828 91.3166L315.265 139.947ZM338.863 91.3166L323.318 139.947L325.114 140.491L340.677 91.8789L338.863 91.3166ZM333.349 139.693C335.233 140.363 337.289 140.368 339.177 139.708C341.064 139.049 342.669 137.763 343.725 136.065L378.751 80.7779C378.833 80.6502 378.945 80.545 379.079 80.4722C379.212 80.3993 379.361 80.3609 379.513 80.3607H407.973C419.291 80.3607 428.85 75.9348 428.85 70.7108C428.85 65.4868 419.291 61.0428 407.973 61.0428H379.513C379.36 61.046 379.21 61.0092 379.076 60.936C378.942 60.8628 378.83 60.7557 378.751 60.6256L352.576 19.1057H338.972L351.996 59.7731C352.036 59.9112 352.043 60.0565 352.018 60.198C351.993 60.3395 351.936 60.4733 351.851 60.5893C351.768 60.7041 351.659 60.7972 351.533 60.8604C351.407 60.9236 351.267 60.9551 351.125 60.9521H315.138C314.982 60.9513 314.828 60.9109 314.692 60.8348C314.555 60.7587 314.441 60.6493 314.358 60.5168L308.009 49.9418C307.458 49.0326 306.639 48.3162 305.665 47.8908C304.691 47.4654 303.609 47.3518 302.568 47.5656L305.905 70.4931C305.923 70.5768 305.923 70.6634 305.905 70.7471L302.568 93.6746C303.611 93.8867 304.694 93.7704 305.669 93.3417C306.643 92.9129 307.461 92.1928 308.009 91.2803L314.358 80.7779C314.441 80.6454 314.555 80.536 314.692 80.4598C314.828 80.3837 314.982 80.3434 315.138 80.3425H351.125C351.267 80.3454 351.406 80.3808 351.532 80.4458C351.657 80.5109 351.767 80.604 351.851 80.7179C351.935 80.8318 351.992 80.9635 352.017 81.1028C352.042 81.2422 352.035 81.3854 351.996 81.5216L333.349 139.693ZM212.365 132.546L208.302 127.104L211.277 121.789C221.21 123.085 230.954 125.563 240.299 129.172L245.523 147.311L242.947 149.125L233.787 141.869L218.605 133.707L218.333 133.616L212.365 132.546ZM266.687 296.756H241.129L248.838 273.629C248.885 273.476 248.891 273.314 248.856 273.158C248.821 273.003 248.746 272.859 248.639 272.74L240.875 264.161L234.128 253.096L238.916 245.151C238.972 245.056 239.008 244.951 239.025 244.843L239.86 240.072C239.896 239.869 239.862 239.659 239.763 239.478C239.664 239.296 239.506 239.154 239.316 239.075L231.171 235.81L228.233 230.749C228.136 230.582 227.99 230.449 227.815 230.368L218.964 226.395L207.627 223.348L200.009 217.38L186.332 202.307L179.784 188.159L182.106 180.341C182.15 180.235 182.173 180.121 182.173 180.005C182.173 179.89 182.15 179.776 182.106 179.67L175.358 166.174C175.285 166.036 175.179 165.917 175.049 165.83L163.096 157.958C162.987 157.886 162.865 157.839 162.736 157.821C162.608 157.802 162.477 157.811 162.352 157.849L152.884 160.642L155.931 156.706C156.015 156.596 156.073 156.469 156.101 156.334C156.129 156.199 156.127 156.06 156.094 155.926L154.516 149.922L161.246 142.449H171.204L180.854 150.122C180.988 150.219 181.144 150.281 181.307 150.303L192.191 151.718C192.317 151.736 192.445 151.736 192.572 151.718L202.965 148.616C203.157 148.567 203.326 148.454 203.445 148.295C203.563 148.137 203.624 147.943 203.618 147.745C203.615 147.55 203.551 147.36 203.433 147.204C203.316 147.047 203.152 146.932 202.965 146.875L191.501 143.573L195.528 137.406L201.822 132.11L208.407 140.054C208.497 140.168 208.616 140.256 208.752 140.308L217.168 143.936L223.317 147.328L213.449 149.868C213.311 149.897 213.182 149.961 213.075 150.053C212.967 150.144 212.884 150.262 212.833 150.394L208.897 159.953C208.825 160.134 208.813 160.334 208.862 160.523C208.911 160.712 209.018 160.881 209.169 161.005L222.936 172.233C223.071 172.344 223.234 172.415 223.408 172.438C223.581 172.46 223.757 172.433 223.916 172.36C224.067 172.279 224.194 172.159 224.283 172.012C224.373 171.865 224.421 171.697 224.424 171.525L224.17 158.538L232.223 159.771L253.881 170.655L244.032 178.491C243.945 178.555 243.872 178.635 243.814 178.727L233.384 195.958C233.298 196.1 233.254 196.264 233.257 196.43V207.858L230.917 208.565L227.906 203.559C227.807 203.391 227.656 203.26 227.476 203.185C227.297 203.11 227.098 203.095 226.909 203.141L212.017 206.769C211.802 206.821 211.614 206.949 211.487 207.129C211.36 207.309 211.303 207.53 211.327 207.749L212.778 219.267C212.805 219.488 212.912 219.692 213.08 219.839C213.247 219.986 213.462 220.067 213.685 220.065H219.816C219.962 220.067 220.106 220.034 220.236 219.967C220.365 219.901 220.477 219.804 220.56 219.684L222.918 216.383L225.893 217.979L225.113 225.235C225.086 225.462 225.145 225.691 225.28 225.876C225.414 226.061 225.614 226.188 225.838 226.232L232.568 227.575L233.856 235.102C233.879 235.226 233.928 235.343 234 235.446C234.072 235.549 234.165 235.636 234.273 235.701C234.376 235.77 234.491 235.817 234.613 235.839C234.735 235.861 234.86 235.857 234.98 235.828L240.331 234.413C240.417 234.395 240.498 234.358 240.567 234.304L248.911 229.207L263.821 234.649L277.988 242.539V249.323C277.988 249.564 278.083 249.794 278.253 249.964C278.423 250.134 278.654 250.23 278.895 250.23H286.567L296.435 254.765L299.228 262.02L292.118 271.598L285.007 286.653L273.652 288.811C273.451 288.848 273.27 288.958 273.145 289.12L266.687 296.756ZM78.5326 296.758C71.8448 281.1 68.4016 264.248 68.4112 247.221C68.4364 226.959 73.3341 207 82.6912 189.028C92.0482 171.056 105.59 155.597 122.175 143.957L131.371 143.068L139.352 145.281H139.606L154.462 144.156C154.659 144.143 154.847 144.065 154.995 143.933C155.143 143.802 155.242 143.625 155.278 143.431L157.292 133.037C157.318 132.915 157.319 132.79 157.294 132.668C157.269 132.546 157.219 132.431 157.147 132.33L153.845 127.668C167.059 123.118 180.937 120.795 194.912 120.793C199.761 120.801 204.606 121.086 209.423 121.646L206.502 126.706C206.405 126.855 206.353 127.028 206.353 127.205C206.353 127.383 206.405 127.556 206.502 127.704L211.146 133.962C211.281 134.146 211.483 134.27 211.708 134.307L217.894 135.413L232.804 143.412L242.363 150.994C242.523 151.121 242.721 151.191 242.925 151.194C243.113 151.193 243.296 151.136 243.451 151.031L247.079 148.509C247.237 148.402 247.357 148.248 247.422 148.069C247.487 147.89 247.494 147.695 247.442 147.512L242.435 130.117C257.972 136.434 272.096 145.782 283.984 157.614C295.871 169.446 305.284 183.526 311.674 199.033C318.065 214.54 321.304 231.164 321.204 247.936C321.104 264.708 317.666 281.292 311.091 296.722H269.081L274.324 290.501L285.824 288.306C285.966 288.28 286.099 288.221 286.213 288.132C286.327 288.044 286.417 287.929 286.477 287.798L293.732 272.507L300.988 262.657C301.077 262.536 301.133 262.394 301.152 262.245C301.171 262.096 301.152 261.945 301.097 261.805L298.013 253.642C297.927 253.423 297.757 253.247 297.541 253.153L287.13 248.364C287.01 248.337 286.886 248.337 286.767 248.364H279.802V241.961C279.8 241.798 279.756 241.639 279.673 241.498C279.59 241.358 279.472 241.243 279.33 241.163L264.583 232.946L249.129 227.323C249.004 227.264 248.868 227.234 248.73 227.234C248.592 227.234 248.456 227.264 248.331 227.323L239.733 232.583L235.488 233.708L234.255 226.452C234.219 226.273 234.131 226.109 234.002 225.98C233.873 225.85 233.708 225.762 233.529 225.727L227.036 224.475L227.797 217.437C227.813 217.255 227.774 217.072 227.687 216.911C227.6 216.75 227.468 216.618 227.308 216.53L223.099 214.281C222.904 214.18 222.678 214.154 222.464 214.207C222.251 214.261 222.064 214.39 221.939 214.571L219.399 218.199H214.483L213.268 208.259L226.727 204.958L229.756 210C229.861 210.175 230.022 210.31 230.213 210.383C230.404 210.455 230.614 210.461 230.808 210.399L234.436 209.293C234.618 209.23 234.777 209.113 234.89 208.957C235.004 208.801 235.067 208.615 235.071 208.422V196.577L245.247 179.799L256.13 171.183C256.247 171.088 256.338 170.965 256.395 170.825C256.452 170.686 256.473 170.535 256.457 170.385C256.44 170.233 256.387 170.088 256.301 169.962C256.216 169.835 256.101 169.732 255.967 169.659L232.913 158.141C232.828 158.095 232.736 158.064 232.641 158.05L223.372 156.654C223.241 156.632 223.106 156.638 222.978 156.672C222.85 156.707 222.73 156.769 222.628 156.853C222.529 156.943 222.451 157.052 222.398 157.174C222.345 157.296 222.318 157.428 222.319 157.561L222.573 169.659L210.838 160.155L214.338 151.629L225.984 148.655C226.159 148.609 226.316 148.513 226.436 148.377C226.556 148.241 226.633 148.073 226.656 147.894C226.68 147.714 226.649 147.532 226.568 147.37C226.487 147.208 226.359 147.074 226.201 146.986L217.966 142.451L209.677 138.823L202.476 130.298C202.399 130.205 202.304 130.129 202.198 130.074C202.091 130.018 201.974 129.984 201.854 129.974C201.735 129.964 201.614 129.978 201.499 130.015C201.385 130.052 201.279 130.111 201.188 130.189L194.095 136.157C194.026 136.214 193.965 136.282 193.914 136.356L189.143 143.612C189.077 143.734 189.042 143.872 189.042 144.011C189.042 144.15 189.077 144.288 189.143 144.41C189.191 144.545 189.27 144.667 189.374 144.764C189.478 144.862 189.604 144.934 189.742 144.972L199.41 147.766L192.155 149.924L181.634 148.582L171.984 140.873C171.829 140.738 171.628 140.667 171.422 140.673H160.738C160.612 140.675 160.488 140.701 160.373 140.751C160.258 140.801 160.154 140.873 160.067 140.964L152.811 149.126C152.712 149.238 152.641 149.373 152.607 149.518C152.572 149.664 152.574 149.816 152.612 149.961L154.19 155.983L149.673 161.823C149.557 161.978 149.494 162.165 149.494 162.358C149.494 162.552 149.557 162.739 149.673 162.894C149.777 163.055 149.931 163.176 150.112 163.239C150.293 163.301 150.49 163.301 150.671 163.238L162.352 159.701L173.961 167.211L180.437 180.162L178.006 187.961C177.925 188.172 177.925 188.404 178.006 188.614L184.736 203.234C184.78 203.314 184.835 203.387 184.899 203.452L198.775 218.743L206.647 224.928C206.747 225.001 206.857 225.056 206.974 225.092L218.365 228.121L226.818 231.948L229.756 237.027C229.856 237.209 230.017 237.35 230.21 237.426L237.955 240.528L237.266 244.41L232.296 252.699C232.207 252.84 232.16 253.004 232.16 253.171C232.16 253.338 232.207 253.501 232.296 253.642L239.424 265.287L246.934 273.613L239.243 296.758H78.5326ZM243.76 218.943H251.342V217.201H243.923L236.214 214.172L235.543 215.859L243.415 218.943C243.529 218.962 243.646 218.962 243.76 218.943ZM131.554 141.235C131.446 141.216 131.336 141.216 131.228 141.235L125.115 141.87C133.494 136.293 142.514 131.744 151.979 128.32L155.37 133.108L153.557 142.45L139.553 143.448L131.554 141.235Z" fill="#00005B"/>
</g>
</g>
</g>
<path fill-rule="evenodd" clip-rule="evenodd" d="M143.843 168.176H102.626C99.8429 168.176 97.582 165.568 97.582 162.437V128.872C97.582 125.742 99.8429 123.133 102.626 123.133H143.843C146.626 123.133 148.886 125.742 148.886 128.872V162.437C148.886 165.568 146.626 168.176 143.843 168.176Z" fill="url(#paint3_linear)" stroke="#00002F" stroke-width="0.4" stroke-miterlimit="2.6131"/>
<path d="M115.843 145.218H97.582" stroke="#00002F" stroke-width="0.4" stroke-miterlimit="2.6131" stroke-linejoin="round"/>
<path d="M148.886 145.218H130.625" stroke="#00002F" stroke-width="0.4" stroke-miterlimit="2.6131" stroke-linejoin="round"/>
<path d="M115.147 155.305H97.582" stroke="#00002F" stroke-width="0.4" stroke-miterlimit="2.6131" stroke-linejoin="round"/>
<path d="M148.888 155.305H131.148" stroke="#00002F" stroke-width="0.4" stroke-miterlimit="2.6131" stroke-linejoin="round"/>
<path d="M115.147 135.133H97.582" stroke="#00002F" stroke-width="0.4" stroke-miterlimit="2.6131" stroke-linejoin="round"/>
<path d="M122.105 167.651V165.391H103.844V167.651" stroke="#00002F" stroke-width="0.4" stroke-miterlimit="2.6131" stroke-linejoin="round"/>
<path d="M147.84 165.391H124.188V167.651" stroke="#00002F" stroke-width="0.4" stroke-miterlimit="2.6131" stroke-linejoin="round"/>
<path d="M115.841 145.218C115.841 146.435 114.798 147.653 114.798 147.653C113.754 148.349 113.928 149.566 113.928 149.566C113.928 149.566 114.276 152.522 114.276 153.044C114.45 153.566 114.624 154.609 115.494 155.827C116.363 157.044 118.972 156.87 118.972 156.87H123.146" stroke="#00002F" stroke-width="0.4" stroke-miterlimit="2.6131" stroke-linejoin="round"/>
<path d="M123.148 157.046H127.322C127.322 157.046 129.757 157.046 130.8 156.003C131.67 154.785 131.844 153.742 132.018 153.22C132.191 152.698 132.365 149.742 132.365 149.742C132.365 149.742 132.539 148.524 131.496 147.829C131.496 147.829 130.452 146.611 130.452 145.394" stroke="#00002F" stroke-width="0.4" stroke-miterlimit="2.6131" stroke-linejoin="round"/>
<path d="M123.146 133.392H118.972C118.972 133.392 116.537 133.218 115.494 134.435C114.624 135.653 114.276 136.696 114.276 137.218C114.102 137.74 113.928 140.696 113.928 140.696C113.928 140.696 113.754 141.914 114.798 142.609C114.798 142.609 115.841 143.827 115.841 145.044" stroke="#00002F" stroke-width="0.4" stroke-miterlimit="2.6131" stroke-linejoin="round"/>
<path d="M148.885 135.13H131.32C131.842 136.173 132.016 136.869 132.19 137.39C132.364 137.912 132.538 140.869 132.538 140.869C132.538 140.869 132.711 142.086 131.668 142.782C131.668 142.782 130.625 143.999 130.625 145.216" stroke="#00002F" stroke-width="0.4" stroke-miterlimit="2.6131" stroke-linejoin="round"/>
<path d="M118.797 125.043V129.391C118.797 129.391 118.797 130.782 119.319 131.826C120.014 132.869 121.232 133.391 121.232 133.391H123.145" stroke="#00002F" stroke-width="0.4" stroke-miterlimit="2.6131" stroke-linejoin="round"/>
<path d="M123.148 133.391H125.061C125.061 133.391 126.453 132.869 126.975 131.826C127.496 130.782 127.496 129.391 127.496 129.391V125.043" stroke="#00002F" stroke-width="0.4" stroke-miterlimit="2.6131" stroke-linejoin="round"/>
<path d="M115.844 156.176C115.844 156.176 114.801 159.48 114.627 160.35C114.453 161.219 114.627 161.741 115.497 162.437C116.366 163.306 116.714 164.35 116.714 165.393" stroke="#00002F" stroke-width="0.4" stroke-miterlimit="2.6131" stroke-linejoin="round"/>
<path d="M129.758 165.393C129.758 164.524 130.106 163.306 130.975 162.437C131.845 161.567 132.019 161.219 131.845 160.35C131.671 159.48 130.627 156.176 130.627 156.176" stroke="#00002F" stroke-width="0.4" stroke-miterlimit="2.6131" stroke-linejoin="round"/>
<path d="M101.754 155.305V167.653" stroke="#00002F" stroke-width="0.4" stroke-miterlimit="2.6131" stroke-linejoin="round"/>
<path d="M124.19 122.609V125.044H147.842M98.6245 125.044H122.277V122.609L98.6245 125.044Z" stroke="#00002F" stroke-width="0.4" stroke-miterlimit="2.6131" stroke-linejoin="round"/>
<g opacity="0.8">
<path d="M454.277 71.4785C455.146 72.0002 456.364 71.6524 456.885 70.7829C459.668 65.7394 461.233 60.1741 461.233 54.435C461.233 48.6959 459.842 43.1307 456.885 38.2611C456.364 37.3915 455.146 37.0437 454.277 37.5655C453.407 38.0872 453.059 39.3046 453.581 40.1741C456.016 44.522 457.407 49.3915 457.407 54.435C457.407 59.4785 456.016 64.522 453.581 68.8698C453.059 69.7394 453.407 70.9568 454.277 71.4785Z" fill="white"/>
<path d="M447.671 67.6507C448.541 68.1724 449.758 67.8246 450.28 66.955C452.541 63.129 453.758 58.7812 453.758 54.2594C453.758 49.9116 452.541 45.5637 450.454 41.7377C449.932 40.8681 448.715 40.5203 447.845 41.042C446.976 41.5638 446.628 42.7811 447.15 43.6507C449.063 46.9551 449.932 50.6072 449.932 54.2594C449.932 58.0855 448.889 61.7376 446.976 65.042C446.454 66.0855 446.802 67.129 447.671 67.6507Z" fill="white"/>
<path d="M441.06 64.3486C441.929 64.8703 443.147 64.6964 443.668 63.8268C445.408 61.0442 446.451 57.7398 446.451 54.4355C446.451 51.1311 445.582 48.0007 443.842 45.2181C443.321 44.3486 442.103 44.0007 441.234 44.5225C440.364 45.0442 440.016 46.2616 440.538 47.1312C441.929 49.2181 442.625 51.8268 442.625 54.2616C442.625 56.8703 441.929 59.479 440.538 61.5659C439.842 62.6094 440.19 63.8268 441.06 64.3486Z" fill="white"/>
<path d="M434.801 61.0437C435.67 61.7394 436.887 61.3915 437.409 60.522C438.801 58.6089 439.496 56.522 439.496 54.2611C439.496 52.1742 438.801 50.0872 437.583 48.1742C437.061 47.3046 435.844 47.1307 434.974 47.6524C434.105 48.1742 433.931 49.3915 434.453 50.2611C435.148 51.4785 435.67 52.6959 435.67 54.0872C435.67 55.4785 435.148 56.8698 434.453 58.0872C433.757 59.1307 433.931 60.3481 434.801 61.0437Z" fill="white"/>
</g>
<g filter="url(#filter1_d)">
<path fill-rule="evenodd" clip-rule="evenodd" d="M106.799 174.956C106.799 173.565 105.582 172.348 104.191 172.348H96.5384C95.1471 172.348 93.9297 173.565 93.9297 174.956V190.087C93.9297 191.478 94.9732 192.695 96.5384 192.695H104.191C105.756 192.695 106.799 191.478 106.799 190.087V174.956ZM104.191 174.956V190.087H96.5384V174.956H104.191ZM125.585 174.956C125.585 173.565 124.367 172.348 122.976 172.348H115.324C113.932 172.348 112.715 173.565 112.715 174.956V190.087C112.715 191.478 113.759 192.695 115.324 192.695H122.976C124.541 192.695 125.585 191.478 125.585 190.087V174.956ZM122.976 174.956V190.087H115.324V174.956H122.976ZM141.757 172.348C143.148 172.348 144.366 173.565 144.366 174.956V190.087C144.366 191.478 143.322 192.695 141.757 192.695H134.105C132.54 192.695 131.496 191.478 131.496 190.087V174.956C131.496 173.565 132.713 172.348 134.105 172.348H141.757ZM141.757 190.087V174.956H134.105V190.087H141.757ZM163.151 174.956C163.151 173.565 161.933 172.348 160.542 172.348H152.89C151.499 172.348 150.281 173.565 150.281 174.956V190.087C150.281 191.478 151.325 192.695 152.89 192.695H160.542C162.107 192.695 163.151 191.478 163.151 190.087V174.956ZM160.542 174.956V190.087H152.89V174.956H160.542ZM197.929 172.348C199.32 172.348 200.538 173.565 200.538 174.956V190.087C200.538 191.478 199.494 192.695 197.929 192.695H190.277C188.711 192.695 187.668 191.478 187.668 190.087V174.956C187.668 173.565 188.885 172.348 190.277 172.348H197.929ZM197.929 190.087V174.956H190.277V190.087H197.929ZM219.323 174.956C219.323 173.565 218.105 172.348 216.714 172.348H209.062C207.671 172.348 206.453 173.565 206.453 174.956V190.087C206.453 191.478 207.497 192.695 209.062 192.695H216.714C218.279 192.695 219.323 191.478 219.323 190.087V174.956ZM216.714 174.956V190.087H209.062V174.956H216.714ZM235.495 172.348C236.887 172.348 238.104 173.565 238.104 174.956V190.087C238.104 191.478 237.06 192.695 235.495 192.695H227.843C226.278 192.695 225.234 191.478 225.234 190.087V174.956C225.234 173.565 226.452 172.348 227.843 172.348H235.495ZM235.495 190.087V174.956H227.843V190.087H235.495ZM256.889 174.956C256.889 173.565 255.671 172.348 254.28 172.348H246.628C245.236 172.348 244.019 173.565 244.019 174.956V190.087C244.019 191.478 245.063 192.695 246.628 192.695H254.28C255.845 192.695 256.889 191.478 256.889 190.087V174.956ZM254.28 174.956V190.087H246.628V174.956H254.28ZM291.843 172.348C293.234 172.348 294.452 173.565 294.452 174.956V190.087C294.452 191.478 293.408 192.695 291.843 192.695H284.191C282.626 192.695 281.582 191.478 281.582 190.087V174.956C281.582 173.565 282.799 172.348 284.191 172.348H291.843ZM291.843 190.087V174.956H284.191V190.087H291.843ZM313.233 174.956C313.233 173.565 312.015 172.348 310.624 172.348H302.972C301.581 172.348 300.363 173.565 300.363 174.956V190.087C300.363 191.478 301.407 192.695 302.972 192.695H310.624C312.189 192.695 313.233 191.478 313.233 190.087V174.956ZM310.624 174.956V190.087H302.972V174.956H310.624ZM329.409 172.348C330.801 172.348 332.018 173.565 332.018 174.956V190.087C332.018 191.478 330.975 192.695 329.409 192.695H321.757C320.192 192.695 319.148 191.478 319.148 190.087V174.956C319.148 173.565 320.366 172.348 321.757 172.348H329.409ZM329.409 190.087V174.956H321.757V190.087H329.409ZM350.799 174.956C350.799 173.565 349.582 172.348 348.191 172.348H340.538C339.147 172.348 337.93 173.565 337.93 174.956V190.087C337.93 191.478 338.973 192.695 340.538 192.695H348.191C349.756 192.695 350.799 191.478 350.799 190.087V174.956ZM348.191 174.956V190.087H340.538V174.956H348.191ZM385.757 172.348C387.148 172.348 388.365 173.565 388.365 174.956V190.087C388.365 191.478 387.322 192.695 385.757 192.695H378.104C376.539 192.695 375.496 191.478 375.496 190.087V174.956C375.496 173.565 376.713 172.348 378.104 172.348H385.757ZM385.757 190.087V174.956H378.104V190.087H385.757ZM407.147 174.956C407.147 173.565 405.93 172.348 404.538 172.348H396.886C395.495 172.348 394.277 173.565 394.277 174.956V190.087C394.277 191.478 395.321 192.695 396.886 192.695H404.538C406.103 192.695 407.147 191.478 407.147 190.087V174.956ZM404.538 174.956V190.087H396.886V174.956H404.538ZM423.319 172.348C424.711 172.348 425.928 173.565 425.928 174.956V190.087C425.928 191.478 424.885 192.695 423.319 192.695H415.667C414.102 192.695 413.059 191.478 413.059 190.087V174.956C413.059 173.565 414.276 172.348 415.667 172.348H423.319ZM423.319 190.087V174.956H415.667V190.087H423.319ZM444.713 174.956C444.713 173.565 443.496 172.348 442.105 172.348H434.452C433.061 172.348 431.844 173.565 431.844 174.956V190.087C431.844 191.478 432.887 192.695 434.452 192.695H442.105C443.67 192.695 444.713 191.478 444.713 190.087V174.956ZM442.105 174.956V190.087H434.452V174.956H442.105ZM96.1906 247.827H95.1471V253.219H93.9297V241.566H95.1471V246.784H96.1906L99.4949 241.566H100.886L97.234 247.132L101.234 253.219H99.6688L96.1906 247.827ZM105.579 249.912H109.405L110.449 253.043H111.666L108.188 241.391H106.797L103.492 253.043H104.71L105.579 249.912ZM109.057 248.695H105.927L107.318 243.304H107.492L109.057 248.695ZM114.277 241.566H121.93V244.523H120.886V242.784H118.799V252.001H120.19V253.219H115.843V252.001H117.408V242.784H115.321V244.523H114.277V241.566ZM131.843 241.566H125.93V253.219H132.017V252.001H127.147V247.827H131.495V246.61H127.147V242.784H131.843V241.566ZM136.972 241.653L136.972 241.653C137.189 241.61 137.407 241.566 137.581 241.566H138.972C139.494 241.566 139.842 241.566 140.189 241.74L141.233 242.262C141.581 242.436 141.755 242.784 141.928 243.306C142.102 243.653 142.276 244.175 142.276 244.871C142.276 245.392 142.276 245.74 142.102 246.088L142.102 246.088C141.928 246.436 141.755 246.784 141.581 246.958C141.523 247.016 141.465 247.093 141.407 247.17C141.291 247.325 141.175 247.479 141.059 247.479L141.059 247.48C140.885 247.653 140.711 247.827 140.537 247.827L143.146 253.393H141.755L139.32 248.349H137.581V253.393H136.363V241.74C136.537 241.74 136.755 241.697 136.972 241.653ZM138.972 242.61H138.624H138.276H137.928H137.581V246.958H138.624C139.32 246.958 139.842 246.784 140.189 246.436C140.537 246.088 140.885 245.393 140.885 244.697C140.885 244.175 140.711 243.653 140.363 243.306C140.015 242.784 139.494 242.61 138.972 242.61ZM153.234 241.566H146.277V242.784H149.06V252.001H146.277V253.219H153.234V252.001H150.277V242.784H153.234V241.566ZM158.798 245.914L158.102 244.175L158.276 245.914V253.219H157.059V241.566H157.928L161.928 248.871L162.624 250.436L162.45 248.871V241.566H163.667V253.219H162.798L158.798 245.914ZM168.887 249.912H172.887L173.757 253.043H174.974L171.496 241.391H170.105L166.8 253.043H168.018L168.887 249.912ZM172.366 248.695H169.235L170.626 243.304H170.8L172.366 248.695ZM194.276 242.782C194.189 242.782 194.102 242.738 194.015 242.695C193.928 242.652 193.841 242.608 193.754 242.608H193.059C192.711 242.608 192.189 242.608 191.841 242.782C191.493 242.956 191.145 243.304 190.798 243.651L190.798 243.652C190.45 243.999 190.276 244.521 190.102 245.043C189.928 245.565 189.754 246.434 189.754 247.304V247.304C189.754 248.173 189.754 248.869 189.928 249.391C190.102 249.912 190.276 250.434 190.624 250.956L190.624 250.956C190.972 251.304 191.319 251.652 191.667 251.825C192.015 251.999 192.537 252.173 193.059 252.173H193.754C193.841 252.173 193.928 252.13 194.015 252.086C194.102 252.043 194.189 251.999 194.276 251.999V250.26H195.319V252.521C195.145 252.608 194.972 252.738 194.798 252.869C194.624 252.999 194.45 253.13 194.276 253.217C193.754 253.391 193.232 253.391 192.711 253.391C192.189 253.391 191.493 253.217 190.972 253.043C190.45 252.869 189.928 252.521 189.58 251.999C189.232 251.478 188.885 250.956 188.711 250.086C188.537 249.391 188.363 248.347 188.363 247.478C188.363 246.434 188.537 245.391 188.711 244.695C188.885 243.999 189.232 243.304 189.58 242.782C189.928 242.26 190.45 241.912 190.972 241.738L190.972 241.738C191.493 241.565 192.015 241.391 192.711 241.391H193.58C193.754 241.391 194.102 241.391 194.276 241.565C194.363 241.565 194.45 241.608 194.537 241.652C194.624 241.695 194.711 241.738 194.798 241.738C194.972 241.738 195.145 241.912 195.145 242.086V244.695H194.102V242.782H194.276ZM200.362 247.827H204.884V253.219H206.101V241.566H204.884V246.61H200.362V241.566H199.145V253.219H200.362V247.827ZM210.453 241.566H216.366V242.784H211.671V246.61H216.018V247.827H211.671V252.001H216.54V253.219H210.453V241.566ZM221.495 241.653C221.278 241.697 221.061 241.74 220.887 241.74V253.393H222.104V248.349H223.843L226.278 253.393H227.669L225.061 247.827C225.235 247.827 225.408 247.653 225.582 247.48L225.582 247.479C225.698 247.479 225.814 247.325 225.93 247.17C225.988 247.093 226.046 247.016 226.104 246.958C226.278 246.784 226.452 246.436 226.626 246.088C226.8 245.74 226.8 245.392 226.8 244.871C226.8 244.175 226.626 243.653 226.452 243.306C226.278 242.784 226.104 242.436 225.756 242.262L224.713 241.74C224.365 241.566 224.017 241.566 223.495 241.566H222.104C221.93 241.566 221.713 241.61 221.496 241.653L221.495 241.653ZM223.148 242.61H223.495C224.017 242.61 224.539 242.784 224.887 243.306C225.235 243.653 225.408 244.175 225.408 244.697C225.408 245.393 225.061 246.088 224.713 246.436C224.365 246.784 223.843 246.958 223.148 246.958H222.104V242.61H222.452H222.8H223.148ZM233.581 247.827H232.538V253.219H231.32V241.566H232.538V246.784H233.581L236.886 241.566H238.277L234.625 247.132L238.625 253.219H237.059L233.581 247.827ZM242.973 249.912H246.799L247.843 253.043H249.06L245.582 241.391H244.191L240.886 253.043H242.104L242.973 249.912ZM246.452 248.695H243.321L244.712 243.304H244.886L246.452 248.695ZM254.278 251.999C254.626 252.173 254.974 252.173 255.321 252.173C255.669 252.173 256.017 252.173 256.191 251.999C256.539 251.999 256.713 251.825 256.887 251.652L257.408 251.13C257.582 250.956 257.582 250.608 257.582 250.26C257.582 249.738 257.408 249.391 257.234 249.217C256.887 248.869 256.713 248.695 256.191 248.521C256.017 248.434 255.8 248.304 255.583 248.173L255.582 248.173L255.582 248.173C255.365 248.043 255.147 247.912 254.974 247.825C254.646 247.716 254.387 247.539 254.154 247.378C254.015 247.283 253.886 247.195 253.756 247.13L252.713 246.086C252.365 245.738 252.365 245.217 252.365 244.521C252.365 243.999 252.365 243.652 252.539 243.304C252.713 242.956 252.887 242.608 253.234 242.434C253.35 242.376 253.466 242.299 253.582 242.222C253.814 242.067 254.046 241.912 254.278 241.912C254.626 241.738 255.148 241.738 255.669 241.738C256.191 241.738 256.713 241.738 257.234 241.912C257.434 241.979 257.608 242.02 257.756 242.055C257.997 242.112 258.17 242.153 258.278 242.26V244.869H257.234V243.13C257.162 243.13 257.061 243.1 256.941 243.065C256.772 243.016 256.569 242.956 256.365 242.956H255.495H255.495C255.147 242.956 254.974 242.956 254.626 243.13C254.539 243.217 254.408 243.26 254.278 243.304C254.148 243.347 254.017 243.391 253.93 243.478C253.756 243.652 253.582 243.825 253.582 243.999C253.408 244.173 253.408 244.347 253.408 244.695C253.408 245.043 253.582 245.565 253.756 245.738L253.756 245.739C254.104 246.086 254.278 246.26 254.8 246.434C254.974 246.521 255.191 246.651 255.408 246.782L255.408 246.782C255.626 246.912 255.843 247.043 256.017 247.13C256.345 247.239 256.604 247.417 256.837 247.577C256.975 247.672 257.105 247.761 257.234 247.825L258.278 248.869C258.626 249.217 258.626 249.738 258.626 250.434C258.626 250.956 258.626 251.304 258.452 251.825L258.452 251.826C258.278 252.173 258.104 252.521 257.756 252.869C257.408 253.217 257.061 253.391 256.713 253.565C256.365 253.738 255.843 253.738 255.321 253.738C254.974 253.738 254.626 253.738 254.278 253.565C254.074 253.565 253.87 253.505 253.702 253.455C253.582 253.421 253.48 253.391 253.408 253.391C253.276 253.324 253.168 253.283 253.076 253.248C252.928 253.191 252.82 253.15 252.713 253.043C252.626 252.956 252.539 252.912 252.452 252.869C252.365 252.825 252.278 252.782 252.191 252.695V250.086H253.234V251.478L254.278 251.999ZM264.884 251.999L263.84 251.477V250.086H262.797V252.695C262.884 252.782 262.971 252.825 263.058 252.869C263.145 252.912 263.232 252.956 263.319 253.043C263.426 253.15 263.534 253.191 263.682 253.248L263.682 253.248L263.682 253.248C263.774 253.283 263.882 253.324 264.014 253.39C264.086 253.39 264.188 253.42 264.308 253.455C264.476 253.505 264.68 253.564 264.884 253.564C265.232 253.738 265.579 253.738 265.927 253.738C266.449 253.738 266.971 253.738 267.319 253.564C267.666 253.39 268.014 253.217 268.362 252.869C268.71 252.521 268.884 252.173 269.058 251.825C269.232 251.304 269.232 250.956 269.232 250.434V250.434C269.232 249.738 269.232 249.217 268.884 248.869L267.84 247.825C267.711 247.76 267.581 247.672 267.443 247.577C267.209 247.416 266.95 247.239 266.623 247.13C266.449 247.043 266.232 246.912 266.014 246.782C265.797 246.651 265.579 246.521 265.406 246.434C264.884 246.26 264.71 246.086 264.362 245.738L264.362 245.738C264.188 245.564 264.014 245.043 264.014 244.695C264.014 244.347 264.014 244.173 264.188 243.999C264.188 243.825 264.362 243.651 264.536 243.477C264.623 243.39 264.753 243.347 264.884 243.303C265.014 243.26 265.145 243.217 265.232 243.13C265.579 242.956 265.753 242.956 266.101 242.956H266.101H266.971C267.175 242.956 267.378 243.015 267.547 243.065C267.666 243.1 267.768 243.13 267.84 243.13V244.869H268.884V242.26C268.776 242.153 268.602 242.111 268.362 242.055C268.214 242.02 268.04 241.979 267.84 241.912C267.319 241.738 266.797 241.738 266.275 241.738C265.753 241.738 265.232 241.738 264.884 241.912C264.652 241.912 264.42 242.067 264.188 242.221C264.072 242.299 263.956 242.376 263.84 242.434C263.493 242.608 263.319 242.956 263.145 243.303C262.971 243.651 262.971 243.999 262.971 244.521V244.521C262.971 245.217 262.971 245.738 263.319 246.086L264.362 247.13C264.492 247.194 264.621 247.283 264.76 247.378C264.993 247.538 265.252 247.716 265.579 247.825C265.753 247.912 265.971 248.042 266.188 248.173L266.188 248.173L266.189 248.173C266.406 248.304 266.623 248.434 266.797 248.521C267.319 248.695 267.493 248.869 267.84 249.217C268.014 249.39 268.188 249.738 268.188 250.26C268.188 250.608 268.188 250.956 268.014 251.13L267.493 251.651C267.319 251.825 267.145 251.999 266.797 251.999C266.623 252.173 266.275 252.173 265.927 252.173C265.579 252.173 265.232 252.173 264.884 251.999ZM275.843 247.827H274.799V253.219H273.582V241.566H274.799V246.784H275.843L279.147 241.566H280.539L276.886 247.132L280.886 253.219H279.321L275.843 247.827ZM284.366 253.043L285.235 249.912H289.061L290.105 253.043H291.322L287.844 241.391H286.453L283.148 253.043H284.366ZM287.148 243.304L288.714 248.695H285.583L286.975 243.304H287.148ZM297.062 248.697L293.41 241.566H294.801L297.758 247.306L300.541 241.566H301.758L298.106 248.697V253.219H296.888V248.697H297.062ZM305.408 253.043L306.278 249.912H310.104L311.148 253.043H312.365L308.887 241.391H307.495L304.191 253.043H305.408ZM308.191 243.304L309.756 248.695H306.626L308.017 243.304H308.191Z" fill="#42358F" fill-opacity="0.68"/>
<path fill-rule="evenodd" clip-rule="evenodd" d="M106.799 174.956C106.799 173.565 105.582 172.348 104.191 172.348H96.5384C95.1471 172.348 93.9297 173.565 93.9297 174.956V190.087C93.9297 191.478 94.9732 192.695 96.5384 192.695H104.191C105.756 192.695 106.799 191.478 106.799 190.087V174.956ZM104.191 174.956V190.087H96.5384V174.956H104.191ZM125.585 174.956C125.585 173.565 124.367 172.348 122.976 172.348H115.324C113.932 172.348 112.715 173.565 112.715 174.956V190.087C112.715 191.478 113.759 192.695 115.324 192.695H122.976C124.541 192.695 125.585 191.478 125.585 190.087V174.956ZM122.976 174.956V190.087H115.324V174.956H122.976ZM141.757 172.348C143.148 172.348 144.366 173.565 144.366 174.956V190.087C144.366 191.478 143.322 192.695 141.757 192.695H134.105C132.54 192.695 131.496 191.478 131.496 190.087V174.956C131.496 173.565 132.713 172.348 134.105 172.348H141.757ZM141.757 190.087V174.956H134.105V190.087H141.757ZM163.151 174.956C163.151 173.565 161.933 172.348 160.542 172.348H152.89C151.499 172.348 150.281 173.565 150.281 174.956V190.087C150.281 191.478 151.325 192.695 152.89 192.695H160.542C162.107 192.695 163.151 191.478 163.151 190.087V174.956ZM160.542 174.956V190.087H152.89V174.956H160.542ZM197.929 172.348C199.32 172.348 200.538 173.565 200.538 174.956V190.087C200.538 191.478 199.494 192.695 197.929 192.695H190.277C188.711 192.695 187.668 191.478 187.668 190.087V174.956C187.668 173.565 188.885 172.348 190.277 172.348H197.929ZM197.929 190.087V174.956H190.277V190.087H197.929ZM219.323 174.956C219.323 173.565 218.105 172.348 216.714 172.348H209.062C207.671 172.348 206.453 173.565 206.453 174.956V190.087C206.453 191.478 207.497 192.695 209.062 192.695H216.714C218.279 192.695 219.323 191.478 219.323 190.087V174.956ZM216.714 174.956V190.087H209.062V174.956H216.714ZM235.495 172.348C236.887 172.348 238.104 173.565 238.104 174.956V190.087C238.104 191.478 237.06 192.695 235.495 192.695H227.843C226.278 192.695 225.234 191.478 225.234 190.087V174.956C225.234 173.565 226.452 172.348 227.843 172.348H235.495ZM235.495 190.087V174.956H227.843V190.087H235.495ZM256.889 174.956C256.889 173.565 255.671 172.348 254.28 172.348H246.628C245.236 172.348 244.019 173.565 244.019 174.956V190.087C244.019 191.478 245.063 192.695 246.628 192.695H254.28C255.845 192.695 256.889 191.478 256.889 190.087V174.956ZM254.28 174.956V190.087H246.628V174.956H254.28ZM291.843 172.348C293.234 172.348 294.452 173.565 294.452 174.956V190.087C294.452 191.478 293.408 192.695 291.843 192.695H284.191C282.626 192.695 281.582 191.478 281.582 190.087V174.956C281.582 173.565 282.799 172.348 284.191 172.348H291.843ZM291.843 190.087V174.956H284.191V190.087H291.843ZM313.233 174.956C313.233 173.565 312.015 172.348 310.624 172.348H302.972C301.581 172.348 300.363 173.565 300.363 174.956V190.087C300.363 191.478 301.407 192.695 302.972 192.695H310.624C312.189 192.695 313.233 191.478 313.233 190.087V174.956ZM310.624 174.956V190.087H302.972V174.956H310.624ZM329.409 172.348C330.801 172.348 332.018 173.565 332.018 174.956V190.087C332.018 191.478 330.975 192.695 329.409 192.695H321.757C320.192 192.695 319.148 191.478 319.148 190.087V174.956C319.148 173.565 320.366 172.348 321.757 172.348H329.409ZM329.409 190.087V174.956H321.757V190.087H329.409ZM350.799 174.956C350.799 173.565 349.582 172.348 348.191 172.348H340.538C339.147 172.348 337.93 173.565 337.93 174.956V190.087C337.93 191.478 338.973 192.695 340.538 192.695H348.191C349.756 192.695 350.799 191.478 350.799 190.087V174.956ZM348.191 174.956V190.087H340.538V174.956H348.191ZM385.757 172.348C387.148 172.348 388.365 173.565 388.365 174.956V190.087C388.365 191.478 387.322 192.695 385.757 192.695H378.104C376.539 192.695 375.496 191.478 375.496 190.087V174.956C375.496 173.565 376.713 172.348 378.104 172.348H385.757ZM385.757 190.087V174.956H378.104V190.087H385.757ZM407.147 174.956C407.147 173.565 405.93 172.348 404.538 172.348H396.886C395.495 172.348 394.277 173.565 394.277 174.956V190.087C394.277 191.478 395.321 192.695 396.886 192.695H404.538C406.103 192.695 407.147 191.478 407.147 190.087V174.956ZM404.538 174.956V190.087H396.886V174.956H404.538ZM423.319 172.348C424.711 172.348 425.928 173.565 425.928 174.956V190.087C425.928 191.478 424.885 192.695 423.319 192.695H415.667C414.102 192.695 413.059 191.478 413.059 190.087V174.956C413.059 173.565 414.276 172.348 415.667 172.348H423.319ZM423.319 190.087V174.956H415.667V190.087H423.319ZM444.713 174.956C444.713 173.565 443.496 172.348 442.105 172.348H434.452C433.061 172.348 431.844 173.565 431.844 174.956V190.087C431.844 191.478 432.887 192.695 434.452 192.695H442.105C443.67 192.695 444.713 191.478 444.713 190.087V174.956ZM442.105 174.956V190.087H434.452V174.956H442.105ZM96.1906 247.827H95.1471V253.219H93.9297V241.566H95.1471V246.784H96.1906L99.4949 241.566H100.886L97.234 247.132L101.234 253.219H99.6688L96.1906 247.827ZM105.579 249.912H109.405L110.449 253.043H111.666L108.188 241.391H106.797L103.492 253.043H104.71L105.579 249.912ZM109.057 248.695H105.927L107.318 243.304H107.492L109.057 248.695ZM114.277 241.566H121.93V244.523H120.886V242.784H118.799V252.001H120.19V253.219H115.843V252.001H117.408V242.784H115.321V244.523H114.277V241.566ZM131.843 241.566H125.93V253.219H132.017V252.001H127.147V247.827H131.495V246.61H127.147V242.784H131.843V241.566ZM136.972 241.653L136.972 241.653C137.189 241.61 137.407 241.566 137.581 241.566H138.972C139.494 241.566 139.842 241.566 140.189 241.74L141.233 242.262C141.581 242.436 141.755 242.784 141.928 243.306C142.102 243.653 142.276 244.175 142.276 244.871C142.276 245.392 142.276 245.74 142.102 246.088L142.102 246.088C141.928 246.436 141.755 246.784 141.581 246.958C141.523 247.016 141.465 247.093 141.407 247.17C141.291 247.325 141.175 247.479 141.059 247.479L141.059 247.48C140.885 247.653 140.711 247.827 140.537 247.827L143.146 253.393H141.755L139.32 248.349H137.581V253.393H136.363V241.74C136.537 241.74 136.755 241.697 136.972 241.653ZM138.972 242.61H138.624H138.276H137.928H137.581V246.958H138.624C139.32 246.958 139.842 246.784 140.189 246.436C140.537 246.088 140.885 245.393 140.885 244.697C140.885 244.175 140.711 243.653 140.363 243.306C140.015 242.784 139.494 242.61 138.972 242.61ZM153.234 241.566H146.277V242.784H149.06V252.001H146.277V253.219H153.234V252.001H150.277V242.784H153.234V241.566ZM158.798 245.914L158.102 244.175L158.276 245.914V253.219H157.059V241.566H157.928L161.928 248.871L162.624 250.436L162.45 248.871V241.566H163.667V253.219H162.798L158.798 245.914ZM168.887 249.912H172.887L173.757 253.043H174.974L171.496 241.391H170.105L166.8 253.043H168.018L168.887 249.912ZM172.366 248.695H169.235L170.626 243.304H170.8L172.366 248.695ZM194.276 242.782C194.189 242.782 194.102 242.738 194.015 242.695C193.928 242.652 193.841 242.608 193.754 242.608H193.059C192.711 242.608 192.189 242.608 191.841 242.782C191.493 242.956 191.145 243.304 190.798 243.651L190.798 243.652C190.45 243.999 190.276 244.521 190.102 245.043C189.928 245.565 189.754 246.434 189.754 247.304V247.304C189.754 248.173 189.754 248.869 189.928 249.391C190.102 249.912 190.276 250.434 190.624 250.956L190.624 250.956C190.972 251.304 191.319 251.652 191.667 251.825C192.015 251.999 192.537 252.173 193.059 252.173H193.754C193.841 252.173 193.928 252.13 194.015 252.086C194.102 252.043 194.189 251.999 194.276 251.999V250.26H195.319V252.521C195.145 252.608 194.972 252.738 194.798 252.869C194.624 252.999 194.45 253.13 194.276 253.217C193.754 253.391 193.232 253.391 192.711 253.391C192.189 253.391 191.493 253.217 190.972 253.043C190.45 252.869 189.928 252.521 189.58 251.999C189.232 251.478 188.885 250.956 188.711 250.086C188.537 249.391 188.363 248.347 188.363 247.478C188.363 246.434 188.537 245.391 188.711 244.695C188.885 243.999 189.232 243.304 189.58 242.782C189.928 242.26 190.45 241.912 190.972 241.738L190.972 241.738C191.493 241.565 192.015 241.391 192.711 241.391H193.58C193.754 241.391 194.102 241.391 194.276 241.565C194.363 241.565 194.45 241.608 194.537 241.652C194.624 241.695 194.711 241.738 194.798 241.738C194.972 241.738 195.145 241.912 195.145 242.086V244.695H194.102V242.782H194.276ZM200.362 247.827H204.884V253.219H206.101V241.566H204.884V246.61H200.362V241.566H199.145V253.219H200.362V247.827ZM210.453 241.566H216.366V242.784H211.671V246.61H216.018V247.827H211.671V252.001H216.54V253.219H210.453V241.566ZM221.495 241.653C221.278 241.697 221.061 241.74 220.887 241.74V253.393H222.104V248.349H223.843L226.278 253.393H227.669L225.061 247.827C225.235 247.827 225.408 247.653 225.582 247.48L225.582 247.479C225.698 247.479 225.814 247.325 225.93 247.17C225.988 247.093 226.046 247.016 226.104 246.958C226.278 246.784 226.452 246.436 226.626 246.088C226.8 245.74 226.8 245.392 226.8 244.871C226.8 244.175 226.626 243.653 226.452 243.306C226.278 242.784 226.104 242.436 225.756 242.262L224.713 241.74C224.365 241.566 224.017 241.566 223.495 241.566H222.104C221.93 241.566 221.713 241.61 221.496 241.653L221.495 241.653ZM223.148 242.61H223.495C224.017 242.61 224.539 242.784 224.887 243.306C225.235 243.653 225.408 244.175 225.408 244.697C225.408 245.393 225.061 246.088 224.713 246.436C224.365 246.784 223.843 246.958 223.148 246.958H222.104V242.61H222.452H222.8H223.148ZM233.581 247.827H232.538V253.219H231.32V241.566H232.538V246.784H233.581L236.886 241.566H238.277L234.625 247.132L238.625 253.219H237.059L233.581 247.827ZM242.973 249.912H246.799L247.843 253.043H249.06L245.582 241.391H244.191L240.886 253.043H242.104L242.973 249.912ZM246.452 248.695H243.321L244.712 243.304H244.886L246.452 248.695ZM254.278 251.999C254.626 252.173 254.974 252.173 255.321 252.173C255.669 252.173 256.017 252.173 256.191 251.999C256.539 251.999 256.713 251.825 256.887 251.652L257.408 251.13C257.582 250.956 257.582 250.608 257.582 250.26C257.582 249.738 257.408 249.391 257.234 249.217C256.887 248.869 256.713 248.695 256.191 248.521C256.017 248.434 255.8 248.304 255.583 248.173L255.582 248.173L255.582 248.173C255.365 248.043 255.147 247.912 254.974 247.825C254.646 247.716 254.387 247.539 254.154 247.378C254.015 247.283 253.886 247.195 253.756 247.13L252.713 246.086C252.365 245.738 252.365 245.217 252.365 244.521C252.365 243.999 252.365 243.652 252.539 243.304C252.713 242.956 252.887 242.608 253.234 242.434C253.35 242.376 253.466 242.299 253.582 242.222C253.814 242.067 254.046 241.912 254.278 241.912C254.626 241.738 255.148 241.738 255.669 241.738C256.191 241.738 256.713 241.738 257.234 241.912C257.434 241.979 257.608 242.02 257.756 242.055C257.997 242.112 258.17 242.153 258.278 242.26V244.869H257.234V243.13C257.162 243.13 257.061 243.1 256.941 243.065C256.772 243.016 256.569 242.956 256.365 242.956H255.495H255.495C255.147 242.956 254.974 242.956 254.626 243.13C254.539 243.217 254.408 243.26 254.278 243.304C254.148 243.347 254.017 243.391 253.93 243.478C253.756 243.652 253.582 243.825 253.582 243.999C253.408 244.173 253.408 244.347 253.408 244.695C253.408 245.043 253.582 245.565 253.756 245.738L253.756 245.739C254.104 246.086 254.278 246.26 254.8 246.434C254.974 246.521 255.191 246.651 255.408 246.782L255.408 246.782C255.626 246.912 255.843 247.043 256.017 247.13C256.345 247.239 256.604 247.417 256.837 247.577C256.975 247.672 257.105 247.761 257.234 247.825L258.278 248.869C258.626 249.217 258.626 249.738 258.626 250.434C258.626 250.956 258.626 251.304 258.452 251.825L258.452 251.826C258.278 252.173 258.104 252.521 257.756 252.869C257.408 253.217 257.061 253.391 256.713 253.565C256.365 253.738 255.843 253.738 255.321 253.738C254.974 253.738 254.626 253.738 254.278 253.565C254.074 253.565 253.87 253.505 253.702 253.455C253.582 253.421 253.48 253.391 253.408 253.391C253.276 253.324 253.168 253.283 253.076 253.248C252.928 253.191 252.82 253.15 252.713 253.043C252.626 252.956 252.539 252.912 252.452 252.869C252.365 252.825 252.278 252.782 252.191 252.695V250.086H253.234V251.478L254.278 251.999ZM264.884 251.999L263.84 251.477V250.086H262.797V252.695C262.884 252.782 262.971 252.825 263.058 252.869C263.145 252.912 263.232 252.956 263.319 253.043C263.426 253.15 263.534 253.191 263.682 253.248L263.682 253.248L263.682 253.248C263.774 253.283 263.882 253.324 264.014 253.39C264.086 253.39 264.188 253.42 264.308 253.455C264.476 253.505 264.68 253.564 264.884 253.564C265.232 253.738 265.579 253.738 265.927 253.738C266.449 253.738 266.971 253.738 267.319 253.564C267.666 253.39 268.014 253.217 268.362 252.869C268.71 252.521 268.884 252.173 269.058 251.825C269.232 251.304 269.232 250.956 269.232 250.434V250.434C269.232 249.738 269.232 249.217 268.884 248.869L267.84 247.825C267.711 247.76 267.581 247.672 267.443 247.577C267.209 247.416 266.95 247.239 266.623 247.13C266.449 247.043 266.232 246.912 266.014 246.782C265.797 246.651 265.579 246.521 265.406 246.434C264.884 246.26 264.71 246.086 264.362 245.738L264.362 245.738C264.188 245.564 264.014 245.043 264.014 244.695C264.014 244.347 264.014 244.173 264.188 243.999C264.188 243.825 264.362 243.651 264.536 243.477C264.623 243.39 264.753 243.347 264.884 243.303C265.014 243.26 265.145 243.217 265.232 243.13C265.579 242.956 265.753 242.956 266.101 242.956H266.101H266.971C267.175 242.956 267.378 243.015 267.547 243.065C267.666 243.1 267.768 243.13 267.84 243.13V244.869H268.884V242.26C268.776 242.153 268.602 242.111 268.362 242.055C268.214 242.02 268.04 241.979 267.84 241.912C267.319 241.738 266.797 241.738 266.275 241.738C265.753 241.738 265.232 241.738 264.884 241.912C264.652 241.912 264.42 242.067 264.188 242.221C264.072 242.299 263.956 242.376 263.84 242.434C263.493 242.608 263.319 242.956 263.145 243.303C262.971 243.651 262.971 243.999 262.971 244.521V244.521C262.971 245.217 262.971 245.738 263.319 246.086L264.362 247.13C264.492 247.194 264.621 247.283 264.76 247.378C264.993 247.538 265.252 247.716 265.579 247.825C265.753 247.912 265.971 248.042 266.188 248.173L266.188 248.173L266.189 248.173C266.406 248.304 266.623 248.434 266.797 248.521C267.319 248.695 267.493 248.869 267.84 249.217C268.014 249.39 268.188 249.738 268.188 250.26C268.188 250.608 268.188 250.956 268.014 251.13L267.493 251.651C267.319 251.825 267.145 251.999 266.797 251.999C266.623 252.173 266.275 252.173 265.927 252.173C265.579 252.173 265.232 252.173 264.884 251.999ZM275.843 247.827H274.799V253.219H273.582V241.566H274.799V246.784H275.843L279.147 241.566H280.539L276.886 247.132L280.886 253.219H279.321L275.843 247.827ZM284.366 253.043L285.235 249.912H289.061L290.105 253.043H291.322L287.844 241.391H286.453L283.148 253.043H284.366ZM287.148 243.304L288.714 248.695H285.583L286.975 243.304H287.148ZM297.062 248.697L293.41 241.566H294.801L297.758 247.306L300.541 241.566H301.758L298.106 248.697V253.219H296.888V248.697H297.062ZM305.408 253.043L306.278 249.912H310.104L311.148 253.043H312.365L308.887 241.391H307.495L304.191 253.043H305.408ZM308.191 243.304L309.756 248.695H306.626L308.017 243.304H308.191Z" fill="url(#paint4_linear)" fill-opacity="0.3"/>
<path d="M238.802 228C238.802 229.913 239.15 233.913 235.498 233.913C232.019 233.913 232.193 229.913 232.193 228C232.193 225.217 232.019 222.087 235.498 222.087C239.324 221.913 238.802 226.608 238.802 228ZM233.585 228C233.585 232.522 234.454 232.869 235.672 232.869C237.063 232.869 237.759 232.348 237.759 228C237.759 223.478 237.063 223.13 235.672 223.13C233.411 223.13 233.585 225.565 233.585 228Z" fill="#42358F" fill-opacity="0.68"/>
<path d="M242.454 222.086H248.367V223.129H243.671V226.608C244.193 226.434 244.715 226.26 245.41 226.26C247.149 226.26 248.541 227.477 248.541 229.39C248.541 230.956 247.671 232.173 246.454 232.869C245.584 233.39 244.367 233.738 242.106 233.738V232.695C243.497 232.695 244.715 232.695 245.41 232.173C246.454 231.651 247.149 230.608 247.149 229.39C247.149 228.173 246.28 227.477 245.062 227.477C244.367 227.477 243.845 227.825 243.149 227.999H242.28V222.086H242.454Z" fill="#42358F" fill-opacity="0.68"/>
<path d="M250.106 234.087L255.324 220.695H256.193L250.976 234.087H250.106Z" fill="#42358F" fill-opacity="0.68"/>
<path d="M259.672 223.479L257.585 224.349L257.237 223.305L260.889 221.914V232.697H263.324V233.74H256.715V232.697H259.672V223.479Z" fill="#42358F" fill-opacity="0.68"/>
<path d="M271.845 223.13H267.149V222.087H273.584L268.367 233.913L267.323 233.391L271.845 223.13Z" fill="#42358F" fill-opacity="0.68"/>
</g>
<path fill-rule="evenodd" clip-rule="evenodd" d="M391.13 256.346L403.304 227.303H395.478L387.652 247.129L384.522 230.26C384.174 228.346 382.609 227.303 381.043 227.303H368.174L368 228.173C370.609 228.694 373.739 229.564 375.478 230.607C376.522 231.303 376.87 231.825 377.217 233.216L383.13 256.346H391.13ZM427.508 238.539C430.572 240.142 434.435 242.164 434.435 246.781C434.435 252.868 429.217 256.694 421.391 256.694C418.087 256.694 414.783 255.999 413.043 255.129L414.435 248.694C416.174 249.564 418.261 250.607 422.087 250.607C424.348 250.607 426.609 249.738 426.609 247.825C426.609 246.433 425.739 245.564 422.783 244.173C419.826 242.781 416.174 240.52 416.174 236.346C416.174 230.781 421.391 226.781 428.87 226.781C431.652 226.781 434.087 227.303 435.826 227.999L434.435 234.086C430.957 232.694 428 232.694 426.957 232.868C424.87 233.216 423.826 234.26 423.826 235.303C423.826 236.613 425.494 237.486 427.508 238.539ZM461.044 256.346H454.087L453.043 251.999H443.478L441.913 256.346H434.087L445.391 229.39C445.913 228.173 447.13 227.303 448.522 227.303H454.957L461.044 256.346ZM449.565 234.955L445.565 245.912H451.826L449.565 234.955ZM407.826 256.346L414.087 227.303H406.609L400.348 256.346H407.826ZM408.855 271.484C409.402 271.062 409.676 270.475 409.676 269.721C409.676 269.135 409.506 268.658 409.166 268.291C408.83 267.924 408.213 267.58 407.314 267.26C406.779 267.068 406.381 266.895 406.119 266.738C405.861 266.578 405.678 266.404 405.568 266.217C405.459 266.025 405.404 265.781 405.404 265.484C405.404 265.082 405.553 264.768 405.849 264.541C406.146 264.314 406.558 264.201 407.086 264.201C407.754 264.201 408.441 264.35 409.148 264.646L409.459 263.779C408.744 263.467 407.961 263.311 407.109 263.311C406.293 263.311 405.637 263.506 405.14 263.896C404.644 264.287 404.396 264.812 404.396 265.473C404.396 266.102 404.566 266.611 404.906 267.002C405.25 267.393 405.82 267.73 406.617 268.016C407.187 268.219 407.611 268.4 407.889 268.561C408.17 268.721 408.369 268.896 408.486 269.088C408.607 269.275 408.668 269.518 408.668 269.814C408.668 270.264 408.5 270.615 408.164 270.869C407.828 271.119 407.328 271.244 406.664 271.244C406.258 271.244 405.848 271.201 405.433 271.115C405.019 271.029 404.637 270.912 404.285 270.764V271.725C404.832 271.986 405.613 272.117 406.629 272.117C407.566 272.117 408.308 271.906 408.855 271.484ZM411.761 272H412.734V265.578H411.761V272ZM411.843 263.352C411.734 263.453 411.679 263.615 411.679 263.838C411.679 264.057 411.734 264.221 411.843 264.33C411.953 264.436 412.089 264.488 412.253 264.488C412.41 264.488 412.544 264.436 412.658 264.33C412.771 264.221 412.828 264.057 412.828 263.838C412.828 263.619 412.771 263.457 412.658 263.352C412.544 263.246 412.41 263.193 412.253 263.193C412.089 263.193 411.953 263.246 411.843 263.352ZM420.532 266.193V265.578H418.311C418.042 265.5 417.739 265.461 417.403 265.461C416.63 265.461 416.032 265.652 415.61 266.035C415.188 266.414 414.977 266.955 414.977 267.658C414.977 268.08 415.081 268.455 415.288 268.783C415.499 269.111 415.77 269.344 416.102 269.48C415.833 269.645 415.636 269.814 415.511 269.99C415.386 270.166 415.323 270.371 415.323 270.605C415.323 270.812 415.378 270.994 415.487 271.15C415.6 271.307 415.739 271.422 415.903 271.496C415.45 271.598 415.099 271.791 414.849 272.076C414.599 272.361 414.474 272.699 414.474 273.09C414.474 273.66 414.7 274.102 415.153 274.414C415.61 274.727 416.259 274.883 417.099 274.883C418.192 274.883 419.024 274.695 419.595 274.32C420.165 273.949 420.45 273.408 420.45 272.697C420.45 272.139 420.263 271.713 419.888 271.42C419.517 271.127 418.983 270.98 418.288 270.98H417.151C416.8 270.98 416.552 270.939 416.407 270.857C416.263 270.771 416.19 270.641 416.19 270.465C416.19 270.133 416.397 269.857 416.811 269.639C416.979 269.67 417.159 269.686 417.35 269.686C418.1 269.686 418.69 269.498 419.12 269.123C419.55 268.748 419.765 268.246 419.765 267.617C419.765 267.34 419.722 267.092 419.636 266.873C419.55 266.65 419.452 266.471 419.343 266.334L420.532 266.193ZM415.85 273.869C415.558 273.689 415.411 273.426 415.411 273.078C415.411 272.684 415.534 272.381 415.78 272.17C416.026 271.959 416.37 271.854 416.811 271.854H417.977C418.571 271.854 418.975 271.92 419.19 272.053C419.405 272.189 419.513 272.432 419.513 272.779C419.513 273.197 419.315 273.527 418.921 273.77C418.53 274.016 417.927 274.139 417.11 274.139C416.563 274.139 416.143 274.049 415.85 273.869ZM416.319 268.654C416.065 268.424 415.938 268.084 415.938 267.635C415.938 267.15 416.061 266.785 416.308 266.539C416.554 266.293 416.905 266.17 417.362 266.17C418.323 266.17 418.804 266.652 418.804 267.617C418.804 268.539 418.329 269 417.38 269C416.927 269 416.573 268.885 416.319 268.654ZM426.725 267.846V272H427.698V267.811C427.698 266.99 427.502 266.395 427.112 266.023C426.721 265.648 426.139 265.461 425.366 265.461C424.924 265.461 424.524 265.549 424.164 265.725C423.805 265.896 423.526 266.141 423.327 266.457H423.28L423.122 265.578H422.33V272H423.303V268.631C423.303 267.795 423.459 267.195 423.772 266.832C424.084 266.469 424.577 266.287 425.248 266.287C425.756 266.287 426.129 266.416 426.368 266.674C426.606 266.932 426.725 267.322 426.725 267.846ZM433.937 271.086L434.131 272H434.852V267.617C434.852 266.867 434.666 266.322 434.295 265.982C433.928 265.643 433.361 265.473 432.596 265.473C432.217 265.473 431.838 265.521 431.459 265.619C431.084 265.717 430.738 265.852 430.422 266.023L430.721 266.768C431.396 266.439 432.002 266.275 432.537 266.275C433.014 266.275 433.359 266.396 433.574 266.639C433.793 266.877 433.902 267.248 433.902 267.752V268.15L432.812 268.186C430.738 268.248 429.701 268.928 429.701 270.225C429.701 270.83 429.881 271.297 430.24 271.625C430.603 271.953 431.103 272.117 431.74 272.117C432.217 272.117 432.613 272.047 432.93 271.906C433.25 271.762 433.57 271.488 433.891 271.086H433.937ZM433.357 270.816C433.014 271.148 432.539 271.314 431.934 271.314C431.551 271.314 431.252 271.223 431.037 271.039C430.826 270.855 430.721 270.588 430.721 270.236C430.721 269.787 430.891 269.457 431.23 269.246C431.574 269.031 432.133 268.91 432.906 268.883L433.879 268.842V269.422C433.879 270.02 433.705 270.484 433.357 270.816ZM439.914 271.279C439.753 271.303 439.587 271.314 439.415 271.314C439.095 271.314 438.843 271.211 438.66 271.004C438.476 270.797 438.384 270.5 438.384 270.113V266.334H440.248V265.578H438.384V264.09H437.822L437.412 265.461L436.492 265.865V266.334H437.412V270.154C437.412 271.463 438.033 272.117 439.275 272.117C439.439 272.117 439.623 272.1 439.826 272.064C440.033 272.033 440.189 271.992 440.294 271.941V271.197C440.201 271.225 440.074 271.252 439.914 271.279ZM442.978 269.744V265.578H441.993V269.779C441.993 270.596 442.187 271.189 442.573 271.561C442.964 271.932 443.55 272.117 444.331 272.117C444.784 272.117 445.187 272.033 445.538 271.865C445.894 271.697 446.171 271.455 446.37 271.139H446.423L446.563 272H447.366V265.578H446.394V268.953C446.394 269.785 446.237 270.385 445.925 270.752C445.616 271.119 445.126 271.303 444.454 271.303C443.946 271.303 443.573 271.174 443.335 270.916C443.097 270.658 442.978 270.268 442.978 269.744ZM453.612 265.531C453.385 265.484 453.129 265.461 452.844 265.461C452.442 265.461 452.073 265.574 451.737 265.801C451.401 266.027 451.114 266.35 450.875 266.768H450.829L450.717 265.578H449.915V272H450.887V268.555C450.887 267.926 451.071 267.4 451.438 266.979C451.809 266.557 452.254 266.346 452.774 266.346C452.977 266.346 453.211 266.375 453.477 266.434L453.612 265.531ZM455.756 271.25C456.307 271.828 457.057 272.117 458.006 272.117C458.439 272.117 458.809 272.084 459.113 272.018C459.422 271.955 459.748 271.85 460.092 271.701V270.834C459.416 271.123 458.732 271.268 458.041 271.268C457.385 271.268 456.875 271.072 456.512 270.682C456.152 270.291 455.963 269.719 455.943 268.965H460.367V268.35C460.367 267.482 460.133 266.785 459.664 266.258C459.195 265.727 458.559 265.461 457.754 265.461C456.895 265.461 456.209 265.766 455.697 266.375C455.189 266.984 454.936 267.807 454.936 268.842C454.936 269.869 455.209 270.672 455.756 271.25ZM456.506 266.779C456.814 266.443 457.227 266.275 457.742 266.275C458.25 266.275 458.641 266.439 458.914 266.768C459.188 267.092 459.324 267.561 459.324 268.174H455.967C456.022 267.58 456.201 267.115 456.506 266.779Z" fill="url(#paint5_linear)"/>
<path d="M98.0898 212H96.6895V204.635H94.1699V203.434H100.609V204.635H98.0898V212ZM103.808 207.418H104.781C105.433 207.418 105.906 207.297 106.199 207.055C106.492 206.812 106.638 206.453 106.638 205.977C106.638 205.492 106.48 205.145 106.164 204.934C105.847 204.723 105.371 204.617 104.734 204.617H103.808V207.418ZM103.808 208.578V212H102.408V203.434H104.828C105.933 203.434 106.751 203.641 107.283 204.055C107.814 204.469 108.08 205.094 108.08 205.93C108.08 206.996 107.525 207.756 106.416 208.209L108.835 212H107.242L105.191 208.578H103.808ZM115.878 212L115.023 209.621H111.747L110.909 212H109.433L112.638 203.398H114.161L117.366 212H115.878ZM114.653 208.414L113.851 206.082C113.792 205.926 113.71 205.68 113.605 205.344C113.503 205.008 113.433 204.762 113.394 204.605C113.288 205.086 113.134 205.611 112.931 206.182L112.157 208.414H114.653ZM123.858 203.434H125.311L122.311 212H120.835L117.846 203.434H119.288L121.075 208.76C121.169 209.014 121.268 209.342 121.374 209.744C121.479 210.143 121.547 210.439 121.579 210.635C121.629 210.338 121.708 209.994 121.813 209.604C121.919 209.213 122.004 208.924 122.071 208.736L123.858 203.434ZM131.768 212H126.922V203.434H131.768V204.617H128.322V206.949H131.551V208.121H128.322V210.811H131.768V212ZM134.105 212V203.434H135.505V210.799H139.132V212H134.105Z" fill="#751E7C"/>
</g>
<defs>
<filter id="filter0_d" x="0" y="0" width="531.38" height="373" filterUnits="userSpaceOnUse" color-interpolation-filters="sRGB">
<feFlood flood-opacity="0" result="BackgroundImageFix"/>
<feColorMatrix in="SourceAlpha" type="matrix" values="0 0 0 0 0 0 0 0 0 0 0 0 0 0 0 0 0 0 127 0"/>
<feOffset dy="32"/>
<feGaussianBlur stdDeviation="26"/>
<feColorMatrix type="matrix" values="0 0 0 0 0.273583 0 0 0 0 0.188854 0 0 0 0 0.6125 0 0 0 0.192 0"/>
<feBlend mode="normal" in2="BackgroundImageFix" result="effect1_dropShadow"/>
<feBlend mode="normal" in="SourceGraphic" in2="effect1_dropShadow" result="shape"/>
</filter>
<filter id="filter1_d" x="87.9297" y="168.348" width="362.784" height="93.3908" filterUnits="userSpaceOnUse" color-interpolation-filters="sRGB">
<feFlood flood-opacity="0" result="BackgroundImageFix"/>
<feColorMatrix in="SourceAlpha" type="matrix" values="0 0 0 0 0 0 0 0 0 0 0 0 0 0 0 0 0 0 127 0"/>
<feOffset dy="2"/>
<feGaussianBlur stdDeviation="3"/>
<feColorMatrix type="matrix" values="0 0 0 0 0 0 0 0 0 0 0 0 0 0 0 0 0 0 0.32 0"/>
<feBlend mode="normal" in2="BackgroundImageFix" result="effect1_dropShadow"/>
<feBlend mode="normal" in="SourceGraphic" in2="effect1_dropShadow" result="shape"/>
</filter>
<linearGradient id="paint0_linear" x1="52" y1="154.5" x2="479" y2="154.5" gradientUnits="userSpaceOnUse">
<stop stop-color="#010237"/>
<stop offset="0.486188" stop-color="#0F1036"/>
<stop offset="1" stop-color="#00012A"/>
</linearGradient>
<linearGradient id="paint1_linear" x1="-29.9857" y1="92.8295" x2="63.9371" y2="367.402" gradientUnits="userSpaceOnUse">
<stop offset="0.0427655" stop-color="#3E3B3B"/>
<stop offset="0.985707" stop-color="#2C2828"/>
</linearGradient>
<linearGradient id="paint2_linear" x1="54.5" y1="19" x2="454" y2="328" gradientUnits="userSpaceOnUse">
<stop stop-color="#00A8DE"/>
<stop offset="0.2" stop-color="#333391"/>
<stop offset="0.4" stop-color="#E91388"/>
<stop offset="0.6" stop-color="#EB2D2E"/>
<stop offset="0.8" stop-color="#AB9E23"/>
<stop offset="1" stop-color="#009E54"/>
</linearGradient>
<linearGradient id="paint3_linear" x1="97.5749" y1="145.61" x2="148.844" y2="145.61" gradientUnits="userSpaceOnUse">
<stop stop-color="#DBD8D5"/>
<stop offset="0.0616478" stop-color="#CBC9C8"/>
<stop offset="0.1794" stop-color="#A5A2A6"/>
<stop offset="0.264" stop-color="#88858B"/>
<stop offset="0.5225" stop-color="#F3F3F4"/>
<stop offset="0.5875" stop-color="#DFDEDF"/>
<stop offset="0.7124" stop-color="#B5B3B6"/>
<stop offset="0.8764" stop-color="#7E7A7F"/>
<stop offset="1" stop-color="#A6A8AA"/>
</linearGradient>
<linearGradient id="paint4_linear" x1="88.5" y1="172" x2="403" y2="261" gradientUnits="userSpaceOnUse">
<stop stop-color="#9A87CD"/>
<stop offset="0.380208" stop-color="#31117D" stop-opacity="0.925"/>
<stop offset="0.734375" stop-color="#AE99E7"/>
<stop offset="1" stop-color="#280D62" stop-opacity="0.3"/>
</linearGradient>
<linearGradient id="paint5_linear" x1="410.994" y1="200.072" x2="479.145" y2="230.399" gradientUnits="userSpaceOnUse">
<stop stop-color="#DBD8D5"/>
<stop offset="0.0616478" stop-color="#CBC9C8"/>
<stop offset="0.1794" stop-color="#A5A2A6"/>
<stop offset="0.264" stop-color="#88858B"/>
<stop offset="0.5225" stop-color="#F3F3F4"/>
<stop offset="0.5875" stop-color="#DFDEDF"/>
<stop offset="0.7124" stop-color="#B5B3B6"/>
<stop offset="0.8764" stop-color="#7E7A7F"/>
<stop offset="1" stop-color="#A6A8AA"/>
</linearGradient>
</defs>
</svg>
