<svg width="428" height="269" viewBox="0 0 428 269" fill="none" xmlns="http://www.w3.org/2000/svg">
<path fill-rule="evenodd" clip-rule="evenodd" d="M426.824 254.065C426.824 262.323 420.13 269 411.851 269H14.9732C6.69389 269 0 262.323 0 254.065V14.9347C0 6.67668 6.69389 0 14.9732 0H412.027C420.306 0 427 6.67668 427 14.9347V254.065H426.824Z" fill="url(#paint0_linear)"/>
<g opacity="0.8">
<mask id="mask0" mask-type="alpha" maskUnits="userSpaceOnUse" x="0" y="0" width="428" height="268">
<path d="M0 16.7456C0 7.49726 7.60698 0 16.9907 0H410.39C419.773 0 427.38 7.49726 427.38 16.7456V251.184C427.38 260.432 419.773 267.93 410.39 267.93H16.9907C7.60698 267.93 0 260.432 0 251.184V16.7456Z" fill="url(#paint1_linear)"/>
</mask>
<g mask="url(#mask0)">
<path fill-rule="evenodd" clip-rule="evenodd" d="M435.693 261.339C435.695 263.363 435.299 265.368 434.526 267.238C433.753 269.109 432.619 270.809 431.189 272.241C429.758 273.672 428.06 274.808 426.19 275.583C424.321 276.359 422.317 276.757 420.293 276.757H11.4972C9.47176 276.76 7.46578 276.363 5.5941 275.589C3.72242 274.815 2.0218 273.679 0.589629 272.247C-0.842544 270.815 -1.97814 269.114 -2.75212 267.242C-3.5261 265.371 -3.92327 263.365 -3.92089 261.339V14.5238C-3.92089 10.4346 -2.29649 6.513 0.594953 3.62155C3.4864 0.730109 7.40804 -0.894287 11.4972 -0.894287L420.293 -0.894287C424.379 -0.88948 428.296 0.737038 431.183 3.62796C434.071 6.51888 435.693 10.4378 435.693 14.5238V261.339Z" fill="url(#paint2_linear)"/>
<g opacity="0.8">
<path opacity="0.8" fill-rule="evenodd" clip-rule="evenodd" d="M302.717 -0.894287H420.293C424.379 -0.88948 428.296 0.737038 431.183 3.62796C434.071 6.51888 435.693 10.4378 435.693 14.5238V261.339C435.695 263.363 435.299 265.368 434.526 267.238C433.753 269.109 432.619 270.809 431.189 272.241C429.758 273.672 428.06 274.808 426.19 275.583C424.321 276.359 422.317 276.757 420.293 276.757H261.124C269.293 257.265 272.519 236.057 270.513 215.017C268.507 193.978 261.332 173.76 249.627 156.163C237.922 138.566 222.049 124.134 203.42 114.152C184.792 104.17 163.985 98.9464 142.85 98.9464C121.715 98.9464 100.908 104.17 82.2793 114.152C63.6505 124.134 47.7776 138.566 36.0724 156.163C24.3673 173.76 17.1927 193.978 15.1868 215.017C13.181 236.057 16.4061 257.265 24.5753 276.757H11.4972C9.47176 276.76 7.46578 276.363 5.5941 275.589C3.72242 274.815 2.0218 273.679 0.589629 272.247C-0.842544 270.815 -1.97814 269.114 -2.75212 267.242C-3.5261 265.371 -3.92327 263.365 -3.92089 261.339V14.5238C-3.92089 10.4346 -2.29649 6.513 0.594953 3.62155C3.4864 0.730109 7.40804 -0.894287 11.4972 -0.894287H268.96L278.737 29.9055L280.551 29.3614L270.865 -0.894287H277.014L286.791 29.9055L288.605 29.3614L278.919 -0.894287H285.068L297.874 39.1382H263.664L257.569 29.0167C256.736 27.6429 255.456 26.5975 253.943 26.0559C252.43 25.5142 250.777 25.5093 249.262 26.0419C249.064 26.115 248.898 26.2545 248.792 26.4365C248.686 26.6185 248.647 26.8318 248.681 27.0396L252.109 50.6201L248.681 74.2007C248.648 74.406 248.688 74.6166 248.794 74.7955C248.9 74.9745 249.065 75.1106 249.262 75.1802C250.776 75.711 252.426 75.707 253.938 75.1691C255.449 74.6311 256.731 73.5916 257.569 72.2235L263.664 62.0839H297.892L279.372 119.947C279.299 120.154 279.306 120.382 279.394 120.584C279.481 120.786 279.642 120.947 279.844 121.035C282.177 122.126 284.827 122.328 287.299 121.603C289.77 120.879 291.892 119.277 293.266 117.099L328.02 62.0839H355.991C368.706 62.0839 378.682 57.0594 378.682 50.6201C378.682 44.1808 368.688 39.1382 355.991 39.1382H328.02L302.717 -0.894287ZM234.369 74.4546L237.816 50.7471C237.834 50.6634 237.834 50.5768 237.816 50.4931L234.369 26.7675L232.556 27.0396L235.984 50.6201L232.556 74.2007L234.369 74.4546ZM242.423 74.4546L245.87 50.7471C245.888 50.6634 245.888 50.5768 245.87 50.4931L242.423 26.7675L240.609 27.0396L244.037 50.6201L240.609 74.2007L242.423 74.4546ZM263.265 119.947L264.988 120.491L280.642 71.8789L278.828 71.3166L263.265 119.947ZM286.863 71.3166L271.318 119.947L273.114 120.491L288.677 71.8789L286.863 71.3166ZM281.349 119.693C283.233 120.363 285.289 120.368 287.177 119.708C289.064 119.049 290.669 117.763 291.725 116.065L326.751 60.7779C326.833 60.6502 326.945 60.545 327.079 60.4722C327.212 60.3993 327.361 60.3609 327.513 60.3607H355.973C367.291 60.3607 376.85 55.9348 376.85 50.7108C376.85 45.4868 367.291 41.0428 355.973 41.0428H327.513C327.36 41.046 327.21 41.0092 327.076 40.936C326.942 40.8628 326.83 40.7557 326.751 40.6256L300.576 -0.894287H286.972L299.996 39.7731C300.036 39.9112 300.043 40.0565 300.018 40.198C299.993 40.3395 299.936 40.4733 299.851 40.5893C299.768 40.7041 299.659 40.7972 299.533 40.8604C299.407 40.9236 299.267 40.9551 299.125 40.9521H263.138C262.982 40.9513 262.828 40.9109 262.692 40.8348C262.555 40.7587 262.441 40.6493 262.358 40.5168L256.009 29.9418C255.458 29.0326 254.639 28.3162 253.665 27.8908C252.691 27.4654 251.609 27.3518 250.568 27.5656L253.905 50.4931C253.923 50.5768 253.923 50.6634 253.905 50.7471L250.568 73.6746C251.611 73.8867 252.694 73.7704 253.669 73.3417C254.643 72.9129 255.461 72.1928 256.009 71.2803L262.358 60.7779C262.441 60.6454 262.555 60.536 262.692 60.4598C262.828 60.3837 262.982 60.3434 263.138 60.3425H299.125C299.267 60.3454 299.406 60.3808 299.532 60.4458C299.657 60.5109 299.767 60.604 299.851 60.7179C299.935 60.8318 299.992 60.9635 300.017 61.1028C300.042 61.2422 300.035 61.3854 299.996 61.5216L281.349 119.693ZM160.365 112.546L156.302 107.104L159.277 101.789C169.21 103.085 178.954 105.563 188.299 109.172L193.523 127.311L190.947 129.125L181.787 121.869L166.605 113.707L166.333 113.616L160.365 112.546ZM214.687 276.756H189.129L196.838 253.629C196.885 253.476 196.891 253.314 196.856 253.158C196.821 253.003 196.746 252.859 196.639 252.74L188.875 244.161L182.128 233.096L186.916 225.151C186.972 225.056 187.008 224.951 187.025 224.843L187.86 220.072C187.896 219.869 187.862 219.659 187.763 219.478C187.664 219.296 187.506 219.154 187.316 219.075L179.171 215.81L176.233 210.749C176.136 210.582 175.99 210.449 175.815 210.368L166.964 206.395L155.627 203.348L148.009 197.38L134.332 182.307L127.784 168.159L130.106 160.341C130.15 160.235 130.173 160.121 130.173 160.005C130.173 159.89 130.15 159.776 130.106 159.67L123.358 146.174C123.285 146.036 123.179 145.917 123.049 145.83L111.096 137.958C110.987 137.886 110.865 137.839 110.736 137.821C110.608 137.802 110.477 137.811 110.352 137.849L100.884 140.642L103.931 136.706C104.015 136.596 104.073 136.469 104.101 136.334C104.129 136.199 104.127 136.06 104.094 135.926L102.516 129.922L109.246 122.449H119.204L128.854 130.122C128.988 130.219 129.144 130.281 129.307 130.303L140.191 131.718C140.317 131.736 140.445 131.736 140.572 131.718L150.965 128.616C151.157 128.567 151.326 128.454 151.445 128.295C151.563 128.137 151.624 127.943 151.618 127.745C151.615 127.55 151.551 127.36 151.433 127.204C151.316 127.047 151.152 126.932 150.965 126.875L139.501 123.573L143.528 117.406L149.822 112.11L156.407 120.054C156.497 120.168 156.616 120.256 156.752 120.308L165.168 123.936L171.317 127.328L161.449 129.868C161.311 129.897 161.182 129.961 161.075 130.053C160.967 130.144 160.884 130.262 160.833 130.394L156.897 139.953C156.825 140.134 156.813 140.334 156.862 140.523C156.911 140.712 157.018 140.881 157.169 141.005L170.936 152.233C171.071 152.344 171.234 152.415 171.408 152.438C171.581 152.46 171.757 152.433 171.916 152.36C172.067 152.279 172.194 152.159 172.283 152.012C172.373 151.865 172.421 151.697 172.424 151.525L172.17 138.538L180.223 139.771L201.881 150.655L192.032 158.491C191.945 158.555 191.872 158.635 191.814 158.727L181.384 175.958C181.298 176.1 181.254 176.264 181.257 176.43V187.858L178.917 188.565L175.906 183.559C175.807 183.391 175.656 183.26 175.476 183.185C175.297 183.11 175.098 183.095 174.909 183.141L160.017 186.769C159.802 186.821 159.614 186.949 159.487 187.129C159.36 187.309 159.303 187.53 159.327 187.749L160.778 199.267C160.805 199.488 160.912 199.692 161.08 199.839C161.247 199.986 161.462 200.067 161.685 200.065H167.816C167.962 200.067 168.106 200.034 168.236 199.967C168.365 199.901 168.477 199.804 168.56 199.684L170.918 196.383L173.893 197.979L173.113 205.235C173.086 205.462 173.145 205.691 173.28 205.876C173.414 206.061 173.614 206.188 173.838 206.232L180.568 207.575L181.856 215.102C181.879 215.226 181.928 215.343 182 215.446C182.072 215.549 182.165 215.636 182.273 215.701C182.376 215.77 182.491 215.817 182.613 215.839C182.735 215.861 182.86 215.857 182.98 215.828L188.331 214.413C188.417 214.395 188.498 214.358 188.567 214.304L196.911 209.207L211.821 214.649L225.988 222.539V229.323C225.988 229.564 226.083 229.794 226.253 229.964C226.423 230.134 226.654 230.23 226.895 230.23H234.567L244.435 234.765L247.228 242.02L240.118 251.598L233.007 266.653L221.652 268.811C221.451 268.848 221.27 268.958 221.145 269.12L214.687 276.756ZM26.5326 276.758C19.8448 261.1 16.4016 244.248 16.4112 227.221C16.4364 206.959 21.3341 187 30.6912 169.028C40.0482 151.056 53.5902 135.597 70.1748 123.957L79.3712 123.068L87.3523 125.281H87.6062L102.462 124.156C102.659 124.143 102.847 124.065 102.995 123.933C103.143 123.802 103.242 123.625 103.278 123.431L105.292 113.037C105.318 112.915 105.319 112.79 105.294 112.668C105.269 112.546 105.219 112.431 105.147 112.33L101.845 107.668C115.059 103.118 128.937 100.795 142.912 100.793C147.761 100.801 152.606 101.086 157.423 101.646L154.502 106.706C154.405 106.855 154.353 107.028 154.353 107.205C154.353 107.383 154.405 107.556 154.502 107.704L159.146 113.962C159.281 114.146 159.483 114.27 159.708 114.307L165.894 115.413L180.804 123.412L190.363 130.994C190.523 131.121 190.721 131.191 190.925 131.194C191.113 131.193 191.296 131.136 191.451 131.031L195.079 128.509C195.237 128.402 195.357 128.248 195.422 128.069C195.487 127.89 195.494 127.695 195.442 127.512L190.435 110.117C205.972 116.434 220.096 125.782 231.984 137.614C243.871 149.446 253.284 163.526 259.674 179.033C266.065 194.54 269.304 211.164 269.204 227.936C269.104 244.708 265.666 261.292 259.091 276.722H217.081L222.324 270.501L233.824 268.306C233.966 268.28 234.099 268.221 234.213 268.132C234.327 268.044 234.417 267.929 234.477 267.798L241.732 252.507L248.988 242.657C249.077 242.536 249.133 242.394 249.152 242.245C249.171 242.096 249.152 241.945 249.097 241.805L246.013 233.642C245.927 233.423 245.757 233.247 245.541 233.153L235.13 228.364C235.01 228.337 234.886 228.337 234.767 228.364H227.802V221.961C227.8 221.798 227.756 221.639 227.673 221.498C227.59 221.358 227.472 221.243 227.33 221.163L212.583 212.946L197.129 207.323C197.004 207.264 196.868 207.234 196.73 207.234C196.592 207.234 196.456 207.264 196.331 207.323L187.733 212.583L183.488 213.708L182.255 206.452C182.219 206.273 182.131 206.109 182.002 205.98C181.873 205.85 181.708 205.762 181.529 205.727L175.036 204.475L175.797 197.437C175.813 197.255 175.774 197.072 175.687 196.911C175.6 196.75 175.468 196.618 175.308 196.53L171.099 194.281C170.904 194.18 170.678 194.154 170.464 194.207C170.251 194.261 170.064 194.39 169.939 194.571L167.399 198.199H162.483L161.268 188.259L174.727 184.958L177.756 190C177.861 190.175 178.022 190.31 178.213 190.383C178.404 190.455 178.614 190.461 178.808 190.399L182.436 189.293C182.618 189.23 182.777 189.113 182.89 188.957C183.004 188.801 183.067 188.615 183.071 188.422V176.577L193.247 159.799L204.13 151.183C204.247 151.088 204.338 150.965 204.395 150.825C204.452 150.686 204.473 150.535 204.457 150.385C204.44 150.233 204.387 150.088 204.301 149.962C204.216 149.835 204.101 149.732 203.967 149.659L180.913 138.141C180.828 138.095 180.736 138.064 180.641 138.05L171.372 136.654C171.241 136.632 171.106 136.638 170.978 136.672C170.85 136.707 170.73 136.769 170.628 136.853C170.529 136.943 170.451 137.052 170.398 137.174C170.345 137.296 170.318 137.428 170.319 137.561L170.573 149.659L158.838 140.155L162.338 131.629L173.984 128.655C174.159 128.609 174.316 128.513 174.436 128.377C174.556 128.241 174.633 128.073 174.656 127.894C174.68 127.714 174.649 127.532 174.568 127.37C174.487 127.208 174.359 127.074 174.201 126.986L165.966 122.451L157.677 118.823L150.476 110.298C150.399 110.205 150.304 110.129 150.198 110.074C150.091 110.018 149.974 109.984 149.854 109.974C149.735 109.964 149.614 109.978 149.499 110.015C149.385 110.052 149.279 110.111 149.188 110.189L142.095 116.157C142.026 116.214 141.965 116.282 141.914 116.356L137.143 123.612C137.077 123.734 137.042 123.872 137.042 124.011C137.042 124.15 137.077 124.288 137.143 124.41C137.191 124.545 137.27 124.667 137.374 124.764C137.478 124.862 137.604 124.934 137.742 124.972L147.41 127.766L140.155 129.924L129.634 128.582L119.984 120.873C119.829 120.738 119.628 120.667 119.422 120.673H108.738C108.612 120.675 108.488 120.701 108.373 120.751C108.258 120.801 108.154 120.873 108.067 120.964L100.811 129.126C100.712 129.238 100.641 129.373 100.607 129.518C100.572 129.664 100.574 129.816 100.612 129.961L102.19 135.983L97.6733 141.823C97.5571 141.978 97.4942 142.165 97.4942 142.358C97.4942 142.552 97.5571 142.739 97.6733 142.894C97.7767 143.055 97.9314 143.176 98.1124 143.239C98.2934 143.301 98.4901 143.301 98.6709 143.238L110.352 139.701L121.961 147.211L128.437 160.162L126.006 167.961C125.925 168.172 125.925 168.404 126.006 168.614L132.736 183.234C132.78 183.314 132.835 183.387 132.899 183.452L146.775 198.743L154.647 204.928C154.747 205.001 154.857 205.056 154.974 205.092L166.365 208.121L174.818 211.948L177.756 217.027C177.856 217.209 178.017 217.35 178.21 217.426L185.955 220.528L185.266 224.41L180.296 232.699C180.207 232.84 180.16 233.004 180.16 233.171C180.16 233.338 180.207 233.501 180.296 233.642L187.424 245.287L194.934 253.613L187.243 276.758H26.5326ZM191.76 198.943H199.342V197.201H191.923L184.214 194.172L183.543 195.859L191.415 198.943C191.529 198.962 191.646 198.962 191.76 198.943ZM79.5541 121.235C79.4461 121.216 79.3357 121.216 79.2276 121.235L73.1148 121.87C81.4944 116.293 90.5136 111.744 99.9785 108.32L103.37 113.108L101.557 122.45L87.5534 123.448L79.5541 121.235Z" fill="#00005B"/>
</g>
</g>
</g>
<path fill-rule="evenodd" clip-rule="evenodd" d="M91.8429 148.176H50.6255C47.8429 148.176 45.582 145.568 45.582 142.437V108.872C45.582 105.742 47.8429 103.133 50.6255 103.133H91.8429C94.6255 103.133 96.8864 105.742 96.8864 108.872V142.437C96.8864 145.568 94.6255 148.176 91.8429 148.176Z" fill="url(#paint3_linear)" stroke="#00002F" stroke-width="0.4" stroke-miterlimit="2.6131"/>
<path d="M63.8429 125.218H45.582" stroke="#00002F" stroke-width="0.4" stroke-miterlimit="2.6131" stroke-linejoin="round"/>
<path d="M96.8864 125.218H78.6255" stroke="#00002F" stroke-width="0.4" stroke-miterlimit="2.6131" stroke-linejoin="round"/>
<path d="M63.1472 135.305H45.582" stroke="#00002F" stroke-width="0.4" stroke-miterlimit="2.6131" stroke-linejoin="round"/>
<path d="M96.8876 135.305H79.1484" stroke="#00002F" stroke-width="0.4" stroke-miterlimit="2.6131" stroke-linejoin="round"/>
<path d="M63.1472 115.133H45.582" stroke="#00002F" stroke-width="0.4" stroke-miterlimit="2.6131" stroke-linejoin="round"/>
<path d="M70.1046 147.651V145.391H51.8438V147.651" stroke="#00002F" stroke-width="0.4" stroke-miterlimit="2.6131" stroke-linejoin="round"/>
<path d="M95.8397 145.391H72.1875V147.651" stroke="#00002F" stroke-width="0.4" stroke-miterlimit="2.6131" stroke-linejoin="round"/>
<path d="M63.8414 125.218C63.8414 126.435 62.7979 127.653 62.7979 127.653C61.7544 128.349 61.9284 129.566 61.9284 129.566C61.9284 129.566 62.2762 132.522 62.2762 133.044C62.4501 133.566 62.624 134.609 63.4936 135.827C64.3631 137.044 66.9718 136.87 66.9718 136.87H71.1457" stroke="#00002F" stroke-width="0.4" stroke-miterlimit="2.6131" stroke-linejoin="round"/>
<path d="M71.1479 137.046H75.3219C75.3219 137.046 77.7566 137.046 78.8001 136.003C79.6697 134.785 79.8436 133.742 80.0175 133.22C80.1914 132.698 80.3653 129.742 80.3653 129.742C80.3653 129.742 80.5393 128.524 79.4958 127.829C79.4958 127.829 78.4523 126.611 78.4523 125.394" stroke="#00002F" stroke-width="0.4" stroke-miterlimit="2.6131" stroke-linejoin="round"/>
<path d="M71.1457 113.392H66.9718C66.9718 113.392 64.537 113.218 63.4936 114.435C62.624 115.653 62.2762 116.696 62.2762 117.218C62.1023 117.74 61.9284 120.696 61.9284 120.696C61.9284 120.696 61.7544 121.914 62.7979 122.609C62.7979 122.609 63.8414 123.827 63.8414 125.044" stroke="#00002F" stroke-width="0.4" stroke-miterlimit="2.6131" stroke-linejoin="round"/>
<path d="M96.8854 115.13H79.3202C79.8419 116.173 80.0158 116.869 80.1897 117.39C80.3636 117.912 80.5376 120.869 80.5376 120.869C80.5376 120.869 80.7115 122.086 79.668 122.782C79.668 122.782 78.6245 123.999 78.6245 125.216" stroke="#00002F" stroke-width="0.4" stroke-miterlimit="2.6131" stroke-linejoin="round"/>
<path d="M66.7969 105.043V109.391C66.7969 109.391 66.7969 110.782 67.3186 111.826C68.0143 112.869 69.2317 113.391 69.2317 113.391H71.1447" stroke="#00002F" stroke-width="0.4" stroke-miterlimit="2.6131" stroke-linejoin="round"/>
<path d="M71.1484 113.391H73.0615C73.0615 113.391 74.4528 112.869 74.9745 111.826C75.4963 110.782 75.4963 109.391 75.4963 109.391V105.043" stroke="#00002F" stroke-width="0.4" stroke-miterlimit="2.6131" stroke-linejoin="round"/>
<path d="M63.8444 136.176C63.8444 136.176 62.8009 139.48 62.627 140.35C62.4531 141.219 62.627 141.741 63.4966 142.437C64.3661 143.306 64.714 144.35 64.714 145.393" stroke="#00002F" stroke-width="0.4" stroke-miterlimit="2.6131" stroke-linejoin="round"/>
<path d="M77.7578 145.393C77.7578 144.524 78.1056 143.306 78.9752 142.437C79.8448 141.567 80.0187 141.219 79.8448 140.35C79.6709 139.48 78.6274 136.176 78.6274 136.176" stroke="#00002F" stroke-width="0.4" stroke-miterlimit="2.6131" stroke-linejoin="round"/>
<path d="M49.7539 135.305V147.653" stroke="#00002F" stroke-width="0.4" stroke-miterlimit="2.6131" stroke-linejoin="round"/>
<path d="M72.1897 102.609V105.044H95.8419M46.6245 105.044H70.2767V102.609L46.6245 105.044Z" stroke="#00002F" stroke-width="0.4" stroke-miterlimit="2.6131" stroke-linejoin="round"/>
<g opacity="0.8">
<path d="M402.277 51.4785C403.146 52.0002 404.364 51.6524 404.885 50.7829C407.668 45.7394 409.233 40.1741 409.233 34.435C409.233 28.6959 407.842 23.1307 404.885 18.2611C404.364 17.3915 403.146 17.0437 402.277 17.5655C401.407 18.0872 401.059 19.3046 401.581 20.1741C404.016 24.522 405.407 29.3915 405.407 34.435C405.407 39.4785 404.016 44.522 401.581 48.8698C401.059 49.7394 401.407 50.9568 402.277 51.4785Z" fill="white"/>
<path d="M395.671 47.6507C396.541 48.1724 397.758 47.8246 398.28 46.955C400.541 43.129 401.758 38.7812 401.758 34.2594C401.758 29.9116 400.541 25.5637 398.454 21.7377C397.932 20.8681 396.715 20.5203 395.845 21.042C394.976 21.5638 394.628 22.7811 395.15 23.6507C397.063 26.9551 397.932 30.6072 397.932 34.2594C397.932 38.0855 396.889 41.7376 394.976 45.042C394.454 46.0855 394.802 47.129 395.671 47.6507Z" fill="white"/>
<path d="M389.06 44.3486C389.929 44.8703 391.147 44.6964 391.668 43.8268C393.408 41.0442 394.451 37.7398 394.451 34.4355C394.451 31.1311 393.582 28.0007 391.842 25.2181C391.321 24.3486 390.103 24.0007 389.234 24.5225C388.364 25.0442 388.016 26.2616 388.538 27.1312C389.929 29.2181 390.625 31.8268 390.625 34.2616C390.625 36.8703 389.929 39.479 388.538 41.5659C387.842 42.6094 388.19 43.8268 389.06 44.3486Z" fill="white"/>
<path d="M382.801 41.0437C383.67 41.7394 384.887 41.3915 385.409 40.522C386.801 38.6089 387.496 36.522 387.496 34.2611C387.496 32.1742 386.801 30.0872 385.583 28.1742C385.061 27.3046 383.844 27.1307 382.974 27.6524C382.105 28.1742 381.931 29.3915 382.453 30.2611C383.148 31.4785 383.67 32.6959 383.67 34.0872C383.67 35.4785 383.148 36.8698 382.453 38.0872C381.757 39.1307 381.931 40.3481 382.801 41.0437Z" fill="white"/>
</g>
<g filter="url(#filter0_d)">
<path fill-rule="evenodd" clip-rule="evenodd" d="M54.7992 154.956C54.7992 153.565 53.5819 152.348 52.1906 152.348H44.5384C43.1471 152.348 41.9297 153.565 41.9297 154.956V170.087C41.9297 171.478 42.9732 172.695 44.5384 172.695H52.1906C53.7558 172.695 54.7992 171.478 54.7992 170.087V154.956ZM52.1906 154.956V170.087H44.5384V154.956H52.1906ZM73.5846 154.956C73.5846 153.565 72.3672 152.348 70.9759 152.348H63.3237C61.9324 152.348 60.715 153.565 60.715 154.956V170.087C60.715 171.478 61.7585 172.695 63.3237 172.695H70.9759C72.5411 172.695 73.5846 171.478 73.5846 170.087V154.956ZM70.9759 154.956V170.087H63.3237V154.956H70.9759ZM89.757 152.348C91.1483 152.348 92.3657 153.565 92.3657 154.956V170.087C92.3657 171.478 91.3222 172.695 89.757 172.695H82.1048C80.5396 172.695 79.4961 171.478 79.4961 170.087V154.956C79.4961 153.565 80.7135 152.348 82.1048 152.348H89.757ZM89.757 170.087V154.956H82.1048V170.087H89.757ZM111.151 154.956C111.151 153.565 109.933 152.348 108.542 152.348H100.89C99.4986 152.348 98.2812 153.565 98.2812 154.956V170.087C98.2812 171.478 99.3247 172.695 100.89 172.695H108.542C110.107 172.695 111.151 171.478 111.151 170.087V154.956ZM108.542 154.956V170.087H100.89V154.956H108.542ZM145.929 152.348C147.32 152.348 148.538 153.565 148.538 154.956V170.087C148.538 171.478 147.494 172.695 145.929 172.695H138.277C136.711 172.695 135.668 171.478 135.668 170.087V154.956C135.668 153.565 136.885 152.348 138.277 152.348H145.929ZM145.929 170.087V154.956H138.277V170.087H145.929ZM167.323 154.956C167.323 153.565 166.105 152.348 164.714 152.348H157.062C155.671 152.348 154.453 153.565 154.453 154.956V170.087C154.453 171.478 155.497 172.695 157.062 172.695H164.714C166.279 172.695 167.323 171.478 167.323 170.087V154.956ZM164.714 154.956V170.087H157.062V154.956H164.714ZM183.495 152.348C184.887 152.348 186.104 153.565 186.104 154.956V170.087C186.104 171.478 185.06 172.695 183.495 172.695H175.843C174.278 172.695 173.234 171.478 173.234 170.087V154.956C173.234 153.565 174.452 152.348 175.843 152.348H183.495ZM183.495 170.087V154.956H175.843V170.087H183.495ZM204.889 154.956C204.889 153.565 203.671 152.348 202.28 152.348H194.628C193.236 152.348 192.019 153.565 192.019 154.956V170.087C192.019 171.478 193.063 172.695 194.628 172.695H202.28C203.845 172.695 204.889 171.478 204.889 170.087V154.956ZM202.28 154.956V170.087H194.628V154.956H202.28ZM239.843 152.348C241.234 152.348 242.452 153.565 242.452 154.956V170.087C242.452 171.478 241.408 172.695 239.843 172.695H232.191C230.626 172.695 229.582 171.478 229.582 170.087V154.956C229.582 153.565 230.799 152.348 232.191 152.348H239.843ZM239.843 170.087V154.956H232.191V170.087H239.843ZM261.233 154.956C261.233 153.565 260.015 152.348 258.624 152.348H250.972C249.581 152.348 248.363 153.565 248.363 154.956V170.087C248.363 171.478 249.407 172.695 250.972 172.695H258.624C260.189 172.695 261.233 171.478 261.233 170.087V154.956ZM258.624 154.956V170.087H250.972V154.956H258.624ZM277.409 152.348C278.801 152.348 280.018 153.565 280.018 154.956V170.087C280.018 171.478 278.975 172.695 277.409 172.695H269.757C268.192 172.695 267.148 171.478 267.148 170.087V154.956C267.148 153.565 268.366 152.348 269.757 152.348H277.409ZM277.409 170.087V154.956H269.757V170.087H277.409ZM298.799 154.956C298.799 153.565 297.582 152.348 296.191 152.348H288.538C287.147 152.348 285.93 153.565 285.93 154.956V170.087C285.93 171.478 286.973 172.695 288.538 172.695H296.191C297.756 172.695 298.799 171.478 298.799 170.087V154.956ZM296.191 154.956V170.087H288.538V154.956H296.191ZM333.757 152.348C335.148 152.348 336.365 153.565 336.365 154.956V170.087C336.365 171.478 335.322 172.695 333.757 172.695H326.104C324.539 172.695 323.496 171.478 323.496 170.087V154.956C323.496 153.565 324.713 152.348 326.104 152.348H333.757ZM333.757 170.087V154.956H326.104V170.087H333.757ZM355.147 154.956C355.147 153.565 353.93 152.348 352.538 152.348H344.886C343.495 152.348 342.277 153.565 342.277 154.956V170.087C342.277 171.478 343.321 172.695 344.886 172.695H352.538C354.103 172.695 355.147 171.478 355.147 170.087V154.956ZM352.538 154.956V170.087H344.886V154.956H352.538ZM371.319 152.348C372.711 152.348 373.928 153.565 373.928 154.956V170.087C373.928 171.478 372.885 172.695 371.319 172.695H363.667C362.102 172.695 361.059 171.478 361.059 170.087V154.956C361.059 153.565 362.276 152.348 363.667 152.348H371.319ZM371.319 170.087V154.956H363.667V170.087H371.319ZM392.713 154.956C392.713 153.565 391.496 152.348 390.105 152.348H382.452C381.061 152.348 379.844 153.565 379.844 154.956V170.087C379.844 171.478 380.887 172.695 382.452 172.695H390.105C391.67 172.695 392.713 171.478 392.713 170.087V154.956ZM390.105 154.956V170.087H382.452V154.956H390.105ZM44.1906 227.827H43.1471V233.219H41.9297V221.566H43.1471V226.784H44.1906L47.4949 221.566H48.8862L45.234 227.132L49.234 233.219H47.6688L44.1906 227.827ZM53.5791 229.912H57.4052L58.4487 233.043H59.6661L56.1878 221.391H54.7965L51.4922 233.043H52.7096L53.5791 229.912ZM57.0574 228.695H53.927L55.3183 223.304H55.4922L57.0574 228.695ZM62.2773 221.566H69.9295V224.523H68.886V222.784H66.7991V232.001H68.1904V233.219H63.8426V232.001H65.4078V222.784H63.3208V224.523H62.2773V221.566ZM79.8427 221.566H73.9297V233.219H80.0167V232.001H75.1471V227.827H79.4949V226.61H75.1471V222.784H79.8427V221.566ZM84.9719 221.653L84.972 221.653C85.1894 221.61 85.4068 221.566 85.5807 221.566H86.972C87.4937 221.566 87.8415 221.566 88.1894 221.74L89.2328 222.262C89.5807 222.436 89.7546 222.784 89.9285 223.306C90.1024 223.653 90.2763 224.175 90.2763 224.871C90.2763 225.392 90.2763 225.74 90.1024 226.088L90.1024 226.088C89.9285 226.436 89.7546 226.784 89.5807 226.958C89.5227 227.016 89.4647 227.093 89.4068 227.17C89.2908 227.325 89.1749 227.479 89.0589 227.479L89.0589 227.48C88.885 227.653 88.7111 227.827 88.5372 227.827L91.1459 233.393H89.7546L87.3198 228.349H85.5807V233.393H84.3633V221.74C84.5372 221.74 84.7545 221.697 84.9719 221.653ZM86.972 222.61H86.6241H86.2763H85.9285H85.5807V226.958H86.6241C87.3198 226.958 87.8415 226.784 88.1894 226.436C88.5372 226.088 88.885 225.393 88.885 224.697C88.885 224.175 88.7111 223.653 88.3633 223.306C88.0154 222.784 87.4937 222.61 86.972 222.61ZM101.234 221.566H94.2773V222.784H97.0599V232.001H94.2773V233.219H101.234V232.001H98.2773V222.784H101.234V221.566ZM106.798 225.914L106.102 224.175L106.276 225.914V233.219H105.059V221.566H105.928L109.928 228.871L110.624 230.436L110.45 228.871V221.566H111.667V233.219H110.798L106.798 225.914ZM116.887 229.912H120.887L121.757 233.043H122.974L119.496 221.391H118.105L114.8 233.043H116.018L116.887 229.912ZM120.366 228.695H117.235L118.626 223.304H118.8L120.366 228.695ZM142.276 222.782C142.189 222.782 142.102 222.738 142.015 222.695C141.928 222.652 141.841 222.608 141.754 222.608H141.059C140.711 222.608 140.189 222.608 139.841 222.782C139.493 222.956 139.145 223.304 138.798 223.651L138.798 223.652C138.45 223.999 138.276 224.521 138.102 225.043C137.928 225.565 137.754 226.434 137.754 227.304V227.304C137.754 228.173 137.754 228.869 137.928 229.391C138.102 229.912 138.276 230.434 138.624 230.956L138.624 230.956C138.972 231.304 139.319 231.652 139.667 231.825C140.015 231.999 140.537 232.173 141.059 232.173H141.754C141.841 232.173 141.928 232.13 142.015 232.086C142.102 232.043 142.189 231.999 142.276 231.999V230.26H143.319V232.521C143.145 232.608 142.972 232.738 142.798 232.869C142.624 232.999 142.45 233.13 142.276 233.217C141.754 233.391 141.232 233.391 140.711 233.391C140.189 233.391 139.493 233.217 138.972 233.043C138.45 232.869 137.928 232.521 137.58 231.999C137.232 231.478 136.885 230.956 136.711 230.086C136.537 229.391 136.363 228.347 136.363 227.478C136.363 226.434 136.537 225.391 136.711 224.695C136.885 223.999 137.232 223.304 137.58 222.782C137.928 222.26 138.45 221.912 138.972 221.738L138.972 221.738C139.493 221.565 140.015 221.391 140.711 221.391H141.58C141.754 221.391 142.102 221.391 142.276 221.565C142.363 221.565 142.45 221.608 142.537 221.652C142.624 221.695 142.711 221.738 142.798 221.738C142.972 221.738 143.145 221.912 143.145 222.086V224.695H142.102V222.782H142.276ZM148.362 227.827H152.884V233.219H154.101V221.566H152.884V226.61H148.362V221.566H147.145V233.219H148.362V227.827ZM158.453 221.566H164.366V222.784H159.671V226.61H164.018V227.827H159.671V232.001H164.54V233.219H158.453V221.566ZM169.495 221.653C169.278 221.697 169.061 221.74 168.887 221.74V233.393H170.104V228.349H171.843L174.278 233.393H175.669L173.061 227.827C173.235 227.827 173.408 227.653 173.582 227.48L173.582 227.479C173.698 227.479 173.814 227.325 173.93 227.17C173.988 227.093 174.046 227.016 174.104 226.958C174.278 226.784 174.452 226.436 174.626 226.088C174.8 225.74 174.8 225.392 174.8 224.871C174.8 224.175 174.626 223.653 174.452 223.306C174.278 222.784 174.104 222.436 173.756 222.262L172.713 221.74C172.365 221.566 172.017 221.566 171.495 221.566H170.104C169.93 221.566 169.713 221.61 169.496 221.653L169.495 221.653ZM171.148 222.61H171.495C172.017 222.61 172.539 222.784 172.887 223.306C173.235 223.653 173.408 224.175 173.408 224.697C173.408 225.393 173.061 226.088 172.713 226.436C172.365 226.784 171.843 226.958 171.148 226.958H170.104V222.61H170.452H170.8H171.148ZM181.581 227.827H180.538V233.219H179.32V221.566H180.538V226.784H181.581L184.886 221.566H186.277L182.625 227.132L186.625 233.219H185.059L181.581 227.827ZM190.973 229.912H194.799L195.843 233.043H197.06L193.582 221.391H192.191L188.886 233.043H190.104L190.973 229.912ZM194.452 228.695H191.321L192.712 223.304H192.886L194.452 228.695ZM202.278 231.999C202.626 232.173 202.974 232.173 203.321 232.173C203.669 232.173 204.017 232.173 204.191 231.999C204.539 231.999 204.713 231.825 204.887 231.652L205.408 231.13C205.582 230.956 205.582 230.608 205.582 230.26C205.582 229.738 205.408 229.391 205.234 229.217C204.887 228.869 204.713 228.695 204.191 228.521C204.017 228.434 203.8 228.304 203.583 228.173L203.582 228.173L203.582 228.173C203.365 228.043 203.147 227.912 202.974 227.825C202.646 227.716 202.387 227.539 202.154 227.378C202.015 227.283 201.886 227.195 201.756 227.13L200.713 226.086C200.365 225.738 200.365 225.217 200.365 224.521C200.365 223.999 200.365 223.652 200.539 223.304C200.713 222.956 200.887 222.608 201.234 222.434C201.35 222.376 201.466 222.299 201.582 222.222C201.814 222.067 202.046 221.912 202.278 221.912C202.626 221.738 203.148 221.738 203.669 221.738C204.191 221.738 204.713 221.738 205.234 221.912C205.434 221.979 205.608 222.02 205.756 222.055C205.997 222.112 206.17 222.153 206.278 222.26V224.869H205.234V223.13C205.162 223.13 205.061 223.1 204.941 223.065C204.772 223.016 204.569 222.956 204.365 222.956H203.495H203.495C203.147 222.956 202.974 222.956 202.626 223.13C202.539 223.217 202.408 223.26 202.278 223.304C202.148 223.347 202.017 223.391 201.93 223.478C201.756 223.652 201.582 223.825 201.582 223.999C201.408 224.173 201.408 224.347 201.408 224.695C201.408 225.043 201.582 225.565 201.756 225.738L201.756 225.739C202.104 226.086 202.278 226.26 202.8 226.434C202.974 226.521 203.191 226.651 203.408 226.782L203.408 226.782C203.626 226.912 203.843 227.043 204.017 227.13C204.345 227.239 204.604 227.417 204.837 227.577C204.975 227.672 205.105 227.761 205.234 227.825L206.278 228.869C206.626 229.217 206.626 229.738 206.626 230.434C206.626 230.956 206.626 231.304 206.452 231.825L206.452 231.826C206.278 232.173 206.104 232.521 205.756 232.869C205.408 233.217 205.061 233.391 204.713 233.565C204.365 233.738 203.843 233.738 203.321 233.738C202.974 233.738 202.626 233.738 202.278 233.565C202.074 233.565 201.87 233.505 201.702 233.455C201.582 233.421 201.48 233.391 201.408 233.391C201.276 233.324 201.168 233.283 201.076 233.248C200.928 233.191 200.82 233.15 200.713 233.043C200.626 232.956 200.539 232.912 200.452 232.869C200.365 232.825 200.278 232.782 200.191 232.695V230.086H201.234V231.478L202.278 231.999ZM212.884 231.999L211.84 231.477V230.086H210.797V232.695C210.884 232.782 210.971 232.825 211.058 232.869C211.145 232.912 211.232 232.956 211.319 233.043C211.426 233.15 211.534 233.191 211.682 233.248L211.682 233.248L211.682 233.248C211.774 233.283 211.882 233.324 212.014 233.39C212.086 233.39 212.188 233.42 212.308 233.455C212.476 233.505 212.68 233.564 212.884 233.564C213.232 233.738 213.579 233.738 213.927 233.738C214.449 233.738 214.971 233.738 215.319 233.564C215.666 233.39 216.014 233.217 216.362 232.869C216.71 232.521 216.884 232.173 217.058 231.825C217.232 231.304 217.232 230.956 217.232 230.434V230.434C217.232 229.738 217.232 229.217 216.884 228.869L215.84 227.825C215.711 227.76 215.581 227.672 215.443 227.577C215.209 227.416 214.95 227.239 214.623 227.13C214.449 227.043 214.232 226.912 214.014 226.782C213.797 226.651 213.579 226.521 213.406 226.434C212.884 226.26 212.71 226.086 212.362 225.738L212.362 225.738C212.188 225.564 212.014 225.043 212.014 224.695C212.014 224.347 212.014 224.173 212.188 223.999C212.188 223.825 212.362 223.651 212.536 223.477C212.623 223.39 212.753 223.347 212.884 223.303C213.014 223.26 213.145 223.217 213.232 223.13C213.579 222.956 213.753 222.956 214.101 222.956H214.101H214.971C215.175 222.956 215.378 223.015 215.547 223.065C215.666 223.1 215.768 223.13 215.84 223.13V224.869H216.884V222.26C216.776 222.153 216.602 222.111 216.362 222.055C216.214 222.02 216.04 221.979 215.84 221.912C215.319 221.738 214.797 221.738 214.275 221.738C213.753 221.738 213.232 221.738 212.884 221.912C212.652 221.912 212.42 222.067 212.188 222.221C212.072 222.299 211.956 222.376 211.84 222.434C211.493 222.608 211.319 222.956 211.145 223.303C210.971 223.651 210.971 223.999 210.971 224.521V224.521C210.971 225.217 210.971 225.738 211.319 226.086L212.362 227.13C212.492 227.194 212.621 227.283 212.76 227.378C212.993 227.538 213.252 227.716 213.579 227.825C213.753 227.912 213.971 228.042 214.188 228.173L214.188 228.173L214.189 228.173C214.406 228.304 214.623 228.434 214.797 228.521C215.319 228.695 215.493 228.869 215.84 229.217C216.014 229.39 216.188 229.738 216.188 230.26C216.188 230.608 216.188 230.956 216.014 231.13L215.493 231.651C215.319 231.825 215.145 231.999 214.797 231.999C214.623 232.173 214.275 232.173 213.927 232.173C213.579 232.173 213.232 232.173 212.884 231.999ZM223.843 227.827H222.799V233.219H221.582V221.566H222.799V226.784H223.843L227.147 221.566H228.539L224.886 227.132L228.886 233.219H227.321L223.843 227.827ZM232.366 233.043L233.235 229.912H237.061L238.105 233.043H239.322L235.844 221.391H234.453L231.148 233.043H232.366ZM235.148 223.304L236.714 228.695H233.583L234.975 223.304H235.148ZM245.062 228.697L241.41 221.566H242.801L245.758 227.306L248.541 221.566H249.758L246.106 228.697V233.219H244.888V228.697H245.062ZM253.408 233.043L254.278 229.912H258.104L259.148 233.043H260.365L256.887 221.391H255.495L252.191 233.043H253.408ZM256.191 223.304L257.756 228.695H254.626L256.017 223.304H256.191Z" fill="#42358F" fill-opacity="0.68"/>
<path fill-rule="evenodd" clip-rule="evenodd" d="M54.7992 154.956C54.7992 153.565 53.5819 152.348 52.1906 152.348H44.5384C43.1471 152.348 41.9297 153.565 41.9297 154.956V170.087C41.9297 171.478 42.9732 172.695 44.5384 172.695H52.1906C53.7558 172.695 54.7992 171.478 54.7992 170.087V154.956ZM52.1906 154.956V170.087H44.5384V154.956H52.1906ZM73.5846 154.956C73.5846 153.565 72.3672 152.348 70.9759 152.348H63.3237C61.9324 152.348 60.715 153.565 60.715 154.956V170.087C60.715 171.478 61.7585 172.695 63.3237 172.695H70.9759C72.5411 172.695 73.5846 171.478 73.5846 170.087V154.956ZM70.9759 154.956V170.087H63.3237V154.956H70.9759ZM89.757 152.348C91.1483 152.348 92.3657 153.565 92.3657 154.956V170.087C92.3657 171.478 91.3222 172.695 89.757 172.695H82.1048C80.5396 172.695 79.4961 171.478 79.4961 170.087V154.956C79.4961 153.565 80.7135 152.348 82.1048 152.348H89.757ZM89.757 170.087V154.956H82.1048V170.087H89.757ZM111.151 154.956C111.151 153.565 109.933 152.348 108.542 152.348H100.89C99.4986 152.348 98.2812 153.565 98.2812 154.956V170.087C98.2812 171.478 99.3247 172.695 100.89 172.695H108.542C110.107 172.695 111.151 171.478 111.151 170.087V154.956ZM108.542 154.956V170.087H100.89V154.956H108.542ZM145.929 152.348C147.32 152.348 148.538 153.565 148.538 154.956V170.087C148.538 171.478 147.494 172.695 145.929 172.695H138.277C136.711 172.695 135.668 171.478 135.668 170.087V154.956C135.668 153.565 136.885 152.348 138.277 152.348H145.929ZM145.929 170.087V154.956H138.277V170.087H145.929ZM167.323 154.956C167.323 153.565 166.105 152.348 164.714 152.348H157.062C155.671 152.348 154.453 153.565 154.453 154.956V170.087C154.453 171.478 155.497 172.695 157.062 172.695H164.714C166.279 172.695 167.323 171.478 167.323 170.087V154.956ZM164.714 154.956V170.087H157.062V154.956H164.714ZM183.495 152.348C184.887 152.348 186.104 153.565 186.104 154.956V170.087C186.104 171.478 185.06 172.695 183.495 172.695H175.843C174.278 172.695 173.234 171.478 173.234 170.087V154.956C173.234 153.565 174.452 152.348 175.843 152.348H183.495ZM183.495 170.087V154.956H175.843V170.087H183.495ZM204.889 154.956C204.889 153.565 203.671 152.348 202.28 152.348H194.628C193.236 152.348 192.019 153.565 192.019 154.956V170.087C192.019 171.478 193.063 172.695 194.628 172.695H202.28C203.845 172.695 204.889 171.478 204.889 170.087V154.956ZM202.28 154.956V170.087H194.628V154.956H202.28ZM239.843 152.348C241.234 152.348 242.452 153.565 242.452 154.956V170.087C242.452 171.478 241.408 172.695 239.843 172.695H232.191C230.626 172.695 229.582 171.478 229.582 170.087V154.956C229.582 153.565 230.799 152.348 232.191 152.348H239.843ZM239.843 170.087V154.956H232.191V170.087H239.843ZM261.233 154.956C261.233 153.565 260.015 152.348 258.624 152.348H250.972C249.581 152.348 248.363 153.565 248.363 154.956V170.087C248.363 171.478 249.407 172.695 250.972 172.695H258.624C260.189 172.695 261.233 171.478 261.233 170.087V154.956ZM258.624 154.956V170.087H250.972V154.956H258.624ZM277.409 152.348C278.801 152.348 280.018 153.565 280.018 154.956V170.087C280.018 171.478 278.975 172.695 277.409 172.695H269.757C268.192 172.695 267.148 171.478 267.148 170.087V154.956C267.148 153.565 268.366 152.348 269.757 152.348H277.409ZM277.409 170.087V154.956H269.757V170.087H277.409ZM298.799 154.956C298.799 153.565 297.582 152.348 296.191 152.348H288.538C287.147 152.348 285.93 153.565 285.93 154.956V170.087C285.93 171.478 286.973 172.695 288.538 172.695H296.191C297.756 172.695 298.799 171.478 298.799 170.087V154.956ZM296.191 154.956V170.087H288.538V154.956H296.191ZM333.757 152.348C335.148 152.348 336.365 153.565 336.365 154.956V170.087C336.365 171.478 335.322 172.695 333.757 172.695H326.104C324.539 172.695 323.496 171.478 323.496 170.087V154.956C323.496 153.565 324.713 152.348 326.104 152.348H333.757ZM333.757 170.087V154.956H326.104V170.087H333.757ZM355.147 154.956C355.147 153.565 353.93 152.348 352.538 152.348H344.886C343.495 152.348 342.277 153.565 342.277 154.956V170.087C342.277 171.478 343.321 172.695 344.886 172.695H352.538C354.103 172.695 355.147 171.478 355.147 170.087V154.956ZM352.538 154.956V170.087H344.886V154.956H352.538ZM371.319 152.348C372.711 152.348 373.928 153.565 373.928 154.956V170.087C373.928 171.478 372.885 172.695 371.319 172.695H363.667C362.102 172.695 361.059 171.478 361.059 170.087V154.956C361.059 153.565 362.276 152.348 363.667 152.348H371.319ZM371.319 170.087V154.956H363.667V170.087H371.319ZM392.713 154.956C392.713 153.565 391.496 152.348 390.105 152.348H382.452C381.061 152.348 379.844 153.565 379.844 154.956V170.087C379.844 171.478 380.887 172.695 382.452 172.695H390.105C391.67 172.695 392.713 171.478 392.713 170.087V154.956ZM390.105 154.956V170.087H382.452V154.956H390.105ZM44.1906 227.827H43.1471V233.219H41.9297V221.566H43.1471V226.784H44.1906L47.4949 221.566H48.8862L45.234 227.132L49.234 233.219H47.6688L44.1906 227.827ZM53.5791 229.912H57.4052L58.4487 233.043H59.6661L56.1878 221.391H54.7965L51.4922 233.043H52.7096L53.5791 229.912ZM57.0574 228.695H53.927L55.3183 223.304H55.4922L57.0574 228.695ZM62.2773 221.566H69.9295V224.523H68.886V222.784H66.7991V232.001H68.1904V233.219H63.8426V232.001H65.4078V222.784H63.3208V224.523H62.2773V221.566ZM79.8427 221.566H73.9297V233.219H80.0167V232.001H75.1471V227.827H79.4949V226.61H75.1471V222.784H79.8427V221.566ZM84.9719 221.653L84.972 221.653C85.1894 221.61 85.4068 221.566 85.5807 221.566H86.972C87.4937 221.566 87.8415 221.566 88.1894 221.74L89.2328 222.262C89.5807 222.436 89.7546 222.784 89.9285 223.306C90.1024 223.653 90.2763 224.175 90.2763 224.871C90.2763 225.392 90.2763 225.74 90.1024 226.088L90.1024 226.088C89.9285 226.436 89.7546 226.784 89.5807 226.958C89.5227 227.016 89.4647 227.093 89.4068 227.17C89.2908 227.325 89.1749 227.479 89.0589 227.479L89.0589 227.48C88.885 227.653 88.7111 227.827 88.5372 227.827L91.1459 233.393H89.7546L87.3198 228.349H85.5807V233.393H84.3633V221.74C84.5372 221.74 84.7545 221.697 84.9719 221.653ZM86.972 222.61H86.6241H86.2763H85.9285H85.5807V226.958H86.6241C87.3198 226.958 87.8415 226.784 88.1894 226.436C88.5372 226.088 88.885 225.393 88.885 224.697C88.885 224.175 88.7111 223.653 88.3633 223.306C88.0154 222.784 87.4937 222.61 86.972 222.61ZM101.234 221.566H94.2773V222.784H97.0599V232.001H94.2773V233.219H101.234V232.001H98.2773V222.784H101.234V221.566ZM106.798 225.914L106.102 224.175L106.276 225.914V233.219H105.059V221.566H105.928L109.928 228.871L110.624 230.436L110.45 228.871V221.566H111.667V233.219H110.798L106.798 225.914ZM116.887 229.912H120.887L121.757 233.043H122.974L119.496 221.391H118.105L114.8 233.043H116.018L116.887 229.912ZM120.366 228.695H117.235L118.626 223.304H118.8L120.366 228.695ZM142.276 222.782C142.189 222.782 142.102 222.738 142.015 222.695C141.928 222.652 141.841 222.608 141.754 222.608H141.059C140.711 222.608 140.189 222.608 139.841 222.782C139.493 222.956 139.145 223.304 138.798 223.651L138.798 223.652C138.45 223.999 138.276 224.521 138.102 225.043C137.928 225.565 137.754 226.434 137.754 227.304V227.304C137.754 228.173 137.754 228.869 137.928 229.391C138.102 229.912 138.276 230.434 138.624 230.956L138.624 230.956C138.972 231.304 139.319 231.652 139.667 231.825C140.015 231.999 140.537 232.173 141.059 232.173H141.754C141.841 232.173 141.928 232.13 142.015 232.086C142.102 232.043 142.189 231.999 142.276 231.999V230.26H143.319V232.521C143.145 232.608 142.972 232.738 142.798 232.869C142.624 232.999 142.45 233.13 142.276 233.217C141.754 233.391 141.232 233.391 140.711 233.391C140.189 233.391 139.493 233.217 138.972 233.043C138.45 232.869 137.928 232.521 137.58 231.999C137.232 231.478 136.885 230.956 136.711 230.086C136.537 229.391 136.363 228.347 136.363 227.478C136.363 226.434 136.537 225.391 136.711 224.695C136.885 223.999 137.232 223.304 137.58 222.782C137.928 222.26 138.45 221.912 138.972 221.738L138.972 221.738C139.493 221.565 140.015 221.391 140.711 221.391H141.58C141.754 221.391 142.102 221.391 142.276 221.565C142.363 221.565 142.45 221.608 142.537 221.652C142.624 221.695 142.711 221.738 142.798 221.738C142.972 221.738 143.145 221.912 143.145 222.086V224.695H142.102V222.782H142.276ZM148.362 227.827H152.884V233.219H154.101V221.566H152.884V226.61H148.362V221.566H147.145V233.219H148.362V227.827ZM158.453 221.566H164.366V222.784H159.671V226.61H164.018V227.827H159.671V232.001H164.54V233.219H158.453V221.566ZM169.495 221.653C169.278 221.697 169.061 221.74 168.887 221.74V233.393H170.104V228.349H171.843L174.278 233.393H175.669L173.061 227.827C173.235 227.827 173.408 227.653 173.582 227.48L173.582 227.479C173.698 227.479 173.814 227.325 173.93 227.17C173.988 227.093 174.046 227.016 174.104 226.958C174.278 226.784 174.452 226.436 174.626 226.088C174.8 225.74 174.8 225.392 174.8 224.871C174.8 224.175 174.626 223.653 174.452 223.306C174.278 222.784 174.104 222.436 173.756 222.262L172.713 221.74C172.365 221.566 172.017 221.566 171.495 221.566H170.104C169.93 221.566 169.713 221.61 169.496 221.653L169.495 221.653ZM171.148 222.61H171.495C172.017 222.61 172.539 222.784 172.887 223.306C173.235 223.653 173.408 224.175 173.408 224.697C173.408 225.393 173.061 226.088 172.713 226.436C172.365 226.784 171.843 226.958 171.148 226.958H170.104V222.61H170.452H170.8H171.148ZM181.581 227.827H180.538V233.219H179.32V221.566H180.538V226.784H181.581L184.886 221.566H186.277L182.625 227.132L186.625 233.219H185.059L181.581 227.827ZM190.973 229.912H194.799L195.843 233.043H197.06L193.582 221.391H192.191L188.886 233.043H190.104L190.973 229.912ZM194.452 228.695H191.321L192.712 223.304H192.886L194.452 228.695ZM202.278 231.999C202.626 232.173 202.974 232.173 203.321 232.173C203.669 232.173 204.017 232.173 204.191 231.999C204.539 231.999 204.713 231.825 204.887 231.652L205.408 231.13C205.582 230.956 205.582 230.608 205.582 230.26C205.582 229.738 205.408 229.391 205.234 229.217C204.887 228.869 204.713 228.695 204.191 228.521C204.017 228.434 203.8 228.304 203.583 228.173L203.582 228.173L203.582 228.173C203.365 228.043 203.147 227.912 202.974 227.825C202.646 227.716 202.387 227.539 202.154 227.378C202.015 227.283 201.886 227.195 201.756 227.13L200.713 226.086C200.365 225.738 200.365 225.217 200.365 224.521C200.365 223.999 200.365 223.652 200.539 223.304C200.713 222.956 200.887 222.608 201.234 222.434C201.35 222.376 201.466 222.299 201.582 222.222C201.814 222.067 202.046 221.912 202.278 221.912C202.626 221.738 203.148 221.738 203.669 221.738C204.191 221.738 204.713 221.738 205.234 221.912C205.434 221.979 205.608 222.02 205.756 222.055C205.997 222.112 206.17 222.153 206.278 222.26V224.869H205.234V223.13C205.162 223.13 205.061 223.1 204.941 223.065C204.772 223.016 204.569 222.956 204.365 222.956H203.495H203.495C203.147 222.956 202.974 222.956 202.626 223.13C202.539 223.217 202.408 223.26 202.278 223.304C202.148 223.347 202.017 223.391 201.93 223.478C201.756 223.652 201.582 223.825 201.582 223.999C201.408 224.173 201.408 224.347 201.408 224.695C201.408 225.043 201.582 225.565 201.756 225.738L201.756 225.739C202.104 226.086 202.278 226.26 202.8 226.434C202.974 226.521 203.191 226.651 203.408 226.782L203.408 226.782C203.626 226.912 203.843 227.043 204.017 227.13C204.345 227.239 204.604 227.417 204.837 227.577C204.975 227.672 205.105 227.761 205.234 227.825L206.278 228.869C206.626 229.217 206.626 229.738 206.626 230.434C206.626 230.956 206.626 231.304 206.452 231.825L206.452 231.826C206.278 232.173 206.104 232.521 205.756 232.869C205.408 233.217 205.061 233.391 204.713 233.565C204.365 233.738 203.843 233.738 203.321 233.738C202.974 233.738 202.626 233.738 202.278 233.565C202.074 233.565 201.87 233.505 201.702 233.455C201.582 233.421 201.48 233.391 201.408 233.391C201.276 233.324 201.168 233.283 201.076 233.248C200.928 233.191 200.82 233.15 200.713 233.043C200.626 232.956 200.539 232.912 200.452 232.869C200.365 232.825 200.278 232.782 200.191 232.695V230.086H201.234V231.478L202.278 231.999ZM212.884 231.999L211.84 231.477V230.086H210.797V232.695C210.884 232.782 210.971 232.825 211.058 232.869C211.145 232.912 211.232 232.956 211.319 233.043C211.426 233.15 211.534 233.191 211.682 233.248L211.682 233.248L211.682 233.248C211.774 233.283 211.882 233.324 212.014 233.39C212.086 233.39 212.188 233.42 212.308 233.455C212.476 233.505 212.68 233.564 212.884 233.564C213.232 233.738 213.579 233.738 213.927 233.738C214.449 233.738 214.971 233.738 215.319 233.564C215.666 233.39 216.014 233.217 216.362 232.869C216.71 232.521 216.884 232.173 217.058 231.825C217.232 231.304 217.232 230.956 217.232 230.434V230.434C217.232 229.738 217.232 229.217 216.884 228.869L215.84 227.825C215.711 227.76 215.581 227.672 215.443 227.577C215.209 227.416 214.95 227.239 214.623 227.13C214.449 227.043 214.232 226.912 214.014 226.782C213.797 226.651 213.579 226.521 213.406 226.434C212.884 226.26 212.71 226.086 212.362 225.738L212.362 225.738C212.188 225.564 212.014 225.043 212.014 224.695C212.014 224.347 212.014 224.173 212.188 223.999C212.188 223.825 212.362 223.651 212.536 223.477C212.623 223.39 212.753 223.347 212.884 223.303C213.014 223.26 213.145 223.217 213.232 223.13C213.579 222.956 213.753 222.956 214.101 222.956H214.101H214.971C215.175 222.956 215.378 223.015 215.547 223.065C215.666 223.1 215.768 223.13 215.84 223.13V224.869H216.884V222.26C216.776 222.153 216.602 222.111 216.362 222.055C216.214 222.02 216.04 221.979 215.84 221.912C215.319 221.738 214.797 221.738 214.275 221.738C213.753 221.738 213.232 221.738 212.884 221.912C212.652 221.912 212.42 222.067 212.188 222.221C212.072 222.299 211.956 222.376 211.84 222.434C211.493 222.608 211.319 222.956 211.145 223.303C210.971 223.651 210.971 223.999 210.971 224.521V224.521C210.971 225.217 210.971 225.738 211.319 226.086L212.362 227.13C212.492 227.194 212.621 227.283 212.76 227.378C212.993 227.538 213.252 227.716 213.579 227.825C213.753 227.912 213.971 228.042 214.188 228.173L214.188 228.173L214.189 228.173C214.406 228.304 214.623 228.434 214.797 228.521C215.319 228.695 215.493 228.869 215.84 229.217C216.014 229.39 216.188 229.738 216.188 230.26C216.188 230.608 216.188 230.956 216.014 231.13L215.493 231.651C215.319 231.825 215.145 231.999 214.797 231.999C214.623 232.173 214.275 232.173 213.927 232.173C213.579 232.173 213.232 232.173 212.884 231.999ZM223.843 227.827H222.799V233.219H221.582V221.566H222.799V226.784H223.843L227.147 221.566H228.539L224.886 227.132L228.886 233.219H227.321L223.843 227.827ZM232.366 233.043L233.235 229.912H237.061L238.105 233.043H239.322L235.844 221.391H234.453L231.148 233.043H232.366ZM235.148 223.304L236.714 228.695H233.583L234.975 223.304H235.148ZM245.062 228.697L241.41 221.566H242.801L245.758 227.306L248.541 221.566H249.758L246.106 228.697V233.219H244.888V228.697H245.062ZM253.408 233.043L254.278 229.912H258.104L259.148 233.043H260.365L256.887 221.391H255.495L252.191 233.043H253.408ZM256.191 223.304L257.756 228.695H254.626L256.017 223.304H256.191Z" fill="url(#paint4_linear)" fill-opacity="0.3"/>
<path d="M186.802 208C186.802 209.913 187.15 213.913 183.498 213.913C180.019 213.913 180.193 209.913 180.193 208C180.193 205.217 180.019 202.087 183.498 202.087C187.324 201.913 186.802 206.608 186.802 208ZM181.585 208C181.585 212.522 182.454 212.869 183.672 212.869C185.063 212.869 185.759 212.348 185.759 208C185.759 203.478 185.063 203.13 183.672 203.13C181.411 203.13 181.585 205.565 181.585 208Z" fill="#42358F" fill-opacity="0.68"/>
<path d="M190.454 202.086H196.367V203.129H191.671V206.608C192.193 206.434 192.715 206.26 193.41 206.26C195.149 206.26 196.541 207.477 196.541 209.39C196.541 210.956 195.671 212.173 194.454 212.869C193.584 213.39 192.367 213.738 190.106 213.738V212.695C191.497 212.695 192.715 212.695 193.41 212.173C194.454 211.651 195.149 210.608 195.149 209.39C195.149 208.173 194.28 207.477 193.062 207.477C192.367 207.477 191.845 207.825 191.149 207.999H190.28V202.086H190.454Z" fill="#42358F" fill-opacity="0.68"/>
<path d="M198.106 214.087L203.324 200.695H204.193L198.976 214.087H198.106Z" fill="#42358F" fill-opacity="0.68"/>
<path d="M207.672 203.479L205.585 204.349L205.237 203.305L208.889 201.914V212.697H211.324V213.74H204.715V212.697H207.672V203.479Z" fill="#42358F" fill-opacity="0.68"/>
<path d="M219.845 203.13H215.149V202.087H221.584L216.367 213.913L215.323 213.391L219.845 203.13Z" fill="#42358F" fill-opacity="0.68"/>
</g>
<path fill-rule="evenodd" clip-rule="evenodd" d="M339.13 236.346L351.304 207.303H343.478L335.652 227.129L332.522 210.26C332.174 208.346 330.609 207.303 329.043 207.303H316.174L316 208.173C318.609 208.694 321.739 209.564 323.478 210.607C324.522 211.303 324.87 211.825 325.217 213.216L331.13 236.346H339.13ZM375.508 218.539C378.572 220.142 382.435 222.164 382.435 226.781C382.435 232.868 377.217 236.694 369.391 236.694C366.087 236.694 362.783 235.999 361.043 235.129L362.435 228.694C364.174 229.564 366.261 230.607 370.087 230.607C372.348 230.607 374.609 229.738 374.609 227.825C374.609 226.433 373.739 225.564 370.783 224.173C367.826 222.781 364.174 220.52 364.174 216.346C364.174 210.781 369.391 206.781 376.87 206.781C379.652 206.781 382.087 207.303 383.826 207.999L382.435 214.086C378.957 212.694 376 212.694 374.957 212.868C372.87 213.216 371.826 214.26 371.826 215.303C371.826 216.613 373.494 217.486 375.508 218.539ZM409.044 236.346H402.087L401.043 231.999H391.478L389.913 236.346H382.087L393.391 209.39C393.913 208.173 395.13 207.303 396.522 207.303H402.957L409.044 236.346ZM397.565 214.955L393.565 225.912H399.826L397.565 214.955ZM355.826 236.346L362.087 207.303H354.609L348.348 236.346H355.826ZM356.855 251.484C357.402 251.062 357.676 250.475 357.676 249.721C357.676 249.135 357.506 248.658 357.166 248.291C356.83 247.924 356.213 247.58 355.314 247.26C354.779 247.068 354.381 246.895 354.119 246.738C353.861 246.578 353.678 246.404 353.568 246.217C353.459 246.025 353.404 245.781 353.404 245.484C353.404 245.082 353.553 244.768 353.849 244.541C354.146 244.314 354.558 244.201 355.086 244.201C355.754 244.201 356.441 244.35 357.148 244.646L357.459 243.779C356.744 243.467 355.961 243.311 355.109 243.311C354.293 243.311 353.637 243.506 353.14 243.896C352.644 244.287 352.396 244.812 352.396 245.473C352.396 246.102 352.566 246.611 352.906 247.002C353.25 247.393 353.82 247.73 354.617 248.016C355.187 248.219 355.611 248.4 355.889 248.561C356.17 248.721 356.369 248.896 356.486 249.088C356.607 249.275 356.668 249.518 356.668 249.814C356.668 250.264 356.5 250.615 356.164 250.869C355.828 251.119 355.328 251.244 354.664 251.244C354.258 251.244 353.848 251.201 353.433 251.115C353.019 251.029 352.637 250.912 352.285 250.764V251.725C352.832 251.986 353.613 252.117 354.629 252.117C355.566 252.117 356.308 251.906 356.855 251.484ZM359.761 252H360.734V245.578H359.761V252ZM359.843 243.352C359.734 243.453 359.679 243.615 359.679 243.838C359.679 244.057 359.734 244.221 359.843 244.33C359.953 244.436 360.089 244.488 360.253 244.488C360.41 244.488 360.544 244.436 360.658 244.33C360.771 244.221 360.828 244.057 360.828 243.838C360.828 243.619 360.771 243.457 360.658 243.352C360.544 243.246 360.41 243.193 360.253 243.193C360.089 243.193 359.953 243.246 359.843 243.352ZM368.532 246.193V245.578H366.311C366.042 245.5 365.739 245.461 365.403 245.461C364.63 245.461 364.032 245.652 363.61 246.035C363.188 246.414 362.977 246.955 362.977 247.658C362.977 248.08 363.081 248.455 363.288 248.783C363.499 249.111 363.77 249.344 364.102 249.48C363.833 249.645 363.636 249.814 363.511 249.99C363.386 250.166 363.323 250.371 363.323 250.605C363.323 250.812 363.378 250.994 363.487 251.15C363.6 251.307 363.739 251.422 363.903 251.496C363.45 251.598 363.099 251.791 362.849 252.076C362.599 252.361 362.474 252.699 362.474 253.09C362.474 253.66 362.7 254.102 363.153 254.414C363.61 254.727 364.259 254.883 365.099 254.883C366.192 254.883 367.024 254.695 367.595 254.32C368.165 253.949 368.45 253.408 368.45 252.697C368.45 252.139 368.263 251.713 367.888 251.42C367.517 251.127 366.983 250.98 366.288 250.98H365.151C364.8 250.98 364.552 250.939 364.407 250.857C364.263 250.771 364.19 250.641 364.19 250.465C364.19 250.133 364.397 249.857 364.811 249.639C364.979 249.67 365.159 249.686 365.35 249.686C366.1 249.686 366.69 249.498 367.12 249.123C367.55 248.748 367.765 248.246 367.765 247.617C367.765 247.34 367.722 247.092 367.636 246.873C367.55 246.65 367.452 246.471 367.343 246.334L368.532 246.193ZM363.85 253.869C363.558 253.689 363.411 253.426 363.411 253.078C363.411 252.684 363.534 252.381 363.78 252.17C364.026 251.959 364.37 251.854 364.811 251.854H365.977C366.571 251.854 366.975 251.92 367.19 252.053C367.405 252.189 367.513 252.432 367.513 252.779C367.513 253.197 367.315 253.527 366.921 253.77C366.53 254.016 365.927 254.139 365.11 254.139C364.563 254.139 364.143 254.049 363.85 253.869ZM364.319 248.654C364.065 248.424 363.938 248.084 363.938 247.635C363.938 247.15 364.061 246.785 364.308 246.539C364.554 246.293 364.905 246.17 365.362 246.17C366.323 246.17 366.804 246.652 366.804 247.617C366.804 248.539 366.329 249 365.38 249C364.927 249 364.573 248.885 364.319 248.654ZM374.725 247.846V252H375.698V247.811C375.698 246.99 375.502 246.395 375.112 246.023C374.721 245.648 374.139 245.461 373.366 245.461C372.924 245.461 372.524 245.549 372.164 245.725C371.805 245.896 371.526 246.141 371.327 246.457H371.28L371.122 245.578H370.33V252H371.303V248.631C371.303 247.795 371.459 247.195 371.772 246.832C372.084 246.469 372.577 246.287 373.248 246.287C373.756 246.287 374.129 246.416 374.368 246.674C374.606 246.932 374.725 247.322 374.725 247.846ZM381.937 251.086L382.131 252H382.852V247.617C382.852 246.867 382.666 246.322 382.295 245.982C381.928 245.643 381.361 245.473 380.596 245.473C380.217 245.473 379.838 245.521 379.459 245.619C379.084 245.717 378.738 245.852 378.422 246.023L378.721 246.768C379.396 246.439 380.002 246.275 380.537 246.275C381.014 246.275 381.359 246.396 381.574 246.639C381.793 246.877 381.902 247.248 381.902 247.752V248.15L380.812 248.186C378.738 248.248 377.701 248.928 377.701 250.225C377.701 250.83 377.881 251.297 378.24 251.625C378.603 251.953 379.103 252.117 379.74 252.117C380.217 252.117 380.613 252.047 380.93 251.906C381.25 251.762 381.57 251.488 381.891 251.086H381.937ZM381.357 250.816C381.014 251.148 380.539 251.314 379.934 251.314C379.551 251.314 379.252 251.223 379.037 251.039C378.826 250.855 378.721 250.588 378.721 250.236C378.721 249.787 378.891 249.457 379.23 249.246C379.574 249.031 380.133 248.91 380.906 248.883L381.879 248.842V249.422C381.879 250.02 381.705 250.484 381.357 250.816ZM387.914 251.279C387.753 251.303 387.587 251.314 387.415 251.314C387.095 251.314 386.843 251.211 386.66 251.004C386.476 250.797 386.384 250.5 386.384 250.113V246.334H388.248V245.578H386.384V244.09H385.822L385.412 245.461L384.492 245.865V246.334H385.412V250.154C385.412 251.463 386.033 252.117 387.275 252.117C387.439 252.117 387.623 252.1 387.826 252.064C388.033 252.033 388.189 251.992 388.294 251.941V251.197C388.201 251.225 388.074 251.252 387.914 251.279ZM390.978 249.744V245.578H389.993V249.779C389.993 250.596 390.187 251.189 390.573 251.561C390.964 251.932 391.55 252.117 392.331 252.117C392.784 252.117 393.187 252.033 393.538 251.865C393.894 251.697 394.171 251.455 394.37 251.139H394.423L394.563 252H395.366V245.578H394.394V248.953C394.394 249.785 394.237 250.385 393.925 250.752C393.616 251.119 393.126 251.303 392.454 251.303C391.946 251.303 391.573 251.174 391.335 250.916C391.097 250.658 390.978 250.268 390.978 249.744ZM401.612 245.531C401.385 245.484 401.129 245.461 400.844 245.461C400.442 245.461 400.073 245.574 399.737 245.801C399.401 246.027 399.114 246.35 398.875 246.768H398.829L398.717 245.578H397.915V252H398.887V248.555C398.887 247.926 399.071 247.4 399.438 246.979C399.809 246.557 400.254 246.346 400.774 246.346C400.977 246.346 401.211 246.375 401.477 246.434L401.612 245.531ZM403.756 251.25C404.307 251.828 405.057 252.117 406.006 252.117C406.439 252.117 406.809 252.084 407.113 252.018C407.422 251.955 407.748 251.85 408.092 251.701V250.834C407.416 251.123 406.732 251.268 406.041 251.268C405.385 251.268 404.875 251.072 404.512 250.682C404.152 250.291 403.963 249.719 403.943 248.965H408.367V248.35C408.367 247.482 408.133 246.785 407.664 246.258C407.195 245.727 406.559 245.461 405.754 245.461C404.895 245.461 404.209 245.766 403.697 246.375C403.189 246.984 402.936 247.807 402.936 248.842C402.936 249.869 403.209 250.672 403.756 251.25ZM404.506 246.779C404.814 246.443 405.227 246.275 405.742 246.275C406.25 246.275 406.641 246.439 406.914 246.768C407.188 247.092 407.324 247.561 407.324 248.174H403.967C404.022 247.58 404.201 247.115 404.506 246.779Z" fill="url(#paint5_linear)"/>
<path d="M46.0898 192H44.6895V184.635H42.1699V183.434H48.6094V184.635H46.0898V192ZM51.8081 187.418H52.7808C53.4331 187.418 53.9058 187.297 54.1988 187.055C54.4917 186.812 54.6382 186.453 54.6382 185.977C54.6382 185.492 54.48 185.145 54.1636 184.934C53.8472 184.723 53.3706 184.617 52.7339 184.617H51.8081V187.418ZM51.8081 188.578V192H50.4077V183.434H52.8277C53.9331 183.434 54.7515 183.641 55.2827 184.055C55.814 184.469 56.0796 185.094 56.0796 185.93C56.0796 186.996 55.5249 187.756 54.4155 188.209L56.8355 192H55.2417L53.1909 188.578H51.8081ZM63.878 192L63.0225 189.621H59.7471L58.9092 192H57.4327L60.6377 183.398H62.1612L65.3663 192H63.878ZM62.6534 188.414L61.8506 186.082C61.792 185.926 61.71 185.68 61.6045 185.344C61.503 185.008 61.4327 184.762 61.3936 184.605C61.2881 185.086 61.1338 185.611 60.9307 186.182L60.1573 188.414H62.6534ZM71.858 183.434H73.3111L70.3111 192H68.8345L65.8463 183.434H67.2877L69.0748 188.76C69.1685 189.014 69.2681 189.342 69.3736 189.744C69.4791 190.143 69.5474 190.439 69.5787 190.635C69.6295 190.338 69.7076 189.994 69.813 189.604C69.9185 189.213 70.0045 188.924 70.0709 188.736L71.858 183.434ZM79.7677 192H74.922V183.434H79.7677V184.617H76.3223V186.949H79.5509V188.121H76.3223V190.811H79.7677V192ZM82.1051 192V183.434H83.5055V190.799H87.1324V192H82.1051Z" fill="#751E7C"/>
<defs>
<filter id="filter0_d" x="35.9297" y="148.348" width="362.784" height="93.3908" filterUnits="userSpaceOnUse" color-interpolation-filters="sRGB">
<feFlood flood-opacity="0" result="BackgroundImageFix"/>
<feColorMatrix in="SourceAlpha" type="matrix" values="0 0 0 0 0 0 0 0 0 0 0 0 0 0 0 0 0 0 127 0"/>
<feOffset dy="2"/>
<feGaussianBlur stdDeviation="3"/>
<feColorMatrix type="matrix" values="0 0 0 0 0 0 0 0 0 0 0 0 0 0 0 0 0 0 0.32 0"/>
<feBlend mode="normal" in2="BackgroundImageFix" result="effect1_dropShadow"/>
<feBlend mode="normal" in="SourceGraphic" in2="effect1_dropShadow" result="shape"/>
</filter>
<linearGradient id="paint0_linear" x1="3.1814e-06" y1="134.5" x2="427" y2="134.5" gradientUnits="userSpaceOnUse">
<stop stop-color="#010237"/>
<stop offset="0.486188" stop-color="#0F1036"/>
<stop offset="1" stop-color="#00012A"/>
</linearGradient>
<linearGradient id="paint1_linear" x1="-81.9857" y1="72.8295" x2="11.9371" y2="347.402" gradientUnits="userSpaceOnUse">
<stop offset="0.0427655" stop-color="#3E3B3B"/>
<stop offset="0.985707" stop-color="#2C2828"/>
</linearGradient>
<linearGradient id="paint2_linear" x1="2.50003" y1="-1" x2="402" y2="308" gradientUnits="userSpaceOnUse">
<stop stop-color="#00A8DE"/>
<stop offset="0.2" stop-color="#333391"/>
<stop offset="0.4" stop-color="#E91388"/>
<stop offset="0.6" stop-color="#EB2D2E"/>
<stop offset="0.8" stop-color="#AB9E23"/>
<stop offset="1" stop-color="#009E54"/>
</linearGradient>
<linearGradient id="paint3_linear" x1="45.5749" y1="125.61" x2="96.8441" y2="125.61" gradientUnits="userSpaceOnUse">
<stop stop-color="#DBD8D5"/>
<stop offset="0.0616478" stop-color="#CBC9C8"/>
<stop offset="0.1794" stop-color="#A5A2A6"/>
<stop offset="0.264" stop-color="#88858B"/>
<stop offset="0.5225" stop-color="#F3F3F4"/>
<stop offset="0.5875" stop-color="#DFDEDF"/>
<stop offset="0.7124" stop-color="#B5B3B6"/>
<stop offset="0.8764" stop-color="#7E7A7F"/>
<stop offset="1" stop-color="#A6A8AA"/>
</linearGradient>
<linearGradient id="paint4_linear" x1="36.5" y1="152" x2="351" y2="241" gradientUnits="userSpaceOnUse">
<stop stop-color="#9A87CD"/>
<stop offset="0.380208" stop-color="#31117D" stop-opacity="0.925"/>
<stop offset="0.734375" stop-color="#AE99E7"/>
<stop offset="1" stop-color="#280D62" stop-opacity="0.3"/>
</linearGradient>
<linearGradient id="paint5_linear" x1="358.994" y1="180.072" x2="427.145" y2="210.399" gradientUnits="userSpaceOnUse">
<stop stop-color="#DBD8D5"/>
<stop offset="0.0616478" stop-color="#CBC9C8"/>
<stop offset="0.1794" stop-color="#A5A2A6"/>
<stop offset="0.264" stop-color="#88858B"/>
<stop offset="0.5225" stop-color="#F3F3F4"/>
<stop offset="0.5875" stop-color="#DFDEDF"/>
<stop offset="0.7124" stop-color="#B5B3B6"/>
<stop offset="0.8764" stop-color="#7E7A7F"/>
<stop offset="1" stop-color="#A6A8AA"/>
</linearGradient>
</defs>
</svg>
