<svg width="20" height="21" viewBox="0 0 20 21" fill="none" xmlns="http://www.w3.org/2000/svg">
<g filter="url(#filter0_d)">
<path fill-rule="evenodd" clip-rule="evenodd" d="M5.88547 14.5523C6.03577 14.6877 6.13954 14.7849 6.46019 15.0895C6.77425 15.3878 6.92613 15.5288 7.06501 15.6467C7.12293 15.6955 7.17231 15.826 7.19187 16.0199C7.20797 16.1795 7.20237 16.3574 7.18286 16.5289C7.17611 16.5882 7.1696 16.631 7.16587 16.6514C7.124 16.8802 7.29836 17.0915 7.53094 17.0939C7.74024 17.096 7.90151 17.0986 8.32836 17.1062C8.43515 17.1081 8.43515 17.1081 8.54231 17.11C9.7026 17.1299 10.2952 17.1244 10.7205 17.071C11.1752 17.0138 11.6434 16.4648 12.0481 15.7758C12.391 16.3854 12.8667 16.9807 13.3471 17.0581C13.4997 17.0825 13.6843 17.0901 13.8983 17.0851C14.0578 17.0815 14.2266 17.071 14.397 17.0557C14.5255 17.0442 14.6278 17.0327 14.689 17.0248C14.9149 16.9955 15.0627 16.7732 15.0023 16.5535C14.9893 16.5061 14.9683 16.419 14.9472 16.3094C14.9227 16.1824 14.905 16.0583 14.897 15.9452C14.8919 15.8735 14.8909 15.8086 14.8941 15.7525C14.8998 15.6547 14.9015 15.6 14.9043 15.4735C14.9053 15.4264 14.9053 15.4264 14.9067 15.3852C14.912 15.2503 14.9301 15.1222 14.9887 14.843C15.0139 14.7217 15.136 14.4898 15.3283 14.2027C15.3856 14.1172 15.4482 14.0279 15.5153 13.9358C15.6425 13.761 15.7794 13.5844 15.9164 13.4154C15.9984 13.3141 16.0619 13.2384 16.0972 13.1973C16.3934 12.7729 16.7093 12.0781 16.8253 11.6719C16.9367 11.2815 17.0259 10.5625 17.0806 9.85587C17.1106 9.45498 17.1217 9.13182 17.1217 8.6249C17.1218 8.53598 17.1218 8.53598 17.1219 8.46255C17.1222 8.3423 17.1222 8.29681 17.1219 8.2406C17.1208 8.08702 17.1163 7.9348 17.1015 7.54657C17.0696 6.73292 16.6237 6.20688 15.9666 6.10541C15.4076 6.01909 14.7272 6.48337 14.7272 6.48337C14.7272 6.48337 14.5758 5.96056 14.4735 5.79916C14.3073 5.53982 13.8793 5.20934 13.5521 5.14495C13.2156 5.07961 12.8167 5.08684 12.4504 5.15163C12.1296 5.20903 11.8101 5.49545 11.6252 5.8044C11.493 6.02479 11.6174 5.79271 11.4851 5.56472C11.3021 5.2507 10.8758 4.9695 10.4699 4.8865C10.1259 4.81537 9.73185 4.84246 9.37191 4.94944C8.90887 5.0878 8.83516 5.44017 8.81674 5.33928C8.75516 5.00104 8.74947 5.02327 8.71109 4.78199C8.56851 3.88671 8.40896 3.26725 8.16703 2.7267C8.18094 2.75778 8.07842 2.52456 8.0411 2.44413C7.97649 2.30488 7.912 2.17884 7.84111 2.05761C7.6226 1.68396 7.37219 1.4042 7.05802 1.24527C6.5124 0.96898 5.6946 1.10344 5.30696 1.55592C4.922 2.00559 4.85782 2.75742 4.95476 3.68776C4.99179 4.04897 5.12155 4.70842 5.23921 5.19589C5.28082 5.36508 5.31727 5.51938 5.38413 5.8044C5.39563 5.85288 5.39563 5.85288 5.40722 5.90138C5.45895 6.1171 5.5043 6.29458 5.55845 6.48934C5.55277 6.46904 5.65546 6.83343 5.67734 6.91407C5.68461 6.94099 5.68461 6.94099 5.69182 6.96803C5.73265 7.12181 5.77256 7.28762 5.83492 7.56434C5.86904 7.71648 5.90234 7.87902 5.93492 8.05133C6.02375 8.52126 6.02419 8.4234 5.93867 8.32319C5.8796 8.25396 5.82404 8.1911 5.77037 8.13315C5.6706 8.02545 5.57888 7.93638 5.49181 7.86534C4.85741 7.34628 4.46868 7.11694 3.93499 7.06656C3.05958 6.98245 2.22879 7.60082 2.10388 8.43538C2.02705 8.94708 2.0518 9.18262 2.28851 9.63481C2.41877 9.87914 2.63912 10.1742 3.05024 10.6822C3.0754 10.7132 3.0754 10.7132 3.10054 10.7442C3.60519 11.3661 3.66016 11.4352 3.78016 11.609C4.10451 12.0797 4.89411 13.4311 5.03764 13.6126L5.88547 14.5523Z" fill="black"/>
<path fill-rule="evenodd" clip-rule="evenodd" d="M3.68284 10.2716C3.65795 10.241 3.65795 10.241 3.63313 10.2103C3.25584 9.74417 3.04895 9.4671 2.95157 9.28446C2.79875 8.99251 2.79044 8.91339 2.84551 8.54657C2.91025 8.1141 3.37733 7.76644 3.86381 7.81318C4.20041 7.84496 4.49449 8.01846 5.0172 8.44613C5.0738 8.49231 5.14203 8.55857 5.22009 8.64283C5.26625 8.69267 5.31522 8.74808 5.36809 8.81003C5.4475 8.90309 5.71512 9.23055 5.6757 9.1829C5.73385 9.25282 5.77542 9.30698 5.82292 9.37335C5.91703 9.50769 5.96997 9.5823 6.04167 9.6779C6.00805 9.63302 6.2564 9.97633 6.30899 10.0265C6.58759 10.2925 6.99102 10.0685 6.96575 9.71408C6.96153 9.65492 6.94762 9.591 6.91857 9.47941C6.8037 8.66018 6.76351 8.39723 6.67179 7.91201C6.63771 7.73177 6.60274 7.56103 6.56658 7.39982C6.50222 7.11425 6.46022 6.93975 6.41663 6.77557C6.40888 6.7465 6.40888 6.7465 6.40111 6.71774C6.3781 6.63292 6.27385 6.26303 6.2808 6.28785C6.22945 6.10317 6.18625 5.93411 6.13648 5.72651C6.12517 5.67922 6.12517 5.67922 6.11388 5.63161C6.04739 5.3481 6.01 5.18985 5.96782 5.01834C5.85783 4.56266 5.73356 3.93114 5.70071 3.61066C5.62525 2.88644 5.67732 2.27647 5.87654 2.04377C6.03209 1.8622 6.47295 1.78972 6.71925 1.91445C6.88033 1.99593 7.0413 2.17576 7.19361 2.43621C7.25125 2.53479 7.30533 2.64048 7.36069 2.75979C7.39422 2.83205 7.49362 3.05816 7.48242 3.03316C7.69274 3.50308 7.83722 4.06403 7.97034 4.89987C8.00973 5.14754 8.05847 5.42811 8.12098 5.77138C8.13955 5.87317 8.13955 5.87317 8.1582 5.97452C8.4596 7.60986 8.43754 7.48592 8.44188 7.61635C8.45768 8.09213 9.15998 8.10327 9.19088 7.62823C9.20068 7.47758 9.19719 7.34307 9.1798 6.95677C9.17735 6.90212 9.17734 6.90212 9.17498 6.84767C9.15977 6.49176 9.16064 6.287 9.18169 6.17061C9.22003 5.95838 9.41056 5.72063 9.58603 5.6682C9.83245 5.59496 10.1024 5.5764 10.3187 5.62113C10.5258 5.66346 10.7674 5.82284 10.8367 5.94175C10.9202 6.08575 10.9919 6.30513 11.0468 6.57706C11.0911 6.79654 11.1216 7.03199 11.143 7.2833C11.1497 7.36149 11.154 7.4219 11.1607 7.52185C11.1636 7.56368 11.1636 7.56368 11.1664 7.5982C11.168 7.61551 11.168 7.61551 11.1719 7.64287C11.175 7.66205 11.175 7.66205 11.1893 7.71061C11.1966 7.84843 11.1966 7.84843 11.7501 7.89954C11.9154 7.69971 11.9154 7.69971 11.9109 7.66467C11.9379 7.54633 11.9545 7.41441 11.9781 7.16654C11.9932 7.00541 12.0008 6.9262 12.0097 6.84404C12.0465 6.50392 12.0932 6.28782 12.1502 6.19283C12.2209 6.07464 12.47 5.91002 12.5817 5.89003C12.8623 5.84041 13.1703 5.83483 13.4082 5.88102C13.5159 5.90222 13.7787 6.10516 13.8409 6.20223C13.9687 6.40379 14.0929 7.05361 14.1629 7.69835C14.1518 7.74064 14.1518 7.74064 14.3236 7.98595C14.9139 7.91865 14.9139 7.91865 14.8973 7.81206C14.9129 7.77407 14.9253 7.73014 14.9428 7.66192C14.985 7.50221 15.013 7.40948 15.0547 7.30556C15.0835 7.23367 15.1139 7.17221 15.145 7.12328C15.2657 6.93335 15.5781 6.80432 15.8521 6.84663C16.1463 6.89207 16.3338 7.11328 16.352 7.5756C16.3665 7.95603 16.3708 8.10228 16.3718 8.24583C16.3722 8.29879 16.3722 8.34131 16.3719 8.46092C16.3717 8.53483 16.3717 8.53483 16.3717 8.6249C16.3717 9.11382 16.3612 9.41843 16.3327 9.7989C16.2821 10.4522 16.1966 11.1417 16.1041 11.466C16.0096 11.7966 15.7276 12.4169 15.5043 12.7395C15.4885 12.7548 15.4205 12.8359 15.3336 12.9431C15.189 13.1216 15.0444 13.3081 14.9088 13.4944C14.8363 13.5941 14.7681 13.6913 14.7051 13.7853C14.4615 14.1491 14.3051 14.4461 14.2545 14.6896C14.1881 15.006 14.1643 15.1738 14.1572 15.3558C14.1555 15.4073 14.1555 15.4073 14.1544 15.4573C14.1518 15.5753 14.1503 15.623 14.1453 15.7093C14.1401 15.8 14.1415 15.8965 14.1488 15.9984C14.1592 16.1444 14.1488 16.3439 14.1488 16.3439C14.1488 16.3439 14.0222 16.3321 13.8809 16.3353C13.7084 16.3393 13.565 16.3334 13.4658 16.3176C13.3228 16.2945 12.9365 15.8111 12.7387 15.4345C12.4364 14.8581 11.7026 14.8861 11.4018 15.3951C11.1305 15.8569 10.7422 16.3123 10.6269 16.3268C10.2523 16.3739 9.67218 16.3793 8.55513 16.3601C8.44834 16.3582 8.44834 16.3582 8.34165 16.3563C7.91275 16.3487 7.92923 16.4211 7.93801 16.3439C7.96308 16.1236 7.96024 16.1649 7.93801 15.9446C7.90075 15.5753 7.78676 15.2741 7.54924 15.0741C7.42637 14.9697 7.27941 14.8333 6.98423 14.553C6.64701 14.2326 6.5414 14.1336 6.41124 14.0192L5.60994 13.1285C5.52198 13.016 4.74991 11.6946 4.39745 11.1831C4.26034 10.9845 4.20906 10.9201 3.68284 10.2716ZM13.1916 10.2754V13.7344C13.1916 14.2344 13.9416 14.2344 13.9416 13.7344V10.2754C13.9416 9.7754 13.1916 9.7754 13.1916 10.2754ZM11.16 10.2748L11.176 13.7478C11.1783 14.2478 11.9283 14.2444 11.926 13.7444L11.91 10.2714C11.9077 9.77137 11.1577 9.77483 11.16 10.2748ZM9.95086 13.7284L9.92986 10.3024C9.9268 9.80241 9.17681 9.807 9.17988 10.307L9.20088 13.733C9.20394 14.233 9.95393 14.2284 9.95086 13.7284Z" fill="white"/>
</g>
<defs>
<filter id="filter0_d" x="0.0649414" y="0.102142" width="19.0572" height="20.0185" filterUnits="userSpaceOnUse" color-interpolation-filters="sRGB">
<feFlood flood-opacity="0" result="BackgroundImageFix"/>
<feColorMatrix in="SourceAlpha" type="matrix" values="0 0 0 0 0 0 0 0 0 0 0 0 0 0 0 0 0 0 127 0"/>
<feOffset dy="1"/>
<feGaussianBlur stdDeviation="1"/>
<feColorMatrix type="matrix" values="0 0 0 0 0 0 0 0 0 0 0 0 0 0 0 0 0 0 0.298656 0"/>
<feBlend mode="normal" in2="BackgroundImageFix" result="effect1_dropShadow"/>
<feBlend mode="normal" in="SourceGraphic" in2="effect1_dropShadow" result="shape"/>
</filter>
</defs>
</svg>
